<?xml version="1.0" standalone="no"?>
<!DOCTYPE svg PUBLIC "-//W3C//DTD SVG 1.1//EN" "http://www.w3.org/Graphics/SVG/1.1/DTD/svg11.dtd" >
<svg>
<metadata>
Created by FontForge 20120731 at Tue Oct 30 13:03:28 2018
 By www
Copyright (c) 2011 Nokia. All rights reserved.  Reproduction, transfer, distribution or storage of part or all of the contents in this document in any form without the prior written permission of Nokia is prohibited.
</metadata>
<defs>
<font id="NokiaPureHeadline-Regular" horiz-adv-x="511" >
  <font-face 
    font-family="Nokia Pure Headline"
    font-weight="400"
    font-stretch="normal"
    units-per-em="1000"
    panose-1="2 11 5 4 4 6 2 6 3 3"
    ascent="763"
    descent="-237"
    x-height="500"
    cap-height="703"
    bbox="-366 -250 1310 983"
    underline-thickness="68"
    underline-position="-32"
    unicode-range="U+0008-FB04"
  />
<missing-glyph horiz-adv-x="500" 
d="M50 0v750h400v-750h-400zM400 50v650h-300v-650h300z" />
    <glyph glyph-name="f_f" unicode="ff" horiz-adv-x="653" 
d="M196 425v-425h-89v425h-95v75h95v57q0 45 11 83t34 65t60 42.5t88 15.5q34 0 59 -4.5t32 -6.5l-10 -68q-5 1 -24.5 3t-40.5 2q-57 0 -88.5 -30.5t-31.5 -108.5v-50h213v57q0 45 11 83t34 65t60 42.5t88 15.5q34 0 59 -4.5t32 -6.5l-10 -68q-5 1 -24.5 3t-40.5 2
q-57 0 -88.5 -30.5t-31.5 -108.5v-50h155v-75h-155v-425h-89v425h-213z" />
    <glyph glyph-name="fi" unicode="fi" horiz-adv-x="555" 
d="M196 500h302v-500h-89v425h-213v-425h-89v425h-95v75h95v52q0 45 9.5 83.5t31 67t56.5 44.5t86 16q26 0 44.5 -3t23.5 -4l-6 -70q-4 1 -14.5 2t-31.5 1q-57 0 -83.5 -33t-26.5 -111v-45zM511 662q0 -27 -15.5 -44t-42.5 -17t-42.5 17.5t-15.5 43.5t15.5 43.5t42.5 17.5
t42.5 -17t15.5 -44z" />
    <glyph glyph-name="fl" unicode="fl" horiz-adv-x="555" 
d="M409 750h89v-750h-89v750zM351 425h-155v-425h-89v425h-95v75h95v52q0 45 9.5 83.5t31 67t56.5 44.5t86 16q26 0 44.5 -3t23.5 -4l-6 -70q-4 1 -14.5 2t-31.5 1q-57 0 -83.5 -33t-26.5 -111v-45h155v-75z" />
    <glyph glyph-name="f_f_i" unicode="ffi" horiz-adv-x="857" 
d="M12 425v75h95v57q0 45 11 83t34 65t60 42.5t88 15.5q34 0 59 -4.5t32 -6.5l-10 -68q-5 1 -24.5 3t-40.5 2q-57 0 -88.5 -30.5t-31.5 -108.5v-50h213v52q0 45 9.5 83.5t31 67t56.5 44.5t86 16q26 0 44.5 -3t23.5 -4l-6 -70q-4 1 -14.5 2t-31.5 1q-57 0 -83.5 -33
t-26.5 -111v-45h302v-500h-89v425h-213v-425h-89v425h-213v-425h-89v425h-95zM813 662q0 -27 -15.5 -44t-42.5 -17t-42.5 17.5t-15.5 43.5t15.5 43.5t42.5 17.5t42.5 -17t15.5 -44z" />
    <glyph glyph-name="f_f_l" unicode="ffl" horiz-adv-x="857" 
d="M498 500h155v-75h-155v-425h-89v425h-213v-425h-89v425h-95v75h95v57q0 45 11 83t34 65t60 42.5t88 15.5q34 0 59 -4.5t32 -6.5l-10 -68q-5 1 -24.5 3t-40.5 2q-57 0 -88.5 -30.5t-31.5 -108.5v-50h213v52q0 45 9.5 83.5t31 67t56.5 44.5t86 16q26 0 44.5 -3t23.5 -4
l-6 -70q-4 1 -14.5 2t-31.5 1q-57 0 -83.5 -33t-26.5 -111v-45zM711 750h89v-750h-89v750z" />
    <glyph glyph-name="uni05780582" unicode="&#x578;&#x582;" horiz-adv-x="890" 
d="M486 0h-89v307q0 38 -7.5 63t-21.5 39.5t-33 20t-41 5.5q-40 0 -67 -17t-44 -45.5t-24.5 -64.5t-7.5 -74v-234h-89v500h82l4 -69q6 12 19 26.5t33.5 27t47.5 20.5t62 8q86 0 131 -50t45 -137v-326zM630 500h89v-427h160v-73h-249v500z" />
    <glyph glyph-name="uniFB13" unicode="&#x574;&#x576;" horiz-adv-x="1124" 
d="M973 500h89v-500h-82l-4 67q-6 -12 -19 -26t-33 -26t-47 -20t-62 -8q-86 0 -131.5 50t-45.5 137v303q-26 11 -42.5 25.5t-26 30.5t-13 33.5t-3.5 35.5q0 19 4 36.5t9 34.5q-17 7 -37 11.5t-42 4.5q-45 0 -68.5 -18t-23.5 -55q0 -32 14 -61t29 -61q8 -17 16.5 -35.5
t15 -44t11 -60t4.5 -82.5v-272h-82l-4 67q-6 -12 -19 -26t-33 -26t-47 -20t-62 -8q-86 0 -131.5 50t-45.5 137v326h89v-313q0 -36 7.5 -59.5t21 -37.5t32.5 -19.5t42 -5.5q40 0 67.5 17t44 45t24 64t7.5 74q0 43 -2.5 73.5t-8 53.5t-14 43t-19.5 44q-20 41 -31 72.5
t-11 72.5q0 27 10.5 51t32 42t53.5 29t75 11q57 0 100 -17.5t77 -46.5q-11 -22 -16 -44.5t-5 -45.5q0 -35 22.5 -54t67.5 -35v-327q0 -36 7.5 -59.5t21 -37.5t32 -19.5t40.5 -5.5q40 0 67.5 17t44.5 44.5t25 64t8 75.5v234z" />
    <glyph glyph-name="uniFB14" unicode="&#x574;&#x565;" horiz-adv-x="1101" 
d="M253 65q40 0 67.5 17t44 45t24 64t7.5 74q0 43 -2.5 73.5t-8 53.5t-14 43t-19.5 44q-9 20 -17 37t-13.5 33.5t-8.5 34t-3 37.5q0 59 51.5 97.5t141.5 38.5q75 0 126.5 -17t91.5 -41v-199h330v-77h-330v-245q0 -63 25 -90t78 -27q25 0 48 10t40.5 29.5t28 46.5t10.5 62v69
h84v-278h-78l-3 62q-8 -12 -21 -25t-32.5 -24t-45 -18.5t-57.5 -7.5q-47 0 -78.5 13.5t-51 38t-28 57.5t-8.5 72v496q-26 10 -57.5 16.5t-71.5 6.5q-46 0 -77 -17.5t-31 -53.5q0 -32 14 -61t29 -61q8 -17 16.5 -35.5t15 -44t11 -60t4.5 -82.5v-272h-82l-4 67q-6 -12 -19 -26
t-33 -26t-47 -20t-62 -8q-86 0 -131.5 50t-45.5 137v326h89v-313q0 -36 7.5 -59.5t21 -37.5t32.5 -19.5t42 -5.5z" />
    <glyph glyph-name="uniFB15" unicode="&#x574;&#x56b;" horiz-adv-x="1117" 
d="M721 -220h-89v884q-28 10 -59 16.5t-70 6.5q-46 0 -77 -17.5t-31 -53.5q0 -32 14 -61t29 -61q8 -17 16.5 -35.5t15 -44t11 -60t4.5 -82.5v-272h-82l-4 67q-6 -12 -19 -26t-33 -26t-47 -20t-62 -8q-86 0 -131.5 50t-45.5 137v326h89v-313q0 -36 7.5 -59.5t21 -37.5
t32.5 -19.5t42 -5.5q40 0 67.5 17t44 45t24 64t7.5 74q0 43 -2.5 73.5t-8 53.5t-14 43t-19.5 44q-9 20 -17 37t-13.5 33.5t-8.5 34t-3 37.5q0 59 51.5 97.5t141.5 38.5q75 0 125.5 -17t92.5 -41v-263q7 12 20.5 25.5t33 25t46 19t59.5 7.5q86 0 131 -50t45 -137v-326h-89
v307q0 38 -7.5 63t-21.5 39.5t-33 20t-41 5.5q-38 0 -65.5 -16.5t-44.5 -43.5t-25 -62t-8 -72v-461z" />
    <glyph glyph-name="uniFB16" unicode="&#x57e;&#x576;" horiz-adv-x="1128" 
d="M640 500h-148v-647h140v-73h-228v282q-8 -12 -21 -25t-32.5 -24t-46 -18.5t-59.5 -7.5q-85 0 -134.5 47.5t-49.5 139.5v326h89v-313q0 -35 8 -58.5t22.5 -37.5t34.5 -20t44 -6q41 0 68.5 17t44.5 45.5t24.5 64.5t7.5 74v234q-61 1 -99.5 13t-60 30.5t-29.5 41.5t-8 46
q0 42 18 70.5t39 54.5l57 -44q-12 -17 -23.5 -35.5t-11.5 -43.5q0 -12 5 -23.5t18.5 -20t36.5 -14t58 -5.5v180h88v-180h237v-383q0 -36 7.5 -59.5t21 -37.5t32 -19.5t40.5 -5.5q40 0 67.5 17t44.5 44.5t25 64t8 75.5v234h89v-500h-82l-4 67q-6 -12 -19 -26t-33 -26t-47 -20
t-62 -8q-86 0 -131.5 50t-45.5 137v326z" />
    <glyph glyph-name="uniFB17" unicode="&#x574;&#x56d;" horiz-adv-x="1375" 
d="M721 -220h-89v884q-28 10 -59 16.5t-70 6.5q-46 0 -77 -17.5t-31 -53.5q0 -32 14 -61t29 -61q8 -17 16.5 -35.5t15 -44t11 -60t4.5 -82.5v-272h-82l-4 67q-6 -12 -19 -26t-33 -26t-47 -20t-62 -8q-86 0 -131.5 50t-45.5 137v326h89v-313q0 -36 7.5 -59.5t21 -37.5
t32.5 -19.5t42 -5.5q40 0 67.5 17t44 45t24 64t7.5 74q0 43 -2.5 73.5t-8 53.5t-14 43t-19.5 44q-9 20 -17 37t-13.5 33.5t-8.5 34t-3 37.5q0 59 51.5 97.5t141.5 38.5q75 0 125.5 -17t92.5 -41v-265q7 15 18.5 29t27.5 25t38 18t51 7q40 0 65.5 -13.5t40.5 -36.5t20.5 -53
t5.5 -64v-159q0 -35 7.5 -58t20 -37.5t29.5 -20.5t37 -6q38 0 64.5 17.5t43 45.5t24 64t7.5 74v234h89v-500h-82l-4 68q-6 -13 -19.5 -27.5t-33.5 -26.5t-46 -19.5t-58 -7.5q-80 0 -124 50t-44 137v174q0 40 -15 62t-53 22q-54 0 -82 -49.5t-28 -138.5v-464z" />
    <glyph glyph-name=".notdef" horiz-adv-x="500" 
d="M50 0v750h400v-750h-400zM400 50v650h-300v-650h300z" />
    <glyph glyph-name=".null" horiz-adv-x="0" 
 />
    <glyph glyph-name=".null" horiz-adv-x="0" 
 />
    <glyph glyph-name=".null" horiz-adv-x="0" 
 />
    <glyph glyph-name="nonmarkingreturn" unicode="&#x9;" horiz-adv-x="218" 
 />
    <glyph glyph-name="nonmarkingreturn" unicode="&#xd;" horiz-adv-x="218" 
 />
    <glyph glyph-name="space" unicode=" " horiz-adv-x="218" 
 />
    <glyph glyph-name="exclam" unicode="!" horiz-adv-x="266" 
d="M179 193h-92v510h92v-510zM197 54q0 -29 -17.5 -48t-46.5 -19t-46.5 19t-17.5 48t17.5 48t46.5 19t46.5 -19t17.5 -48z" />
    <glyph glyph-name="quotedbl" unicode="&#x22;" horiz-adv-x="414" 
d="M70 703h95l-9 -262h-76zM249 703h95l-9 -262h-76z" />
    <glyph glyph-name="numbersign" unicode="#" horiz-adv-x="565" 
d="M54 525h112l35 178h79l-35 -178h143l35 178h79l-35 -178h97l-13 -72h-98l-38 -190h109l-13 -72h-109l-38 -191h-79l38 191h-144l-38 -191h-79l38 191h-99l13 72h100l38 190h-111zM193 263h143l38 190h-143z" />
    <glyph glyph-name="dollar" unicode="$" horiz-adv-x="556" 
d="M304 -109h-67v101q-45 1 -81 10t-62 20t-42 20.5t-20 12.5l37 65q12 -7 28 -16t37 -17t46.5 -14.5t56.5 -7.5v255l-34 11q-33 12 -60.5 27t-47 36t-30 48.5t-10.5 65.5q0 76 47 126.5t135 61.5v94h67v-92q55 -5 97 -20.5t68 -32.5l-33 -66q-17 10 -50.5 24.5t-81.5 19.5
v-242l27 -9q77 -26 116.5 -68.5t39.5 -114.5q0 -78 -46 -130.5t-137 -63.5v-104zM401 183q0 40 -20.5 69.5t-76.5 49.5v-234q55 11 76 41t21 74zM138 514q0 -21 4.5 -38t15.5 -30.5t30 -25t49 -21.5v223q-48 -8 -73.5 -35.5t-25.5 -72.5z" />
    <glyph glyph-name="percent" unicode="%" horiz-adv-x="880" 
d="M585 703h91l-381 -703h-91zM37 510q0 97 39 148.5t118 51.5q78 0 117.5 -51.5t39.5 -148.5t-39.5 -148t-117.5 -51q-157 0 -157 199zM114 510q0 -134 80 -134q39 0 59.5 34t20.5 100q0 134 -80 134t-80 -134zM529 192q0 97 39 148.5t118 51.5q78 0 117.5 -51.5
t39.5 -148.5t-39.5 -148t-117.5 -51q-157 0 -157 199zM606 192q0 -134 80 -134q39 0 59.5 34t20.5 100q0 134 -80 134t-80 -134z" />
    <glyph glyph-name="ampersand" unicode="&#x26;" horiz-adv-x="651" 
d="M632 0h-112l-44 51q-45 -29 -95 -46.5t-110 -17.5q-63 0 -108 15t-74 41t-43 62.5t-14 80.5q0 74 42 124.5t114 84.5q-36 43 -53.5 78.5t-17.5 79.5q0 75 47 120.5t134 45.5q35 0 66.5 -9.5t55.5 -28.5t38 -48t14 -67q0 -35 -11 -62.5t-31.5 -50t-49.5 -41t-65 -35.5
l176 -210q22 24 40.5 52.5t35.5 63.5l67 -34q-17 -38 -41 -75t-52 -67zM233 341q-51 -28 -78.5 -64t-27.5 -83q0 -128 148 -128q84 0 152 43zM269 430q25 12 47 24.5t38 27.5t25 34t9 45q0 42 -25.5 65.5t-65.5 23.5q-45 0 -69.5 -26t-24.5 -70q0 -35 19 -63.5t47 -60.5z
" />
    <glyph glyph-name="quotesingle" unicode="'" horiz-adv-x="235" 
d="M70 703h95l-9 -262h-76z" />
    <glyph glyph-name="parenleft" unicode="(" horiz-adv-x="250" 
d="M42 327q0 78 10.5 145t25.5 121t32 94t30 63h88q-16 -30 -32 -73.5t-29 -97.5t-21 -117.5t-8 -134.5t8 -134.5t21 -117.5t29 -97.5t32 -73.5h-88q-13 23 -30 63t-32 94t-25.5 121t-10.5 145z" />
    <glyph glyph-name="parenright" unicode=")" horiz-adv-x="250" 
d="M208 327q0 -78 -10.5 -145t-25.5 -121t-32 -94t-30 -63h-88q16 30 32 73.5t29 97.5t21 117.5t8 134.5t-8 134.5t-21 117.5t-29 97.5t-32 73.5h88q13 -23 30 -63t32 -94t25.5 -121t10.5 -145z" />
    <glyph glyph-name="asterisk" unicode="*" horiz-adv-x="371" 
d="M229 750l-15 -138l119 57l26 -70l-128 -39l100 -109l-62 -48l-84 116l-84 -116l-61 48l99 109l-127 39l25 70l119 -57l-15 138h88z" />
    <glyph glyph-name="plus" unicode="+" horiz-adv-x="556" 
d="M57 392h179v195h84v-195h179v-80h-179v-195h-84v195h-179v80z" />
    <glyph glyph-name="comma" unicode="," horiz-adv-x="234" 
d="M181 49q0 -33 -15.5 -70.5t-35.5 -71t-38 -58t-24 -31.5l-51 35q6 9 16.5 26t21 37t20 40.5t13.5 35.5q-16 8 -26.5 23t-10.5 38q0 32 18 50t48 18q28 0 46 -19.5t18 -52.5z" />
    <glyph glyph-name="hyphen" unicode="-" horiz-adv-x="371" 
d="M42 326h287v-92h-287v92z" />
    <glyph glyph-name="period" unicode="." horiz-adv-x="234" 
d="M181 54q0 -29 -17.5 -48t-46.5 -19t-46.5 19t-17.5 48t17.5 48t46.5 19t46.5 -19t17.5 -48z" />
    <glyph glyph-name="slash" unicode="/" horiz-adv-x="402" 
d="M-3 -47l312 797h96l-312 -797h-96z" />
    <glyph glyph-name="zero" unicode="0" horiz-adv-x="588" 
d="M294 717q129 0 190.5 -93.5t61.5 -271.5q0 -179 -61.5 -272.5t-190.5 -93.5t-190.5 93.5t-61.5 272.5q0 178 61.5 271.5t190.5 93.5zM294 638q-82 0 -120 -71.5t-38 -214.5t38 -215t120 -72t120 72t38 215t-38 214.5t-120 71.5z" />
    <glyph glyph-name="one" unicode="1" horiz-adv-x="440" 
d="M215 596l-167 -97l-35 68l229 136h64v-703h-91v596z" />
    <glyph glyph-name="two" unicode="2" horiz-adv-x="502" 
d="M218 345q32 25 57 47t42 43t25.5 43.5t8.5 49.5q0 48 -29 79.5t-92 31.5q-31 0 -55.5 -8.5t-43 -20.5t-32.5 -26.5t-23 -26.5l-57 49q10 16 29.5 35.5t46.5 36t62.5 28t78.5 11.5q55 0 95 -16t65 -42.5t37 -60t12 -67.5q0 -38 -13 -70.5t-34.5 -61t-49.5 -53.5t-59 -49
q-77 -60 -119 -110t-49 -109h333v-78h-427v15q0 55 12 99.5t35.5 83.5t59.5 74.5t84 72.5z" />
    <glyph glyph-name="three" unicode="3" horiz-adv-x="499" 
d="M121 398h67q39 0 67.5 10t47 27t27 40t8.5 49q0 49 -29 82.5t-94 33.5q-30 0 -53.5 -6t-42 -15t-32.5 -19.5t-23 -19.5l-49 52q10 11 28 26t43.5 28t58.5 22t72 9q56 0 96 -15t66 -40t38 -57t12 -66q0 -33 -10 -60.5t-27 -49t-40 -38t-48 -27.5q29 -8 54 -22.5t44 -35.5
t29.5 -48.5t10.5 -61.5q0 -51 -19.5 -90t-53.5 -66t-80.5 -40.5t-100.5 -13.5q-62 0 -107 9t-71 18l20 72q19 -5 55 -12.5t96 -7.5q76 0 122 32t46 99q0 53 -38 88.5t-120 35.5h-70v78z" />
    <glyph glyph-name="four" unicode="4" horiz-adv-x="536" 
d="M23 249l264 454h95l-264 -451h198v184h86v-184h104v-76h-104v-176h-86v176h-293v73z" />
    <glyph glyph-name="five" unicode="5" horiz-adv-x="498" 
d="M183 66q79 0 127 39.5t48 117.5q0 25 -6.5 51t-23 46.5t-44.5 33.5t-70 13q-41 0 -69.5 -11t-45.5 -21l-50 36l40 332h337v-79h-272l-23 -204q8 5 36 12.5t71 7.5q46 0 85 -13t67.5 -39.5t44.5 -67.5t16 -97q0 -49 -17 -92t-50.5 -75.5t-82.5 -51t-113 -18.5
q-62 0 -107 8.5t-71 17.5l20 72q19 -5 54.5 -11.5t98.5 -6.5z" />
    <glyph glyph-name="six" unicode="6" horiz-adv-x="533" 
d="M134 377q22 36 65.5 59.5t98.5 23.5q42 0 79.5 -13t66 -41t45 -71t16.5 -103q0 -59 -16 -104.5t-46 -77t-71.5 -48t-92.5 -16.5q-108 0 -170 78.5t-62 238.5q0 204 69.5 309t203.5 105q51 0 91 -12.5t70 -31.5l-35 -64q-56 30 -126 30q-88 0 -133 -67.5t-53 -194.5z
M279 62q36 0 62.5 12.5t43 34t24.5 50.5t8 62q0 83 -34.5 122t-98.5 39q-69 0 -106 -43.5t-37 -112.5q0 -30 8 -59.5t24.5 -52.5t43 -37.5t62.5 -14.5z" />
    <glyph glyph-name="seven" unicode="7" horiz-adv-x="490" 
d="M89 0l290 624h-363v79h454v-74l-287 -629h-94z" />
    <glyph glyph-name="eight" unicode="8" horiz-adv-x="574" 
d="M506 540q0 -31 -9.5 -56.5t-26 -47t-38.5 -39t-47 -31.5q34 -16 60 -33.5t44 -39.5t27 -50t9 -64q0 -91 -63 -142t-175 -51q-57 0 -101.5 13t-75 37t-46 57t-15.5 73q0 37 11.5 66.5t31 52.5t46.5 40.5t59 32.5q-25 12 -48.5 28t-41.5 37.5t-29 49.5t-11 65t14 69.5
t42 57t69 38.5t95 14q57 0 98 -14t68 -38t40 -56t13 -69zM438 178q0 59 -40 92t-116 59q-30 -13 -56.5 -27.5t-47 -32.5t-32 -41.5t-11.5 -53.5q0 -52 38 -83.5t114 -31.5q72 0 111.5 30t39.5 89zM421 537q0 48 -33 79t-101 31q-67 0 -101 -31t-34 -78q0 -30 11.5 -52.5
t32 -39t47.5 -29t59 -21.5q55 24 87 56.5t32 84.5z" />
    <glyph glyph-name="nine" unicode="9" horiz-adv-x="533" 
d="M399 327q-10 -18 -26.5 -33t-38 -26t-47 -17.5t-52.5 -6.5q-42 0 -79.5 13t-66 40.5t-45 70.5t-16.5 103q0 59 16 105t46 77.5t72 47.5t93 16q107 0 169 -79.5t62 -242.5q0 -104 -19.5 -180.5t-56.5 -127.5t-90 -76t-120 -25q-57 0 -91.5 7.5t-44.5 11.5l18 73
q6 -2 17.5 -4.5t27.5 -4.5t34 -4t36 -2q52 0 88.5 17.5t60 51t36 83t17.5 112.5zM255 641q-36 0 -62.5 -12t-43.5 -33.5t-25 -50.5t-8 -62q0 -83 34.5 -122t98.5 -39q34 0 60.5 11.5t45 32.5t28 49.5t9.5 62.5q0 30 -8 59t-25 52.5t-42.5 37.5t-61.5 14z" />
    <glyph glyph-name="colon" unicode=":" horiz-adv-x="234" 
d="M181 54q0 -29 -17.5 -48t-46.5 -19t-46.5 19t-17.5 48t17.5 48t46.5 19t46.5 -19t17.5 -48zM181 435q0 -29 -17.5 -48t-46.5 -19t-46.5 19t-17.5 48t17.5 48t46.5 19t46.5 -19t17.5 -48z" />
    <glyph glyph-name="semicolon" unicode=";" horiz-adv-x="234" 
d="M181 433q0 -29 -17.5 -48t-46.5 -19t-46.5 19t-17.5 48t17.5 48t46.5 19t46.5 -19t17.5 -48zM181 49q0 -33 -15.5 -70.5t-35.5 -71t-38 -58t-24 -31.5l-51 35q6 9 16.5 26t21 37t20 40.5t13.5 35.5q-16 8 -26.5 23t-10.5 38q0 32 18 50t48 18q28 0 46 -19.5t18 -52.5z
" />
    <glyph glyph-name="less" unicode="&#x3c;" horiz-adv-x="556" 
d="M160 352l328 -148l-31 -76l-389 187v74l389 187l31 -76z" />
    <glyph glyph-name="equal" unicode="=" horiz-adv-x="556" 
d="M77 492h402v-80h-402v80zM77 292h402v-80h-402v80z" />
    <glyph glyph-name="greater" unicode="&#x3e;" horiz-adv-x="556" 
d="M68 500l31 76l389 -187v-74l-389 -187l-31 76l328 148z" />
    <glyph glyph-name="question" unicode="?" horiz-adv-x="507" 
d="M174 193q0 38 8.5 67.5t23.5 53.5t35 44.5t42 40.5q12 11 25.5 24t25 29t18.5 34.5t7 41.5q0 47 -29.5 78t-97.5 31q-52 0 -87 -22.5t-64 -55.5l-56 51q11 16 30.5 35t46.5 35.5t62 27.5t76 11q62 0 103.5 -17t66 -44t35 -60.5t10.5 -65.5q0 -31 -8.5 -56t-22 -46
t-30.5 -38.5t-34 -32.5q-19 -17 -36 -33t-29.5 -34.5t-20 -42.5t-7.5 -56h-93zM284 54q0 -29 -17.5 -48t-46.5 -19t-46.5 19t-17.5 48t17.5 48t46.5 19t46.5 -19t17.5 -48z" />
    <glyph glyph-name="at" unicode="@" horiz-adv-x="976" 
d="M908 -85q-71 -65 -167.5 -106t-224.5 -41q-129 0 -219 35t-145.5 95.5t-80.5 142.5t-25 175q0 109 34.5 206t97.5 170t152 115.5t198 42.5q98 0 175 -27.5t130.5 -78t81.5 -120t28 -153.5t-23.5 -150.5t-61 -112.5t-84 -70t-92.5 -24q-29 0 -47 5.5t-28.5 13.5
t-15.5 16.5t-7 14.5q-22 -17 -55 -33.5t-86 -16.5q-36 0 -66.5 12t-52.5 35.5t-34.5 57.5t-12.5 79q0 65 17 119t47 93t71.5 61t90.5 22q34 0 58 -9.5t39 -21.5t23 -23.5t10 -16.5l16 60h79l-58 -309q-3 -16 -5 -30t-2 -23q0 -17 9.5 -24t28.5 -7q20 0 47.5 16t52.5 50
t42.5 87.5t17.5 128.5q0 73 -24 129.5t-68 95t-105 58.5t-136 20q-90 0 -163 -36.5t-124.5 -99t-80 -146t-28.5 -176.5q0 -77 20 -144.5t65.5 -117.5t119 -79.5t180.5 -29.5q65 0 119 14t96.5 33.5t73 41.5t49.5 39zM463 86q45 0 73.5 18t41.5 33l20 107q2 10 4 29t2 41
q0 44 -23 74.5t-72 30.5q-30 0 -56 -15.5t-45.5 -44t-30.5 -69.5t-11 -92q0 -54 26 -83t71 -29z" />
    <glyph glyph-name="A" unicode="A" horiz-adv-x="574" 
d="M414 180h-262l-58 -180h-88l232 703h97l233 -703h-96zM178 261h210l-104 325z" />
    <glyph glyph-name="B" unicode="B" horiz-adv-x="571" 
d="M272 703q65 0 108 -17t68.5 -43t35.5 -58t10 -63q0 -38 -12 -66t-29.5 -46.5t-37.5 -28.5t-36 -13q19 -3 45 -12t50 -28.5t40.5 -51.5t16.5 -81q0 -42 -14 -78t-44.5 -62t-78 -40.5t-113.5 -14.5h-214v703h205zM260 402q41 0 68.5 10t44 26.5t23 37t6.5 41.5
q0 54 -34.5 80t-98.5 26h-112v-221h103zM294 80q40 0 67.5 10t44.5 26.5t24 38t7 45.5q0 35 -12.5 58.5t-35 38t-54 21t-70.5 6.5h-108v-244h137z" />
    <glyph glyph-name="C" unicode="C" horiz-adv-x="585" 
d="M354 627q-107 0 -159 -73.5t-52 -202.5t51.5 -202t158.5 -73q30 0 56.5 5.5t48 13.5t38.5 18t28 18l48 -67q-31 -27 -88 -51t-135 -24q-76 0 -133 25t-95.5 71.5t-58 114t-19.5 151.5q0 81 19.5 148t58.5 114.5t97 74t136 26.5q71 0 124 -20.5t95 -55.5l-48 -67
q-13 10 -29 20t-37 18t-46.5 13t-58.5 5z" />
    <glyph glyph-name="D" unicode="D" horiz-adv-x="661" 
d="M301 703q77 0 136.5 -26t99.5 -72.5t60.5 -111t20.5 -142.5q0 -79 -20.5 -144t-60.5 -111t-99.5 -71t-136.5 -25h-234v703h234zM301 83q109 0 163 72t54 197t-54.5 196.5t-162.5 71.5h-142v-537h142z" />
    <glyph glyph-name="E" unicode="E" 
d="M67 703h414v-83h-322v-213h252v-83h-252v-241h332v-83h-424v703z" />
    <glyph glyph-name="F" unicode="F" horiz-adv-x="479" 
d="M67 0v703h394v-83h-302v-213h242v-83h-242v-324h-92z" />
    <glyph glyph-name="G" unicode="G" horiz-adv-x="649" 
d="M506 293h-126v82h217v-348q-9 -5 -28.5 -12t-49 -14t-69 -12t-88.5 -5q-81 0 -140.5 25.5t-99.5 73.5t-59.5 116t-19.5 152q0 81 19.5 148.5t58.5 116.5t97 76t136 27q72 0 130 -20t100 -55l-48 -67q-26 20 -71 38t-111 18q-54 0 -93.5 -20t-65.5 -56.5t-39 -89
t-13 -116.5q0 -65 13 -117t40 -89t68.5 -57t99.5 -20q51 0 84.5 5.5t57.5 13.5v206z" />
    <glyph glyph-name="H" unicode="H" horiz-adv-x="642" 
d="M483 703h92v-703h-92v334h-324v-334h-92v703h92v-286h324v286z" />
    <glyph glyph-name="I" unicode="I" horiz-adv-x="226" 
d="M159 0h-92v703h92v-703z" />
    <glyph glyph-name="J" unicode="J" horiz-adv-x="449" 
d="M295 703h92v-508q0 -60 -16.5 -100t-44.5 -65t-65 -35.5t-79 -10.5q-41 0 -73.5 7.5t-55.5 16.5t-36 17t-15 10l32 67q3 -2 14.5 -8.5t29.5 -13t42 -11.5t52 -5q25 0 47.5 5.5t39.5 20t26.5 40t9.5 66.5v507z" />
    <glyph glyph-name="K" unicode="K" horiz-adv-x="570" 
d="M571 0h-118l-294 368v-368h-92v703h92v-325l282 325h105l-281 -324z" />
    <glyph glyph-name="L" unicode="L" horiz-adv-x="481" 
d="M159 83h307v-83h-399v703h92v-620z" />
    <glyph glyph-name="M" unicode="M" horiz-adv-x="755" 
d="M67 703h104l208 -427l205 427h104v-703h-92v545l-182 -370h-80l-176 362v-537h-91v703z" />
    <glyph glyph-name="N" unicode="N" horiz-adv-x="646" 
d="M489 703h90v-703h-90l-332 545v-545h-90v703h96l326 -536v536z" />
    <glyph glyph-name="O" unicode="O" horiz-adv-x="708" 
d="M354 -16q-78 0 -136 26.5t-97 75t-58.5 116t-19.5 149.5q0 81 19.5 148.5t58.5 116.5t97 76t136 27q77 0 135.5 -27t97.5 -76t58.5 -116.5t19.5 -148.5q0 -82 -19.5 -149.5t-58.5 -116t-97.5 -75t-135.5 -26.5zM354 68q54 0 94 20t66 57t38.5 89t12.5 117q0 64 -13 116.5
t-39 89t-65.5 56.5t-93.5 20t-93.5 -20t-65.5 -56.5t-39 -89t-13 -116.5q0 -65 12.5 -117t39 -89t66 -57t93.5 -20z" />
    <glyph glyph-name="P" unicode="P" horiz-adv-x="532" 
d="M408 483q0 65 -39 102.5t-107 37.5h-105v-280h96q75 0 115 37.5t40 102.5zM500 483q0 -36 -12.5 -75t-41.5 -71.5t-75.5 -53t-115.5 -20.5h-98v-263h-90v703h197q65 0 110 -20.5t73 -53t40.5 -71.5t12.5 -75z" />
    <glyph glyph-name="Q" unicode="Q" horiz-adv-x="708" 
d="M501 16q29 -29 75.5 -49t97.5 -28l-19 -77q-36 3 -74.5 14.5t-73 28.5t-63.5 38t-47 44q-21 -3 -43 -3q-78 0 -136 26.5t-97 75t-58.5 116t-19.5 149.5q0 81 19.5 148.5t58.5 116.5t97 76t136 27q77 0 135.5 -27t97.5 -76t58.5 -116.5t19.5 -148.5q0 -121 -41.5 -207.5
t-122.5 -127.5zM354 68q54 0 94 20t66 57t38.5 89t12.5 117q0 64 -13 116.5t-39 89t-65.5 56.5t-93.5 20t-93.5 -20t-65.5 -56.5t-39 -89t-13 -116.5q0 -65 12.5 -117t39 -89t66 -57t93.5 -20z" />
    <glyph glyph-name="R" unicode="R" horiz-adv-x="554" 
d="M536 0h-108l-167 283h-104v-283h-90v703h203q65 0 108.5 -20.5t70 -52t37.5 -68t11 -69.5q0 -74 -37.5 -123t-103.5 -72zM405 493q0 60 -35.5 95t-101.5 35h-111v-260h104q72 0 108 34.5t36 95.5z" />
    <glyph glyph-name="S" unicode="S" horiz-adv-x="535" 
d="M212 324q-80 22 -128.5 67.5t-48.5 124.5q0 42 15 78.5t44.5 64.5t73 44t99.5 16q69 0 124.5 -16.5t87.5 -37.5l-34 -71q-10 6 -29 13t-43 14t-52 11.5t-56 4.5q-67 0 -103 -31t-36 -81q0 -44 27.5 -71t91.5 -45l82 -23q88 -25 133 -70.5t45 -128.5q0 -45 -16 -82.5
t-47 -64.5t-75.5 -41.5t-101.5 -14.5q-50 0 -91 8t-72 18.5t-51 21.5t-28 16l39 72q13 -8 33 -17.5t46.5 -17t57.5 -12.5t66 -5q75 0 110 31.5t35 81.5q0 18 -5 35.5t-18 33t-35.5 28.5t-57.5 23z" />
    <glyph glyph-name="T" unicode="T" horiz-adv-x="548" 
d="M228 620h-213v83h518v-83h-213v-620h-92v620z" />
    <glyph glyph-name="U" unicode="U" horiz-adv-x="645" 
d="M322 -16q-71 0 -120 18t-80.5 54t-45.5 90.5t-14 128.5v428h92v-417q0 -62 8.5 -104t28 -67.5t52 -36.5t79.5 -11q48 0 80 11t52 36.5t28.5 67.5t8.5 104v417h92v-428q0 -74 -14 -128.5t-45.5 -90.5t-81 -54t-120.5 -18z" />
    <glyph glyph-name="V" unicode="V" horiz-adv-x="578" 
d="M482 703h90l-233 -703h-100l-233 703h97l189 -593z" />
    <glyph glyph-name="W" unicode="W" horiz-adv-x="810" 
d="M587 126l123 577h90l-162 -703h-106l-126 551l-127 -551h-107l-162 703h99l120 -576l129 560h104z" />
    <glyph glyph-name="X" unicode="X" horiz-adv-x="583" 
d="M448 703h102l-203 -328l229 -375h-111l-176 298l-178 -298h-105l231 371l-200 332h109l149 -255z" />
    <glyph glyph-name="Y" unicode="Y" horiz-adv-x="551" 
d="M229 318l-224 385h102l173 -302l171 302h95l-225 -385v-318h-92v318z" />
    <glyph glyph-name="Z" unicode="Z" horiz-adv-x="552" 
d="M136 83h389v-83h-499v75l381 545h-364v83h473v-76z" />
    <glyph glyph-name="bracketleft" unicode="[" horiz-adv-x="310" 
d="M67 750h226v-76h-131v-695h131v-75h-226v846z" />
    <glyph glyph-name="backslash" unicode="\" horiz-adv-x="402" 
d="M309 -47l-312 797h96l312 -797h-96z" />
    <glyph glyph-name="bracketright" unicode="]" horiz-adv-x="310" 
d="M243 -96h-226v75h131v695h-131v76h226v-846z" />
    <glyph glyph-name="asciicircum" unicode="^" horiz-adv-x="552" 
d="M513 316h-97l-143 296l-143 -296h-91l187 374h99z" />
    <glyph glyph-name="underscore" unicode="_" horiz-adv-x="500" 
d="M0 -100h500v-83h-500v83z" />
    <glyph glyph-name="grave" unicode="`" horiz-adv-x="469" 
d="M330 568l-223 102l39 79l216 -117z" />
    <glyph glyph-name="a" unicode="a" horiz-adv-x="488" 
d="M350 233q-1 0 -13 2t-30 3.5t-39 3t-39 1.5q-32 0 -54.5 -8t-36.5 -21.5t-20.5 -31.5t-6.5 -39q0 -43 28.5 -64t74.5 -21q25 0 49 8.5t43.5 24t31.5 38t12 49.5v55zM356 0l-4 56q-23 -32 -67 -50.5t-91 -18.5q-30 0 -60 8t-54 26t-39.5 48t-15.5 74q0 77 50 124t150 47
q16 0 36 -1.5t38 -3t32 -3t19 -2.5v30q0 55 -32.5 79t-92.5 24q-54 0 -91.5 -12.5t-54.5 -22.5l-27 64q9 6 25 14t39.5 15.5t54 12.5t68.5 5q91 0 144 -44.5t53 -129.5v-339h-80z" />
    <glyph glyph-name="b" unicode="b" horiz-adv-x="542" 
d="M52 750h89v-312q4 9 15.5 21.5t30.5 24.5t45 20.5t60 8.5q55 0 96 -20t68 -55t40 -81.5t13 -100.5q0 -74 -20 -124.5t-52 -81.5t-72.5 -44.5t-81.5 -13.5q-30 0 -53.5 5.5t-41.5 13.5t-30.5 17t-19.5 17l-4 -45h-82v750zM271 69q67 0 106.5 44.5t39.5 142.5q0 38 -8 70.5
t-25 56t-42.5 36.5t-60.5 13q-69 0 -105 -53.5t-36 -154.5v-92q6 -10 18 -21t29 -20.5t38 -15.5t46 -6z" />
    <glyph glyph-name="c" unicode="c" horiz-adv-x="443" 
d="M125 250q0 -95 40 -138.5t102 -43.5q47 0 79.5 12t43.5 18l35 -63q-2 -3 -15 -10.5t-34 -15.5t-49.5 -14.5t-62.5 -6.5q-110 0 -170.5 68.5t-60.5 193.5q0 58 16 106.5t46 83t73 53.5t97 19q36 0 65 -7.5t50 -16.5t33.5 -17.5t14.5 -11.5l-39 -64q-3 3 -13.5 9t-26.5 12
t-37 10.5t-45 4.5q-62 0 -102 -44.5t-40 -136.5z" />
    <glyph glyph-name="d" unicode="d" horiz-adv-x="542" 
d="M272 69q24 0 45.5 6t38 15t28.5 20t18 21v92q0 102 -36 155.5t-105 53.5q-35 0 -60.5 -13.5t-42.5 -37.5t-25 -57.5t-8 -73.5q0 -49 10.5 -83.5t29.5 -56t46 -31.5t61 -10zM408 0l-4 44q-21 -20 -56 -36t-94 -16q-42 0 -81.5 12.5t-70.5 42.5t-50 79.5t-19 123.5
q0 54 13.5 102t40.5 84t68 56.5t95 20.5q35 0 61.5 -9t44.5 -21t29 -24t16 -19v310h89v-750h-82z" />
    <glyph glyph-name="e" unicode="e" 
d="M448 23q-5 -3 -19 -9t-35 -12t-48.5 -10.5t-61.5 -4.5q-125 0 -188 70t-63 194q0 58 15 106.5t44 83t71.5 53.5t98.5 19q51 0 91 -15.5t68 -48.5t43 -84.5t15 -123.5v-16h-356q5 -71 45 -115t123 -44q52 0 85.5 9t47.5 14zM387 297q-5 67 -33.5 104t-91.5 37
q-64 0 -95.5 -37.5t-41.5 -103.5h262z" />
    <glyph glyph-name="f" unicode="f" horiz-adv-x="363" 
d="M12 425v75h95v57q0 45 11 83t34 65t60 42.5t88 15.5q34 0 59 -4.5t32 -6.5l-10 -68q-5 1 -24.5 3t-40.5 2q-57 0 -88.5 -30.5t-31.5 -108.5v-50h155v-75h-155v-425h-89v425h-95z" />
    <glyph glyph-name="g" unicode="g" horiz-adv-x="543" 
d="M438 433q12 -10 21 -23.5t14 -28.5t7.5 -29.5t2.5 -26.5q0 -52 -19.5 -87t-50 -56t-69 -30t-76.5 -9q-25 0 -54 4.5t-52 13.5q-7 -5 -19 -18t-12 -33q0 -10 3.5 -19.5t14.5 -17t30.5 -12t52.5 -5.5l105 -2q38 -1 72.5 -6t60.5 -19t41.5 -38.5t15.5 -63.5
q0 -70 -72.5 -114.5t-206.5 -44.5q-39 0 -79 6t-72.5 21t-53.5 40.5t-21 64.5q0 35 19.5 62t46.5 49q-25 17 -33 39.5t-8 41.5q0 35 20 60t40 42q-26 23 -40.5 56t-14.5 78q0 51 19 86.5t50 57t69.5 31.5t77.5 10q24 0 41 -2t31 -4.5t27 -4.5t28 -2h136v-67h-93zM268 208
q24 0 47 7t40.5 21.5t28.5 37t11 54.5t-11 54.5t-28.5 37t-40.5 21.5t-47 7t-47 -7t-40.5 -21.5t-28.5 -37t-11 -54.5t11 -54.5t28.5 -37t40.5 -21.5t47 -7zM244 -26q-37 1 -62 4t-32 5q-17 -12 -27 -30t-10 -41t12 -36.5t32.5 -21.5t46.5 -10.5t53 -2.5q38 0 70 4.5
t55.5 14.5t36.5 25t13 35q0 9 -3 18.5t-12 16.5t-27 12t-48 5z" />
    <glyph glyph-name="h" unicode="h" horiz-adv-x="528" 
d="M476 0h-89v307q0 38 -7.5 63t-21.5 39.5t-33 20t-41 5.5q-38 0 -65.5 -16.5t-44.5 -43.5t-25 -62t-8 -72v-241h-89v750h89v-314q7 12 20.5 25.5t33 25t46 19t59.5 7.5q86 0 131 -50t45 -137v-326z" />
    <glyph glyph-name="i" unicode="i" horiz-adv-x="203" 
d="M57 500h89v-500h-89v500zM159 662q0 -27 -15.5 -44t-42.5 -17t-42.5 17.5t-15.5 43.5t15.5 43.5t42.5 17.5t42.5 -17t15.5 -44z" />
    <glyph glyph-name="j" unicode="j" horiz-adv-x="203" 
d="M57 500h89v-528q0 -106 -45.5 -155t-139.5 -49q-37 0 -79 12l9 69q19 -5 35 -6.5t30 -1.5q30 0 49.5 8t31 26t16 46t4.5 69v510zM159 662q0 -27 -15.5 -44t-42.5 -17t-42.5 17.5t-15.5 43.5t15.5 43.5t42.5 17.5t42.5 -17t15.5 -44z" />
    <glyph glyph-name="k" unicode="k" horiz-adv-x="492" 
d="M141 0h-89v750h89v-474l217 224h105l-218 -224l247 -276h-116l-235 266v-266z" />
    <glyph glyph-name="l" unicode="l" horiz-adv-x="203" 
d="M57 750h89v-750h-89v750z" />
    <glyph glyph-name="m" unicode="m" horiz-adv-x="825" 
d="M141 0h-89v500h82l4 -68q7 12 19 26t30 26.5t43.5 20.5t58.5 8q58 0 93 -24.5t54 -66.5q9 15 23.5 31.5t35 29.5t47 21.5t59.5 8.5q88 0 130 -49.5t42 -134.5v-329h-89v314q0 69 -24.5 95t-71.5 26q-36 0 -60.5 -17t-40.5 -44.5t-23 -62.5t-7 -72v-239h-89v314
q0 69 -25.5 95t-70.5 26q-36 0 -60.5 -17.5t-40.5 -45t-23 -62.5t-7 -71v-239z" />
    <glyph glyph-name="n" unicode="n" horiz-adv-x="528" 
d="M476 0h-89v307q0 38 -7.5 63t-21.5 39.5t-33 20t-41 5.5q-40 0 -67 -17t-44 -45.5t-24.5 -64.5t-7.5 -74v-234h-89v500h82l4 -69q6 12 19 26.5t33.5 27t47.5 20.5t62 8q86 0 131 -50t45 -137v-326z" />
    <glyph glyph-name="o" unicode="o" horiz-adv-x="536" 
d="M268 -13q-56 0 -99.5 19t-73.5 53.5t-46 83t-16 107.5q0 58 16 106.5t46.5 83.5t74 54t98.5 19t98.5 -19t74 -53.5t46.5 -83t16 -107.5q0 -60 -16 -108.5t-46 -83t-74 -53t-99 -18.5zM268 66q73 0 108 51t35 133q0 40 -9 73.5t-26.5 58t-44.5 38.5t-63 14q-71 0 -107 -51
t-36 -133q0 -85 35 -134.5t108 -49.5z" />
    <glyph glyph-name="p" unicode="p" horiz-adv-x="542" 
d="M52 -220v720h82l4 -65q7 12 20 26t32.5 25.5t44.5 19t57 7.5q55 0 96 -20t68 -55t40 -81.5t13 -100.5q0 -74 -20 -124t-52.5 -81.5t-74 -45t-83.5 -13.5q-51 0 -84 11.5t-54 23.5v-247h-89zM140 119q14 -16 48.5 -33t82.5 -17q67 0 106.5 44.5t39.5 142.5q0 38 -8 70.5
t-25 56t-42.5 36.5t-60.5 13q-70 0 -105.5 -53.5t-35.5 -154.5v-105z" />
    <glyph glyph-name="q" unicode="q" horiz-adv-x="542" 
d="M250 513q31 0 56.5 -7.5t45 -18.5t32.5 -24t20 -25l4 62h82v-720h-89v254q-10 -6 -23 -13.5t-30.5 -14t-40.5 -10.5t-53 -4q-42 0 -81.5 12.5t-70.5 42.5t-50 79.5t-19 123.5q0 54 13.5 102t40.5 84t68 56.5t95 20.5zM261 432q-35 0 -60.5 -13.5t-42.5 -37.5t-25 -57.5
t-8 -73.5q0 -49 10.5 -83.5t29.5 -56t46 -31.5t61 -10q24 0 45.5 5.5t38 14.5t28.5 19.5t18 20.5v95q0 101 -35.5 154.5t-105.5 53.5z" />
    <glyph glyph-name="r" unicode="r" horiz-adv-x="352" 
d="M344 424q-5 2 -19.5 4t-29.5 2q-71 0 -112.5 -59t-41.5 -162v-209h-89v500h82l4 -85q9 17 23.5 33.5t34.5 29t45.5 20.5t56.5 8q14 0 32.5 -2.5t21.5 -3.5z" />
    <glyph glyph-name="s" unicode="s" horiz-adv-x="449" 
d="M48 108q25 -13 69 -29t104 -16q33 0 54.5 5.5t34 15t18 22t5.5 27.5q0 27 -20.5 45.5t-71.5 28.5l-61 12q-32 6 -59.5 17t-47.5 28.5t-31.5 41.5t-11.5 57q0 68 53 109t142 41q58 0 104 -14t75 -31l-28 -66q-7 4 -22.5 10t-36 11.5t-44.5 9.5t-48 4q-55 0 -81 -19
t-26 -51q0 -27 18.5 -43t73.5 -26l62 -12q72 -14 112 -46t40 -99q0 -70 -52.5 -112t-149.5 -42q-71 0 -123.5 18t-82.5 38z" />
    <glyph glyph-name="t" unicode="t" horiz-adv-x="368" 
d="M8 500h100v138l89 24v-162h149v-75h-149v-270q0 -30 7.5 -48t21 -27.5t32 -13t41.5 -3.5t37.5 2t19.5 3l7 -67q-13 -3 -36.5 -6t-52.5 -3q-86 0 -126 37.5t-40 115.5v280h-100v75z" />
    <glyph glyph-name="u" unicode="u" horiz-adv-x="528" 
d="M52 500h89v-313q0 -36 7.5 -59.5t21 -37.5t32.5 -19.5t42 -5.5q40 0 67 17t44 45.5t24.5 64.5t7.5 74v234h89v-500h-82l-4 67q-6 -12 -19 -26t-33 -26t-47 -20t-62 -8q-86 0 -131.5 50t-45.5 137v326z" />
    <glyph glyph-name="v" unicode="v" horiz-adv-x="483" 
d="M6 500h95l144 -413l142 413h90l-185 -500h-100z" />
    <glyph glyph-name="w" unicode="w" horiz-adv-x="687" 
d="M8 500h94l105 -405l95 388h91l94 -388l103 405h89l-147 -500h-97l-90 371l-93 -371h-97z" />
    <glyph glyph-name="x" unicode="x" horiz-adv-x="481" 
d="M20 500h105l117 -173l116 173h95l-164 -236l184 -264h-106l-132 195l-133 -195h-96l181 259z" />
    <glyph glyph-name="y" unicode="y" horiz-adv-x="494" 
d="M96 -220l104 248l-194 472h100l142 -365l146 365h94l-301 -720h-91z" />
    <glyph glyph-name="z" unicode="z" horiz-adv-x="465" 
d="M32 71l292 354h-283v75h389v-72l-291 -353h294v-75h-401v71z" />
    <glyph glyph-name="braceleft" unicode="{" horiz-adv-x="313" 
d="M37 364q39 8 54.5 33.5t15.5 60.5v128q0 37 8 67.5t29.5 52t58 33t93.5 11.5v-76q-35 -1 -55 -7.5t-29.5 -19t-12 -30.5t-2.5 -40v-139q0 -38 -16 -64.5t-49 -46.5q33 -20 49 -46.5t16 -64.5v-139q0 -23 2.5 -40.5t12 -30t29.5 -19t55 -7.5v-76q-57 0 -93.5 11.5t-58 33
t-29.5 51.5t-8 68v128q0 35 -15.5 60.5t-54.5 33.5v74z" />
    <glyph glyph-name="bar" unicode="|" horiz-adv-x="234" 
d="M72 -220v970h90v-970h-90z" />
    <glyph glyph-name="braceright" unicode="}" horiz-adv-x="313" 
d="M276 290q-40 -8 -55 -33.5t-15 -60.5v-128q0 -38 -8 -68t-29.5 -51.5t-58 -33t-93.5 -11.5v76q34 1 54 7.5t30 19t12.5 30t2.5 40.5v139q0 38 16 64.5t48 46.5q-32 20 -48 46.5t-16 64.5v139q0 22 -2.5 40t-12.5 30.5t-30 19t-54 7.5v76q57 0 93.5 -11.5t58 -33t29.5 -52
t8 -67.5v-128q0 -35 15 -60.5t55 -33.5v-74z" />
    <glyph glyph-name="asciitilde" unicode="~" horiz-adv-x="555" 
d="M368 415q34 0 59 13t55 41l51 -62q-14 -14 -31 -28.5t-37.5 -25.5t-43 -18t-47.5 -7q-35 0 -63 13t-51 27q-18 11 -36.5 20t-36.5 9q-35 0 -59.5 -13t-54.5 -41l-51 62q13 14 30.5 28t37.5 25.5t43 18.5t48 7q35 0 63 -13t51 -27q18 -11 36.5 -20t36.5 -9z" />
    <glyph glyph-name="Euro" unicode="&#x20ac;" horiz-adv-x="556" 
d="M358 635q-75 0 -116.5 -43.5t-57.5 -121.5h268l-20 -68h-257q-1 -13 -1 -25.5v-25.5v-41h238l-20 -68h-211q14 -82 55 -128t124 -46q30 0 54 5.5t42 13.5t30.5 16.5t21.5 15.5l49 -63q-28 -28 -78.5 -50t-121.5 -22q-62 0 -109.5 17.5t-81 51t-54 81.5t-29.5 108h-69v68
h63q-1 10 -1 20v21q0 13 0.5 25.5t1.5 25.5h-64v68h71q10 55 30.5 100.5t54 78.5t80 51.5t108.5 18.5q71 0 119.5 -22.5t80.5 -52.5l-49 -62q-7 6 -19.5 15.5t-30.5 17.5t-43 14t-58 6z" />
    <glyph glyph-name="quotesinglbase" unicode="&#x201a;" horiz-adv-x="234" 
d="M177 53q0 -30 -14 -64t-32 -64t-34.5 -52t-21.5 -28l-46 32q6 8 15 23t19 33t18 36.5t12 32.5q-14 8 -23.5 21.5t-9.5 33.5q0 28 16 44.5t43 16.5q25 0 41.5 -17.5t16.5 -47.5z" />
    <glyph glyph-name="florin" unicode="&#x192;" horiz-adv-x="556" 
d="M195 365h-112v75h119l11 125q4 43 18 79.5t39.5 63t63.5 41t89 14.5q34 0 58.5 -6t31.5 -8l-16 -68q-5 2 -24.5 5t-39.5 3q-29 0 -51.5 -7.5t-39.5 -24.5t-27.5 -46t-14.5 -72l-8 -99h150v-75h-157l-34 -393q-9 -106 -59.5 -155t-143.5 -49q-38 0 -78 12l15 69
q19 -5 34.5 -6.5t29.5 -1.5q30 0 50 8t33 26t20 46t10 69z" />
    <glyph glyph-name="quotedblbase" unicode="&#x201e;" horiz-adv-x="427" 
d="M177 53q0 -30 -14 -64t-32 -64t-34.5 -52t-21.5 -28l-46 32q6 8 15 23t19 33t18 36.5t12 32.5q-14 8 -23.5 21.5t-9.5 33.5q0 28 16 44.5t43 16.5q25 0 41.5 -17.5t16.5 -47.5zM370 53q0 -30 -14 -64t-32 -64t-34.5 -52t-21.5 -28l-46 32q6 8 15 23t19 33t18 36.5
t12 32.5q-14 8 -23.5 21.5t-9.5 33.5q0 28 16 44.5t43 16.5q25 0 41.5 -17.5t16.5 -47.5z" />
    <glyph glyph-name="ellipsis" unicode="&#x2026;" horiz-adv-x="1000" 
d="M213 54q0 -29 -17.5 -48t-46.5 -19t-46.5 19t-17.5 48t17.5 48t46.5 19t46.5 -19t17.5 -48zM546 54q0 -29 -17.5 -48t-46.5 -19t-46.5 19t-17.5 48t17.5 48t46.5 19t46.5 -19t17.5 -48zM879 54q0 -29 -17.5 -48t-46.5 -19t-46.5 19t-17.5 48t17.5 48t46.5 19t46.5 -19
t17.5 -48z" />
    <glyph glyph-name="dagger" unicode="&#x2020;" horiz-adv-x="449" 
d="M269 442v-565h-89v565h-173v75h173v233h89v-233h173v-75h-173z" />
    <glyph glyph-name="daggerdbl" unicode="&#x2021;" horiz-adv-x="469" 
d="M190 462h-163v75h163v213h89v-213h163v-75h-163v-297h163v-75h-163v-213h-89v213h-163v75h163v297z" />
    <glyph glyph-name="circumflex" unicode="&#x2c6;" horiz-adv-x="469" 
d="M74 618l123 113h75l123 -113l-46 -44l-115 89l-114 -89z" />
    <glyph glyph-name="perthousand" unicode="&#x2030;" horiz-adv-x="1260" 
d="M585 703h91l-381 -703h-91zM37 510q0 97 39 148.5t118 51.5q78 0 117.5 -51.5t39.5 -148.5t-39.5 -148t-117.5 -51q-157 0 -157 199zM114 510q0 -134 80 -134q39 0 59.5 34t20.5 100q0 134 -80 134t-80 -134zM529 192q0 97 39 148.5t118 51.5q78 0 117.5 -51.5
t39.5 -148.5t-39.5 -148t-117.5 -51q-157 0 -157 199zM606 192q0 -134 80 -134q39 0 59.5 34t20.5 100q0 134 -80 134t-80 -134zM909 192q0 97 39 148.5t118 51.5q78 0 117.5 -51.5t39.5 -148.5t-39.5 -148t-117.5 -51q-157 0 -157 199zM986 192q0 -134 80 -134
q39 0 59.5 34t20.5 100q0 134 -80 134t-80 -134z" />
    <glyph glyph-name="Scaron" unicode="&#x160;" horiz-adv-x="535" 
d="M212 324q-80 22 -128.5 67.5t-48.5 124.5q0 42 15 78.5t44.5 64.5t73 44t99.5 16q69 0 124.5 -16.5t87.5 -37.5l-34 -71q-10 6 -29 13t-43 14t-52 11.5t-56 4.5q-67 0 -103 -31t-36 -81q0 -44 27.5 -71t91.5 -45l82 -23q88 -25 133 -70.5t45 -128.5q0 -45 -16 -82.5
t-47 -64.5t-75.5 -41.5t-101.5 -14.5q-50 0 -91 8t-72 18.5t-51 21.5t-28 16l39 72q13 -8 33 -17.5t46.5 -17t57.5 -12.5t66 -5q75 0 110 31.5t35 81.5q0 18 -5 35.5t-18 33t-35.5 28.5t-57.5 23zM459 866l-138 -110h-83l-138 110l38 47l142 -90l141 90z" />
    <glyph glyph-name="guilsinglleft" unicode="&#x2039;" horiz-adv-x="264" 
d="M147 57l-115 193l115 193h85l-111 -193l111 -193h-85z" />
    <glyph glyph-name="OE" unicode="&#x152;" horiz-adv-x="875" 
d="M354 0q-78 0 -136 24t-97 69.5t-58.5 110.5t-19.5 147q0 81 19.5 146t58.5 111t97 70.5t136 24.5h491v-83h-312v-213h242v-83h-242v-241h322v-83h-501zM143 351q0 -130 51 -199t160 -69h87v537h-87q-108 0 -159.5 -69.5t-51.5 -199.5z" />
    <glyph glyph-name="quoteleft" unicode="&#x2018;" horiz-adv-x="234" 
d="M57 555q0 30 14 64t32 64t34.5 52t21.5 28l46 -32q-6 -8 -15 -23.5t-19 -33.5t-18 -36t-12 -32q14 -8 23.5 -21.5t9.5 -33.5q0 -28 -16 -44.5t-43 -16.5q-25 0 -41.5 17.5t-16.5 47.5z" />
    <glyph glyph-name="quoteright" unicode="&#x2019;" horiz-adv-x="234" 
d="M177 698q0 -30 -14 -64t-32 -64t-34.5 -52t-21.5 -28l-46 32q6 8 15 23t19 33t18 36.5t12 32.5q-14 8 -23.5 21.5t-9.5 33.5q0 28 16 44.5t43 16.5q25 0 41.5 -17.5t16.5 -47.5z" />
    <glyph glyph-name="quotedblleft" unicode="&#x201c;" horiz-adv-x="427" 
d="M57 555q0 30 14 64t32 64t34.5 52t21.5 28l46 -32q-6 -8 -15 -23.5t-19 -33.5t-18 -36t-12 -32q14 -8 23.5 -21.5t9.5 -33.5q0 -28 -16 -44.5t-43 -16.5q-25 0 -41.5 17.5t-16.5 47.5zM250 555q0 30 14 64t32 64t34.5 52t21.5 28l46 -32q-6 -8 -15 -23.5t-19 -33.5
t-18 -36t-12 -32q14 -8 23.5 -21.5t9.5 -33.5q0 -28 -16 -44.5t-43 -16.5q-25 0 -41.5 17.5t-16.5 47.5z" />
    <glyph glyph-name="quotedblright" unicode="&#x201d;" horiz-adv-x="427" 
d="M177 698q0 -30 -14 -64t-32 -64t-34.5 -52t-21.5 -28l-46 32q6 8 15 23t19 33t18 36.5t12 32.5q-14 8 -23.5 21.5t-9.5 33.5q0 28 16 44.5t43 16.5q25 0 41.5 -17.5t16.5 -47.5zM370 698q0 -30 -14 -64t-32 -64t-34.5 -52t-21.5 -28l-46 32q6 8 15 23t19 33t18 36.5
t12 32.5q-14 8 -23.5 21.5t-9.5 33.5q0 28 16 44.5t43 16.5q25 0 41.5 -17.5t16.5 -47.5z" />
    <glyph glyph-name="bullet" unicode="&#x2022;" horiz-adv-x="465" 
d="M58 339q0 36 13.5 68t37 55.5t55.5 37t68 13.5t68 -13.5t56 -37t37.5 -55.5t13.5 -68q0 -37 -13.5 -69t-37.5 -55.5t-56 -37t-68 -13.5t-68 13.5t-55.5 37t-37 55.5t-13.5 69z" />
    <glyph glyph-name="endash" unicode="&#x2013;" horiz-adv-x="500" 
d="M0 254v86h500v-86h-500z" />
    <glyph glyph-name="emdash" unicode="&#x2014;" horiz-adv-x="1000" 
d="M0 254v86h1000v-86h-1000z" />
    <glyph glyph-name="tilde" unicode="&#x2dc;" horiz-adv-x="469" 
d="M59 581q0 58 27 87.5t75 29.5q24 0 42.5 -8t34.5 -18t31.5 -18t32.5 -8q24 0 34 13t10 36h64q0 -58 -27 -87.5t-75 -29.5q-24 0 -42.5 8.5t-34.5 18t-31 18t-32 8.5q-25 0 -35 -13.5t-10 -36.5h-64z" />
    <glyph glyph-name="trademark" unicode="&#x2122;" horiz-adv-x="854" 
d="M224 637v-317h-76v317h-136v66h347v-66h-135zM485 590v-270h-68v383h77l119 -203l113 203h77v-383h-68v274l-100 -176h-50z" />
    <glyph glyph-name="scaron" unicode="&#x161;" horiz-adv-x="449" 
d="M48 108q25 -13 69 -29t104 -16q33 0 54.5 5.5t34 15t18 22t5.5 27.5q0 27 -20.5 45.5t-71.5 28.5l-61 12q-32 6 -59.5 17t-47.5 28.5t-31.5 41.5t-11.5 57q0 68 53 109t142 41q58 0 104 -14t75 -31l-28 -66q-7 4 -22.5 10t-36 11.5t-44.5 9.5t-48 4q-55 0 -81 -19
t-26 -51q0 -27 18.5 -43t73.5 -26l62 -12q72 -14 112 -46t40 -99q0 -70 -52.5 -112t-149.5 -42q-71 0 -123.5 18t-82.5 38zM112 731l114 -89l115 89l46 -44l-123 -113h-75l-123 113z" />
    <glyph glyph-name="guilsinglright" unicode="&#x203a;" horiz-adv-x="264" 
d="M32 57l111 193l-111 193h85l115 -193l-115 -193h-85z" />
    <glyph glyph-name="oe" unicode="&#x153;" horiz-adv-x="884" 
d="M268 66q73 0 108 51t35 133q0 40 -9 73.5t-26.5 58t-44.5 38.5t-63 14q-71 0 -107 -51t-36 -133q0 -83 35 -133.5t108 -50.5zM657 -13q-71 0 -122 23.5t-82 74.5q-31 -47 -78.5 -72.5t-111.5 -25.5q-54 0 -96.5 19t-72 53.5t-45.5 83t-16 107.5q0 58 16 106.5t46 83.5
t72.5 54t95.5 19q63 0 114 -27t76 -71q28 46 72.5 72t109.5 26q51 0 91 -15.5t68 -48.5t43 -84.5t15 -123.5v-16h-356q5 -71 45 -115t123 -44q52 0 85.5 9t47.5 14l24 -66q-5 -3 -19 -9t-35 -12t-48.5 -10.5t-61.5 -4.5zM760 297q-5 67 -33.5 104t-91.5 37
q-64 0 -95.5 -37.5t-41.5 -103.5h262z" />
    <glyph glyph-name="Ydieresis" unicode="&#x178;" horiz-adv-x="551" 
d="M229 318l-224 385h102l173 -302l171 302h95l-225 -385v-318h-92v318zM438 837q0 -28 -16 -45.5t-44 -17.5t-44 18t-16 45t16 45t44 18t44 -17.5t16 -45.5zM233 837q0 -28 -16 -45.5t-44 -17.5t-44 18t-16 45t16 45t44 18t44 -17.5t16 -45.5z" />
    <glyph glyph-name="uni00A0" unicode="&#xa0;" horiz-adv-x="218" 
 />
    <glyph glyph-name="exclamdown" unicode="&#xa1;" horiz-adv-x="266" 
d="M87 290h92v-510h-92v510zM69 446q0 29 17.5 48t46.5 19t46.5 -19t17.5 -48t-17.5 -48t-46.5 -19t-46.5 19t-17.5 48z" />
    <glyph glyph-name="cent" unicode="&#xa2;" horiz-adv-x="556" 
d="M274 -13v99q-95 13 -145 80t-50 179q0 52 13 96.5t38 78.5t61 55.5t83 28.5v99h65v-97q33 -2 59 -10t45 -17.5t30 -17.5t13 -10l-36 -61q-6 5 -35.5 20t-75.5 19v-370q44 3 72.5 15.5t39.5 17.5l32 -60q-2 -3 -13 -10t-30 -15t-44.5 -15t-56.5 -9v-96h-65zM168 345
q0 -81 28 -124.5t78 -56.5v360q-50 -14 -78 -58t-28 -121z" />
    <glyph glyph-name="sterling" unicode="&#xa3;" horiz-adv-x="556" 
d="M54 423h73q-3 26 -5 49.5t-2 41.5q0 43 12 80.5t37 65t63.5 43.5t92.5 16q41 0 74 -10t56 -22.5t37 -25t18 -16.5l-48 -60q-3 3 -14 12t-28 18.5t-40.5 17t-53.5 7.5q-60 0 -88.5 -32.5t-28.5 -97.5q0 -42 6 -87h168v-75h-157q4 -29 7 -54.5t3 -42.5q0 -37 -9.5 -66.5
t-22.5 -51t-25.5 -35.5t-18.5 -20h338v-78h-431v71l25.5 34t25.5 40.5t20 50t8 63.5q0 16 -2.5 39t-5.5 50h-84v75z" />
    <glyph glyph-name="currency" unicode="&#xa4;" horiz-adv-x="556" 
d="M440 459q14 -22 22 -48.5t8 -58.5q0 -61 -30 -108l76 -75l-55 -55l-76 76q-47 -30 -107 -30q-61 0 -107 30l-76 -76l-55 55l75 75q-14 23 -21.5 49.5t-7.5 58.5t7.5 58.5t21.5 48.5l-75 76l55 55l76 -76q23 14 50 22t57 8q29 0 56.5 -8t50.5 -22l76 76l55 -55zM398 352
q0 29 -9.5 52.5t-26 40t-38.5 25t-46 8.5t-46 -8.5t-38.5 -25t-26 -40t-9.5 -52.5t9.5 -52.5t26 -40t38.5 -25t46 -8.5t46 8.5t38.5 25t26 40t9.5 52.5z" />
    <glyph glyph-name="yen" unicode="&#xa5;" horiz-adv-x="556" 
d="M78 205h156v90h-156v68h127l-190 340h100l168 -311l166 311h93l-191 -340h129v-68h-158v-90h158v-68h-158v-137h-88v137h-156v68z" />
    <glyph glyph-name="brokenbar" unicode="&#xa6;" horiz-adv-x="234" 
d="M72 750h90v-323h-90v323zM162 -220h-90v323h90v-323z" />
    <glyph glyph-name="section" unicode="&#xa7;" horiz-adv-x="547" 
d="M256 -61q21 0 42.5 3.5t38.5 13.5t27.5 28t10.5 47q0 24 -10 40.5t-24.5 28.5t-30.5 20t-29 13l-88 35q-28 11 -52 26t-42 34t-28 43.5t-10 55.5q0 47 19 80t52 64q-54 46 -54 119q0 46 17 79t44.5 54t64 30.5t75.5 9.5q38 0 70 -7.5t55.5 -16.5t37.5 -17.5t16 -11.5
l-37 -61q-3 3 -16 9t-32.5 13t-43.5 12t-50 5q-19 0 -39 -3.5t-36.5 -13.5t-27.5 -28t-11 -47q0 -24 10 -40.5t24.5 -28.5t30.5 -20t29 -13l88 -35q28 -11 52 -26t42 -34t28 -43.5t10 -55.5q0 -48 -19 -80.5t-53 -63.5q28 -24 42.5 -53t14.5 -66q0 -46 -17.5 -79t-46.5 -54
t-66.5 -30.5t-77.5 -9.5q-38 0 -70.5 7.5t-56.5 16.5t-39 17.5t-17 11.5l34 62q3 -3 17 -9.5t34.5 -13t46 -12t51.5 -5.5zM350 193q18 17 31 38t13 50q0 21 -8 37.5t-22 30t-32.5 24t-38.5 18.5l-76 31q-8 3 -15 6t-12 6q-17 -19 -30.5 -39t-13.5 -49q0 -21 8.5 -37.5
t22.5 -30t32 -24t38 -18.5q26 -11 53 -21.5t50 -21.5z" />
    <glyph glyph-name="dieresis" unicode="&#xa8;" horiz-adv-x="469" 
d="M388 650q0 -26 -15.5 -43t-41.5 -17t-41.5 17t-15.5 43t15.5 43t41.5 17t41.5 -17t15.5 -43zM195 650q0 -26 -15.5 -43t-41.5 -17t-41.5 17t-15.5 43t15.5 43t41.5 17t41.5 -17t15.5 -43z" />
    <glyph glyph-name="copyright" unicode="&#xa9;" horiz-adv-x="786" 
d="M757 353q0 -77 -28 -143.5t-77 -116t-115.5 -78t-143.5 -28.5t-143.5 28.5t-115.5 78t-77 116t-28 143.5q0 76 28 143t77 116.5t116 78t144 28.5q76 0 142.5 -28.5t115.5 -78t77 -116.5t28 -143zM680 352q0 62 -21.5 116t-60 94t-91 63t-113.5 23q-62 0 -114.5 -23
t-91 -63t-60.5 -94t-22 -116t21.5 -116t60 -94t91 -62.5t114.5 -22.5t114.5 22.5t91 62.5t60 94t21.5 116zM295 352q0 -66 29.5 -96t79.5 -30q37 0 63 8.5t34 12.5l28 -50q-2 -2 -12 -8t-26.5 -12t-39 -11t-49.5 -5q-88 0 -135 50t-47 141q0 86 47.5 138.5t134.5 52.5
q29 0 52.5 -5.5t40 -13t25.5 -14t11 -8.5l-30 -51q-5 4 -32 15t-65 11q-50 0 -79.5 -30.5t-29.5 -94.5z" />
    <glyph glyph-name="ordfeminine" unicode="&#xaa;" horiz-adv-x="337" 
d="M228 547q-15 2 -34.5 4t-38.5 2q-26 0 -45 -12.5t-19 -37.5q0 -46 53 -46q37 0 60.5 21t23.5 50v19zM232 411l-3 34q-16 -20 -42 -31t-60 -11q-19 0 -37.5 5t-33 16.5t-23.5 30t-9 44.5q0 46 31.5 75t100.5 29q21 0 42.5 -2t29.5 -3v8q0 28 -17 43t-57 15
q-35 0 -58.5 -7.5t-34.5 -13.5l-19 48q11 7 40.5 17.5t80.5 10.5q62 0 97 -28t35 -88v-192h-63zM295 289h-271v63h271v-63z" />
    <glyph glyph-name="guillemotleft" unicode="&#xab;" horiz-adv-x="461" 
d="M147 57l-115 193l115 193h85l-111 -193l111 -193h-85zM344 57l-115 193l115 193h85l-111 -193l111 -193h-85z" />
    <glyph glyph-name="logicalnot" unicode="&#xac;" horiz-adv-x="556" 
d="M77 402v80h402v-260h-84v180h-318z" />
    <glyph glyph-name="uni00AD" unicode="&#xad;" horiz-adv-x="371" 
d="M42 326h287v-92h-287v92z" />
    <glyph glyph-name="registered" unicode="&#xae;" horiz-adv-x="786" 
d="M558 165h-78l-90 142h-63v-142h-67v373h147q37 0 62 -11.5t40 -28.5t21.5 -37.5t6.5 -38.5q0 -41 -21.5 -66.5t-59.5 -38.5zM469 422q0 33 -20.5 46t-58.5 13h-63v-116h60q40 0 61 12.5t21 44.5zM757 353q0 -77 -28 -143.5t-77 -116t-115.5 -78t-143.5 -28.5t-143.5 28.5
t-115.5 78t-77 116t-28 143.5q0 76 28 143t77 116.5t116 78t144 28.5q76 0 142.5 -28.5t115.5 -78t77 -116.5t28 -143zM680 352q0 62 -21.5 116t-60 94t-91 63t-113.5 23q-62 0 -114.5 -23t-91 -63t-60.5 -94t-22 -116t21.5 -116t60 -94t91 -62.5t114.5 -22.5t114.5 22.5
t91 62.5t60 94t21.5 116z" />
    <glyph glyph-name="macron" unicode="&#xaf;" horiz-adv-x="469" 
d="M90 600v72h290v-72h-290z" />
    <glyph glyph-name="degree" unicode="&#xb0;" horiz-adv-x="365" 
d="M333 557q0 -32 -11.5 -59t-32 -46.5t-48 -30.5t-58.5 -11q-32 0 -59.5 11t-48 30.5t-32 46t-11.5 58.5t11.5 59t32 46.5t47.5 30.5t59 11t59.5 -11t48 -30.5t32 -46.5t11.5 -58zM262 557q0 33 -22.5 56t-57.5 23q-33 0 -55.5 -23t-22.5 -57t22.5 -57t56.5 -23t56.5 23
t22.5 58z" />
    <glyph glyph-name="plusminus" unicode="&#xb1;" horiz-adv-x="556" 
d="M57 400h179v180h84v-180h179v-80h-179v-180h-84v180h-179v80zM499 80v-80h-442v80h442z" />
    <glyph glyph-name="twosuperior" unicode="&#xb2;" horiz-adv-x="370" 
d="M160 516q36 23 56 42t20 42q0 19 -15.5 32.5t-47.5 13.5q-17 0 -32.5 -5.5t-28 -13t-22 -16t-14.5 -14.5l-45 43q7 9 20.5 21.5t31.5 23t41 18t50 7.5q36 0 61.5 -9t42.5 -24t25 -34.5t8 -40.5q0 -23 -8.5 -42t-23 -34.5t-32.5 -29.5t-37 -26q-40 -26 -61.5 -44.5
t-28.5 -41.5h196v-65h-277v20q0 30 7.5 54.5t22.5 45.5t38 39.5t53 37.5z" />
    <glyph glyph-name="threesuperior" unicode="&#xb3;" horiz-adv-x="370" 
d="M107 547h45q42 0 60 15t18 37q0 20 -14.5 34t-46.5 14q-34 0 -61 -13.5t-39 -23.5l-36 47q7 7 20.5 16.5t31 17.5t39 13.5t46.5 5.5q70 0 102.5 -31t32.5 -73q0 -30 -18 -52t-43 -34q30 -10 49 -33.5t19 -55.5q0 -59 -45.5 -89.5t-114.5 -30.5q-38 0 -68.5 5t-50.5 11
l17 62q14 -5 38.5 -9.5t59.5 -4.5q89 0 89 56q0 23 -18.5 37.5t-64.5 14.5h-47v64z" />
    <glyph glyph-name="acute" unicode="&#xb4;" horiz-adv-x="469" 
d="M107 632l216 117l39 -79l-223 -102z" />
    <glyph glyph-name="mu" unicode="&#xb5;" horiz-adv-x="528" 
d="M390 67q-16 -30 -54 -55t-96 -25q-37 0 -62 10.5t-37 22.5v-240h-89v720h89v-310q0 -36 7.5 -60.5t21.5 -38.5t32.5 -20t41.5 -6q40 0 67 17t44 45.5t24.5 64.5t7.5 74v234h89v-500h-82z" />
    <glyph glyph-name="paragraph" unicode="&#xb6;" horiz-adv-x="611" 
d="M248 338q-50 0 -90 13t-68 37t-43 57t-15 72q0 51 17 86.5t48.5 57.5t74.5 32t96 10h271v-839h-88v769h-115v-769h-88v474z" />
    <glyph glyph-name="periodcentered" unicode="&#xb7;" horiz-adv-x="234" 
d="M181 352q0 -29 -17.5 -48t-46.5 -19t-46.5 19t-17.5 48t17.5 48t46.5 19t46.5 -19t17.5 -48z" />
    <glyph glyph-name="cedilla" unicode="&#xb8;" horiz-adv-x="469" 
d="M203 0h59l-10 -49q46 -4 70.5 -28t24.5 -59q0 -24 -10 -42t-27.5 -30.5t-40 -18.5t-47.5 -6q-43 0 -69 7t-31 9l16 51q17 -5 34.5 -8.5t36.5 -3.5q32 0 48.5 10.5t16.5 28.5q0 14 -13.5 24.5t-44.5 10.5q-18 0 -36 -3z" />
    <glyph glyph-name="onesuperior" unicode="&#xb9;" horiz-adv-x="370" 
d="M172 619l-94 -52l-32 59l145 77h56v-384h-75v300z" />
    <glyph glyph-name="ordmasculine" unicode="&#xba;" horiz-adv-x="352" 
d="M176 403q-75 0 -114.5 43t-39.5 115q0 71 40 115t114 44t114 -43.5t40 -115.5t-39.5 -115t-114.5 -43zM176 459q45 0 64 28.5t19 73.5t-19.5 74t-63.5 29q-43 0 -63 -29t-20 -74q0 -46 19 -74t64 -28zM327 289h-302v63h302v-63z" />
    <glyph glyph-name="guillemotright" unicode="&#xbb;" horiz-adv-x="461" 
d="M32 57l111 193l-111 193h85l115 -193l-115 -193h-85zM229 57l111 193l-111 193h85l115 -193l-115 -193h-85z" />
    <glyph glyph-name="onequarter" unicode="&#xbc;" horiz-adv-x="880" 
d="M160 619l-94 -52l-32 59l145 77h56v-384h-75v300zM556 703h89l-381 -703h-89zM745 227v-77h52v-63h-52v-86h-68v86h-179v54l161 244h78l-157 -235h97v77h68z" />
    <glyph glyph-name="onehalf" unicode="&#xbd;" horiz-adv-x="880" 
d="M160 619l-94 -52l-32 59l145 77h56v-384h-75v300zM556 703h89l-381 -703h-89zM658 198q36 23 56 42t20 42q0 19 -15.5 32.5t-47.5 13.5q-17 0 -32.5 -5.5t-28 -13t-22 -16t-14.5 -14.5l-45 43q7 9 20.5 21.5t31.5 23t41 18t50 7.5q36 0 61.5 -9t42.5 -24t25 -34.5
t8 -40.5q0 -23 -8.5 -42t-23 -34.5t-32.5 -29.5t-37 -26q-40 -26 -61.5 -44.5t-28.5 -41.5h196v-65h-277v20q0 30 7.5 54.5t22.5 45.5t38 39.5t53 37.5z" />
    <glyph glyph-name="threequarters" unicode="&#xbe;" horiz-adv-x="880" 
d="M116 547h45q42 0 60 15t18 37q0 20 -14.5 34t-46.5 14q-34 0 -61 -13.5t-39 -23.5l-36 47q7 7 20.5 16.5t31 17.5t39 13.5t46.5 5.5q70 0 102.5 -31t32.5 -73q0 -30 -18 -52t-43 -34q30 -10 49 -33.5t19 -55.5q0 -59 -45.5 -89.5t-114.5 -30.5q-38 0 -68.5 5t-50.5 11
l17 62q14 -5 38.5 -9.5t59.5 -4.5q89 0 89 56q0 23 -18.5 37.5t-64.5 14.5h-47v64zM586 703h89l-381 -703h-89zM775 227v-77h52v-63h-52v-86h-68v86h-179v54l161 244h78l-157 -235h97v77h68z" />
    <glyph glyph-name="questiondown" unicode="&#xbf;" horiz-adv-x="507" 
d="M333 294q0 -38 -8.5 -67.5t-23.5 -53.5t-35 -44.5t-42 -40.5q-12 -11 -25.5 -24.5t-25 -29t-18.5 -34.5t-7 -41q0 -47 29.5 -78t97.5 -31q52 0 87 22.5t64 55.5l56 -51q-11 -16 -30.5 -35t-46.5 -35.5t-62 -27.5t-76 -11q-62 0 -103.5 17t-66.5 44t-35 60.5t-10 65.5
q0 31 8.5 56t22 46t30.5 38.5t34 32.5q19 17 36 33t29.5 34.5t20 42.5t7.5 56h93zM223 446q0 29 17.5 48t46.5 19t46.5 -19t17.5 -48t-17.5 -48t-46.5 -19t-46.5 19t-17.5 48z" />
    <glyph glyph-name="Agrave" unicode="&#xc0;" horiz-adv-x="574" 
d="M414 180h-262l-58 -180h-88l232 703h97l233 -703h-96zM178 261h210l-104 325zM377 756l-248 89l33 81l243 -105z" />
    <glyph glyph-name="Aacute" unicode="&#xc1;" horiz-adv-x="574" 
d="M414 180h-262l-58 -180h-88l232 703h97l233 -703h-96zM178 261h210l-104 325zM169 821l243 105l33 -81l-248 -89z" />
    <glyph glyph-name="Acircumflex" unicode="&#xc2;" horiz-adv-x="574" 
d="M414 180h-262l-58 -180h-88l232 703h97l233 -703h-96zM178 261h210l-104 325zM108 803l138 110h83l138 -110l-38 -47l-142 90l-141 -90z" />
    <glyph glyph-name="Atilde" unicode="&#xc3;" horiz-adv-x="574" 
d="M414 180h-262l-58 -180h-88l232 703h97l233 -703h-96zM178 261h210l-104 325zM102 775q0 58 28 88t77 30q25 0 43.5 -8.5t34.5 -18t31 -18t33 -8.5q26 0 36 14t10 37h66q0 -60 -28 -89t-77 -29q-25 0 -43.5 8.5t-34.5 18t-31 18t-33 8.5q-26 0 -36 -14t-10 -37h-66z" />
    <glyph glyph-name="Adieresis" unicode="&#xc4;" horiz-adv-x="574" 
d="M414 180h-262l-58 -180h-88l232 703h97l233 -703h-96zM178 261h210l-104 325zM450 837q0 -28 -16 -45.5t-44 -17.5t-44 18t-16 45t16 45t44 18t44 -17.5t16 -45.5zM245 837q0 -28 -16 -45.5t-44 -17.5t-44 18t-16 45t16 45t44 18t44 -17.5t16 -45.5z" />
    <glyph glyph-name="Aring" unicode="&#xc5;" horiz-adv-x="574" 
d="M414 180h-262l-58 -180h-88l214 650q-21 14 -33.5 37t-12.5 52q0 24 9 44t24.5 35t36 23t43.5 8q48 0 80.5 -30.5t32.5 -78.5q0 -29 -13 -52.5t-35 -38.5l216 -649h-96zM178 261h210l-104 335zM342 739q0 23 -16 39t-39 16t-38.5 -16t-15.5 -39t15.5 -39.5t38.5 -16.5
t39 16.5t16 39.5z" />
    <glyph glyph-name="AE" unicode="&#xc6;" horiz-adv-x="861" 
d="M831 703v-83h-312v-213h242v-83h-242v-241h322v-83h-411v207h-229l-112 -207h-91l382 703h451zM243 285h187v345z" />
    <glyph glyph-name="Ccedilla" unicode="&#xc7;" horiz-adv-x="585" 
d="M301 -8q-128 15 -193 109.5t-65 249.5q0 81 19.5 148t58.5 114.5t97 74t136 26.5q71 0 124 -20.5t95 -55.5l-48 -67q-13 10 -29 20t-37 18t-46.5 13t-58.5 5q-107 0 -159 -73.5t-52 -202.5t51.5 -202t158.5 -73q30 0 56.5 5.5t48 13.5t38.5 18t28 18l48 -67
q-29 -26 -82.5 -49.5t-127.5 -25.5l-8 -39q49 -4 74 -28.5t25 -60.5q0 -26 -10.5 -44.5t-28 -31.5t-41 -19t-49.5 -6q-45 0 -72 7t-32 9l16 53q17 -5 35.5 -8.5t37.5 -3.5q33 0 51 10.5t18 30.5q0 14 -14.5 24.5t-45.5 10.5q-20 0 -38 -3z" />
    <glyph glyph-name="Egrave" unicode="&#xc8;" 
d="M67 703h414v-83h-322v-213h252v-83h-252v-241h332v-83h-424v703zM391 756l-248 89l33 81l243 -105z" />
    <glyph glyph-name="Eacute" unicode="&#xc9;" 
d="M67 703h414v-83h-322v-213h252v-83h-252v-241h332v-83h-424v703zM143 821l243 105l33 -81l-248 -89z" />
    <glyph glyph-name="Ecircumflex" unicode="&#xca;" 
d="M67 703h414v-83h-322v-213h252v-83h-252v-241h332v-83h-424v703zM102 803l138 110h83l138 -110l-38 -47l-142 90l-141 -90z" />
    <glyph glyph-name="Edieresis" unicode="&#xcb;" 
d="M67 703h414v-83h-322v-213h252v-83h-252v-241h332v-83h-424v703zM434 837q0 -28 -16 -45.5t-44 -17.5t-44 18t-16 45t16 45t44 18t44 -17.5t16 -45.5zM229 837q0 -28 -16 -45.5t-44 -17.5t-44 18t-16 45t16 45t44 18t44 -17.5t16 -45.5z" />
    <glyph glyph-name="Igrave" unicode="&#xcc;" horiz-adv-x="226" 
d="M159 0h-92v703h92v-703zM197 756l-248 89l33 81l243 -105z" />
    <glyph glyph-name="Iacute" unicode="&#xcd;" horiz-adv-x="226" 
d="M159 0h-92v703h92v-703zM3 821l243 105l33 -81l-248 -89z" />
    <glyph glyph-name="Icircumflex" unicode="&#xce;" horiz-adv-x="226" 
d="M159 0h-92v703h92v-703zM-65 803l138 110h83l138 -110l-38 -47l-142 90l-141 -90z" />
    <glyph glyph-name="Idieresis" unicode="&#xcf;" horiz-adv-x="226" 
d="M159 0h-92v703h92v-703zM277 837q0 -28 -16 -45.5t-44 -17.5t-44 18t-16 45t16 45t44 18t44 -17.5t16 -45.5zM72 837q0 -28 -16 -45.5t-44 -17.5t-44 18t-16 45t16 45t44 18t44 -17.5t16 -45.5z" />
    <glyph glyph-name="Eth" unicode="&#xd0;" horiz-adv-x="661" 
d="M0 398h67v305h234q77 0 136.5 -26t99.5 -72.5t60.5 -111t20.5 -142.5q0 -79 -20.5 -144t-60.5 -111t-99.5 -71t-136.5 -25h-234v319h-67v79zM301 83q109 0 163 72t54 197t-54.5 196.5t-162.5 71.5h-142v-222h160v-79h-160v-236h142z" />
    <glyph glyph-name="Ntilde" unicode="&#xd1;" horiz-adv-x="646" 
d="M489 703h90v-703h-90l-332 545v-545h-90v703h96l326 -536v536zM138 775q0 58 28 88t77 30q25 0 43.5 -8.5t34.5 -18t31 -18t33 -8.5q26 0 36 14t10 37h66q0 -60 -28 -89t-77 -29q-25 0 -43.5 8.5t-34.5 18t-31 18t-33 8.5q-26 0 -36 -14t-10 -37h-66z" />
    <glyph glyph-name="Ograve" unicode="&#xd2;" horiz-adv-x="708" 
d="M354 -16q-78 0 -136 26.5t-97 75t-58.5 116t-19.5 149.5q0 81 19.5 148.5t58.5 116.5t97 76t136 27q77 0 135.5 -27t97.5 -76t58.5 -116.5t19.5 -148.5q0 -82 -19.5 -149.5t-58.5 -116t-97.5 -75t-135.5 -26.5zM354 68q54 0 94 20t66 57t38.5 89t12.5 117q0 64 -13 116.5
t-39 89t-65.5 56.5t-93.5 20t-93.5 -20t-65.5 -56.5t-39 -89t-13 -116.5q0 -65 12.5 -117t39 -89t66 -57t93.5 -20zM454 756l-248 89l33 81l243 -105z" />
    <glyph glyph-name="Oacute" unicode="&#xd3;" horiz-adv-x="708" 
d="M354 -16q-78 0 -136 26.5t-97 75t-58.5 116t-19.5 149.5q0 81 19.5 148.5t58.5 116.5t97 76t136 27q77 0 135.5 -27t97.5 -76t58.5 -116.5t19.5 -148.5q0 -82 -19.5 -149.5t-58.5 -116t-97.5 -75t-135.5 -26.5zM354 68q54 0 94 20t66 57t38.5 89t12.5 117q0 64 -13 116.5
t-39 89t-65.5 56.5t-93.5 20t-93.5 -20t-65.5 -56.5t-39 -89t-13 -116.5q0 -65 12.5 -117t39 -89t66 -57t93.5 -20zM226 821l243 105l33 -81l-248 -89z" />
    <glyph glyph-name="Ocircumflex" unicode="&#xd4;" horiz-adv-x="708" 
d="M354 -16q-78 0 -136 26.5t-97 75t-58.5 116t-19.5 149.5q0 81 19.5 148.5t58.5 116.5t97 76t136 27q77 0 135.5 -27t97.5 -76t58.5 -116.5t19.5 -148.5q0 -82 -19.5 -149.5t-58.5 -116t-97.5 -75t-135.5 -26.5zM354 68q54 0 94 20t66 57t38.5 89t12.5 117q0 64 -13 116.5
t-39 89t-65.5 56.5t-93.5 20t-93.5 -20t-65.5 -56.5t-39 -89t-13 -116.5q0 -65 12.5 -117t39 -89t66 -57t93.5 -20zM175 803l138 110h83l138 -110l-38 -47l-142 90l-141 -90z" />
    <glyph glyph-name="Otilde" unicode="&#xd5;" horiz-adv-x="708" 
d="M354 -16q-78 0 -136 26.5t-97 75t-58.5 116t-19.5 149.5q0 81 19.5 148.5t58.5 116.5t97 76t136 27q77 0 135.5 -27t97.5 -76t58.5 -116.5t19.5 -148.5q0 -82 -19.5 -149.5t-58.5 -116t-97.5 -75t-135.5 -26.5zM354 68q54 0 94 20t66 57t38.5 89t12.5 117q0 64 -13 116.5
t-39 89t-65.5 56.5t-93.5 20t-93.5 -20t-65.5 -56.5t-39 -89t-13 -116.5q0 -65 12.5 -117t39 -89t66 -57t93.5 -20zM169 775q0 58 28 88t77 30q25 0 43.5 -8.5t34.5 -18t31 -18t33 -8.5q26 0 36 14t10 37h66q0 -60 -28 -89t-77 -29q-25 0 -43.5 8.5t-34.5 18t-31 18t-33 8.5
q-26 0 -36 -14t-10 -37h-66z" />
    <glyph glyph-name="Odieresis" unicode="&#xd6;" horiz-adv-x="708" 
d="M354 -16q-78 0 -136 26.5t-97 75t-58.5 116t-19.5 149.5q0 81 19.5 148.5t58.5 116.5t97 76t136 27q77 0 135.5 -27t97.5 -76t58.5 -116.5t19.5 -148.5q0 -82 -19.5 -149.5t-58.5 -116t-97.5 -75t-135.5 -26.5zM354 68q54 0 94 20t66 57t38.5 89t12.5 117q0 64 -13 116.5
t-39 89t-65.5 56.5t-93.5 20t-93.5 -20t-65.5 -56.5t-39 -89t-13 -116.5q0 -65 12.5 -117t39 -89t66 -57t93.5 -20zM517 837q0 -28 -16 -45.5t-44 -17.5t-44 18t-16 45t16 45t44 18t44 -17.5t16 -45.5zM312 837q0 -28 -16 -45.5t-44 -17.5t-44 18t-16 45t16 45t44 18
t44 -17.5t16 -45.5z" />
    <glyph glyph-name="multiply" unicode="&#xd7;" horiz-adv-x="556" 
d="M465 495l-138 -147l138 -146l-55 -51l-133 143l-132 -143l-55 51l137 146l-137 147l55 51l132 -144l133 144z" />
    <glyph glyph-name="Oslash" unicode="&#xd8;" horiz-adv-x="708" 
d="M575 629q45 -49 67.5 -120t22.5 -158q0 -82 -19.5 -149.5t-58.5 -116t-97.5 -75t-135.5 -26.5q-49 0 -89.5 10.5t-74.5 30.5l-53 -84l-66 38l60 94q-45 49 -66.5 119.5t-21.5 158.5q0 81 19.5 148.5t58.5 116.5t97 76t136 27q48 0 88 -10.5t74 -30.5l55 86l66 -38z
M354 68q54 0 94 20t66 57t38.5 89t12.5 117q0 120 -44 193l-282 -443q23 -16 51.5 -24.5t63.5 -8.5zM143 351q0 -59 10.5 -107.5t31.5 -84.5l282 442q-46 32 -113 32q-54 0 -93.5 -20t-65.5 -56.5t-39 -89t-13 -116.5z" />
    <glyph glyph-name="Ugrave" unicode="&#xd9;" horiz-adv-x="645" 
d="M322 -16q-71 0 -120 18t-80.5 54t-45.5 90.5t-14 128.5v428h92v-417q0 -62 8.5 -104t28 -67.5t52 -36.5t79.5 -11q48 0 80 11t52 36.5t28.5 67.5t8.5 104v417h92v-428q0 -74 -14 -128.5t-45.5 -90.5t-81 -54t-120.5 -18zM422 756l-248 89l33 81l243 -105z" />
    <glyph glyph-name="Uacute" unicode="&#xda;" horiz-adv-x="645" 
d="M322 -16q-71 0 -120 18t-80.5 54t-45.5 90.5t-14 128.5v428h92v-417q0 -62 8.5 -104t28 -67.5t52 -36.5t79.5 -11q48 0 80 11t52 36.5t28.5 67.5t8.5 104v417h92v-428q0 -74 -14 -128.5t-45.5 -90.5t-81 -54t-120.5 -18zM194 821l243 105l33 -81l-248 -89z" />
    <glyph glyph-name="Ucircumflex" unicode="&#xdb;" horiz-adv-x="645" 
d="M322 -16q-71 0 -120 18t-80.5 54t-45.5 90.5t-14 128.5v428h92v-417q0 -62 8.5 -104t28 -67.5t52 -36.5t79.5 -11q48 0 80 11t52 36.5t28.5 67.5t8.5 104v417h92v-428q0 -74 -14 -128.5t-45.5 -90.5t-81 -54t-120.5 -18zM143 803l138 110h83l138 -110l-38 -47l-142 90
l-141 -90z" />
    <glyph glyph-name="Udieresis" unicode="&#xdc;" horiz-adv-x="645" 
d="M322 -16q-71 0 -120 18t-80.5 54t-45.5 90.5t-14 128.5v428h92v-417q0 -62 8.5 -104t28 -67.5t52 -36.5t79.5 -11q48 0 80 11t52 36.5t28.5 67.5t8.5 104v417h92v-428q0 -74 -14 -128.5t-45.5 -90.5t-81 -54t-120.5 -18zM485 837q0 -28 -16 -45.5t-44 -17.5t-44 18
t-16 45t16 45t44 18t44 -17.5t16 -45.5zM280 837q0 -28 -16 -45.5t-44 -17.5t-44 18t-16 45t16 45t44 18t44 -17.5t16 -45.5z" />
    <glyph glyph-name="Yacute" unicode="&#xdd;" horiz-adv-x="551" 
d="M229 318l-224 385h102l173 -302l171 302h95l-225 -385v-318h-92v318zM157 821l243 105l33 -81l-248 -89z" />
    <glyph glyph-name="Thorn" unicode="&#xde;" horiz-adv-x="532" 
d="M500 358q0 -36 -12.5 -75t-41.5 -71.5t-75.5 -53t-115.5 -20.5h-98v-138h-90v703h90v-125h107q65 0 110 -20.5t73 -53t40.5 -71.5t12.5 -75zM408 358q0 65 -39 102.5t-107 37.5h-105v-280h96q75 0 115 37.5t40 102.5z" />
    <glyph glyph-name="germandbls" unicode="&#xdf;" horiz-adv-x="580" 
d="M427 310q27 -13 50.5 -27t41 -33t27 -44t9.5 -59q0 -72 -46 -116t-139 -44q-24 0 -46.5 3.5t-41.5 9t-33.5 11.5t-22.5 12l30 66q24 -13 53 -20t58 -7q50 0 73.5 24t23.5 59q0 19 -6 33.5t-18 26.5t-31.5 23t-46.5 23q-32 15 -53 28t-34 26.5t-18 29t-5 34.5q0 21 6 37
t16 30t22.5 26.5t24.5 25.5q20 20 40 47.5t20 64.5q0 35 -28.5 61.5t-80.5 26.5q-131 0 -131 -156v-532h-89v534q0 108 52.5 168.5t167.5 60.5q50 0 87.5 -12.5t62 -34t37 -51.5t12.5 -64q0 -23 -6.5 -43t-17 -37t-23 -31t-24.5 -26q-25 -25 -41 -40.5t-16 -40.5
q0 -15 7.5 -26t19.5 -19t27 -14.5t30 -13.5z" />
    <glyph glyph-name="agrave" unicode="&#xe0;" horiz-adv-x="488" 
d="M350 233q-1 0 -13 2t-30 3.5t-39 3t-39 1.5q-32 0 -54.5 -8t-36.5 -21.5t-20.5 -31.5t-6.5 -39q0 -43 28.5 -64t74.5 -21q25 0 49 8.5t43.5 24t31.5 38t12 49.5v55zM356 0l-4 56q-23 -32 -67 -50.5t-91 -18.5q-30 0 -60 8t-54 26t-39.5 48t-15.5 74q0 77 50 124t150 47
q16 0 36 -1.5t38 -3t32 -3t19 -2.5v30q0 55 -32.5 79t-92.5 24q-54 0 -91.5 -12.5t-54.5 -22.5l-27 64q9 6 25 14t39.5 15.5t54 12.5t68.5 5q91 0 144 -44.5t53 -129.5v-339h-80zM340 568l-223 102l39 79l216 -117z" />
    <glyph glyph-name="aacute" unicode="&#xe1;" horiz-adv-x="488" 
d="M350 233q-1 0 -13 2t-30 3.5t-39 3t-39 1.5q-32 0 -54.5 -8t-36.5 -21.5t-20.5 -31.5t-6.5 -39q0 -43 28.5 -64t74.5 -21q25 0 49 8.5t43.5 24t31.5 38t12 49.5v55zM356 0l-4 56q-23 -32 -67 -50.5t-91 -18.5q-30 0 -60 8t-54 26t-39.5 48t-15.5 74q0 77 50 124t150 47
q16 0 36 -1.5t38 -3t32 -3t19 -2.5v30q0 55 -32.5 79t-92.5 24q-54 0 -91.5 -12.5t-54.5 -22.5l-27 64q9 6 25 14t39.5 15.5t54 12.5t68.5 5q91 0 144 -44.5t53 -129.5v-339h-80zM127 632l216 117l39 -79l-223 -102z" />
    <glyph glyph-name="acircumflex" unicode="&#xe2;" horiz-adv-x="488" 
d="M350 233q-1 0 -13 2t-30 3.5t-39 3t-39 1.5q-32 0 -54.5 -8t-36.5 -21.5t-20.5 -31.5t-6.5 -39q0 -43 28.5 -64t74.5 -21q25 0 49 8.5t43.5 24t31.5 38t12 49.5v55zM356 0l-4 56q-23 -32 -67 -50.5t-91 -18.5q-30 0 -60 8t-54 26t-39.5 48t-15.5 74q0 77 50 124t150 47
q16 0 36 -1.5t38 -3t32 -3t19 -2.5v30q0 55 -32.5 79t-92.5 24q-54 0 -91.5 -12.5t-54.5 -22.5l-27 64q9 6 25 14t39.5 15.5t54 12.5t68.5 5q91 0 144 -44.5t53 -129.5v-339h-80zM84 618l123 113h75l123 -113l-46 -44l-115 89l-114 -89z" />
    <glyph glyph-name="atilde" unicode="&#xe3;" horiz-adv-x="488" 
d="M350 233q-1 0 -13 2t-30 3.5t-39 3t-39 1.5q-32 0 -54.5 -8t-36.5 -21.5t-20.5 -31.5t-6.5 -39q0 -43 28.5 -64t74.5 -21q25 0 49 8.5t43.5 24t31.5 38t12 49.5v55zM356 0l-4 56q-23 -32 -67 -50.5t-91 -18.5q-30 0 -60 8t-54 26t-39.5 48t-15.5 74q0 77 50 124t150 47
q16 0 36 -1.5t38 -3t32 -3t19 -2.5v30q0 55 -32.5 79t-92.5 24q-54 0 -91.5 -12.5t-54.5 -22.5l-27 64q9 6 25 14t39.5 15.5t54 12.5t68.5 5q91 0 144 -44.5t53 -129.5v-339h-80zM72 581q0 58 27 87.5t75 29.5q24 0 42.5 -8t34.5 -18t31.5 -18t32.5 -8q24 0 34 13t10 36h64
q0 -58 -27 -87.5t-75 -29.5q-24 0 -42.5 8.5t-34.5 18t-31 18t-32 8.5q-25 0 -35 -13.5t-10 -36.5h-64z" />
    <glyph glyph-name="adieresis" unicode="&#xe4;" horiz-adv-x="488" 
d="M350 233q-1 0 -13 2t-30 3.5t-39 3t-39 1.5q-32 0 -54.5 -8t-36.5 -21.5t-20.5 -31.5t-6.5 -39q0 -43 28.5 -64t74.5 -21q25 0 49 8.5t43.5 24t31.5 38t12 49.5v55zM356 0l-4 56q-23 -32 -67 -50.5t-91 -18.5q-30 0 -60 8t-54 26t-39.5 48t-15.5 74q0 77 50 124t150 47
q16 0 36 -1.5t38 -3t32 -3t19 -2.5v30q0 55 -32.5 79t-92.5 24q-54 0 -91.5 -12.5t-54.5 -22.5l-27 64q9 6 25 14t39.5 15.5t54 12.5t68.5 5q91 0 144 -44.5t53 -129.5v-339h-80zM398 650q0 -26 -15.5 -43t-41.5 -17t-41.5 17t-15.5 43t15.5 43t41.5 17t41.5 -17t15.5 -43z
M205 650q0 -26 -15.5 -43t-41.5 -17t-41.5 17t-15.5 43t15.5 43t41.5 17t41.5 -17t15.5 -43z" />
    <glyph glyph-name="aring" unicode="&#xe5;" horiz-adv-x="488" 
d="M350 233q-1 0 -13 2t-30 3.5t-39 3t-39 1.5q-32 0 -54.5 -8t-36.5 -21.5t-20.5 -31.5t-6.5 -39q0 -43 28.5 -64t74.5 -21q25 0 49 8.5t43.5 24t31.5 38t12 49.5v55zM356 0l-4 56q-23 -32 -67 -50.5t-91 -18.5q-30 0 -60 8t-54 26t-39.5 48t-15.5 74q0 77 50 124t150 47
q16 0 36 -1.5t38 -3t32 -3t19 -2.5v30q0 55 -32.5 79t-92.5 24q-54 0 -91.5 -12.5t-54.5 -22.5l-27 64q9 6 25 14t39.5 15.5t54 12.5t68.5 5q91 0 144 -44.5t53 -129.5v-339h-80zM355 677q0 -23 -8.5 -43t-23.5 -34t-35 -22t-42 -8q-23 0 -43 8t-35 22t-24 33.5t-9 42.5
t8.5 42.5t23.5 34t35 22.5t43 8t43 -8t35 -22t23.5 -33.5t8.5 -42.5zM298 676q0 23 -15.5 38t-37.5 15t-37 -15t-15 -38t15 -38.5t37 -15.5t37.5 15.5t15.5 38.5z" />
    <glyph glyph-name="ae" unicode="&#xe6;" horiz-adv-x="824" 
d="M700 297q-5 67 -33.5 104t-91.5 37q-64 0 -95.5 -37.5t-41.5 -103.5h262zM233 513q62 0 108.5 -19.5t67.5 -64.5q25 37 67.5 60.5t98.5 23.5q51 0 91 -15.5t68 -48.5t43 -84.5t15 -123.5v-16h-356q5 -71 45 -115t123 -44q52 0 85.5 9t47.5 14l24 -66q-5 -3 -19 -9
t-35 -12t-48.5 -10.5t-61.5 -4.5q-44 0 -76.5 8t-57 21t-42 29t-29.5 33q-8 -11 -22 -26.5t-36 -29.5t-54 -24.5t-76 -10.5q-35 0 -67 8t-57 26t-40 48t-15 74q0 77 50 124t150 47q16 0 36 -1.5t38 -3t32 -3t19 -2.5v30q0 55 -32.5 79t-92.5 24q-54 0 -91.5 -12.5
t-54.5 -22.5l-27 64q9 6 25 14t39 15.5t52.5 12.5t64.5 5zM350 233q-1 0 -13 2t-30 3.5t-39 3t-39 1.5q-32 0 -54.5 -8t-36.5 -21.5t-20.5 -31.5t-6.5 -39q0 -43 28.5 -64t74.5 -21q31 0 56.5 9.5t43 25.5t27 38t9.5 46v56z" />
    <glyph glyph-name="ccedilla" unicode="&#xe7;" horiz-adv-x="443" 
d="M218 -8q-89 14 -137 80.5t-48 177.5q0 58 16 106.5t46 83t73 53.5t97 19q36 0 65 -7.5t50 -16.5t33.5 -17.5t14.5 -11.5l-39 -64q-3 3 -13.5 9t-26.5 12t-37 10.5t-45 4.5q-62 0 -102 -44.5t-40 -136.5q0 -95 40 -138.5t102 -43.5q47 0 79.5 12t43.5 18l35 -63
q-2 -3 -14 -10t-31.5 -14.5t-46 -14.5t-57.5 -8l-7 -37q46 -4 70.5 -28t24.5 -59q0 -24 -10 -42t-27.5 -30.5t-40 -18.5t-47.5 -6q-43 0 -69 7t-31 9l16 51q17 -5 34.5 -8.5t36.5 -3.5q32 0 48.5 10.5t16.5 28.5q0 14 -13.5 24.5t-44.5 10.5q-18 0 -36 -3z" />
    <glyph glyph-name="egrave" unicode="&#xe8;" 
d="M448 23q-5 -3 -19 -9t-35 -12t-48.5 -10.5t-61.5 -4.5q-125 0 -188 70t-63 194q0 58 15 106.5t44 83t71.5 53.5t98.5 19q51 0 91 -15.5t68 -48.5t43 -84.5t15 -123.5v-16h-356q5 -71 45 -115t123 -44q52 0 85.5 9t47.5 14zM387 297q-5 67 -33.5 104t-91.5 37
q-64 0 -95.5 -37.5t-41.5 -103.5h262zM371 568l-223 102l39 79l216 -117z" />
    <glyph glyph-name="eacute" unicode="&#xe9;" 
d="M448 23q-5 -3 -19 -9t-35 -12t-48.5 -10.5t-61.5 -4.5q-125 0 -188 70t-63 194q0 58 15 106.5t44 83t71.5 53.5t98.5 19q51 0 91 -15.5t68 -48.5t43 -84.5t15 -123.5v-16h-356q5 -71 45 -115t123 -44q52 0 85.5 9t47.5 14zM387 297q-5 67 -33.5 104t-91.5 37
q-64 0 -95.5 -37.5t-41.5 -103.5h262zM143 632l216 117l39 -79l-223 -102z" />
    <glyph glyph-name="ecircumflex" unicode="&#xea;" 
d="M448 23q-5 -3 -19 -9t-35 -12t-48.5 -10.5t-61.5 -4.5q-125 0 -188 70t-63 194q0 58 15 106.5t44 83t71.5 53.5t98.5 19q51 0 91 -15.5t68 -48.5t43 -84.5t15 -123.5v-16h-356q5 -71 45 -115t123 -44q52 0 85.5 9t47.5 14zM387 297q-5 67 -33.5 104t-91.5 37
q-64 0 -95.5 -37.5t-41.5 -103.5h262zM100 618l123 113h75l123 -113l-46 -44l-115 89l-114 -89z" />
    <glyph glyph-name="edieresis" unicode="&#xeb;" 
d="M448 23q-5 -3 -19 -9t-35 -12t-48.5 -10.5t-61.5 -4.5q-125 0 -188 70t-63 194q0 58 15 106.5t44 83t71.5 53.5t98.5 19q51 0 91 -15.5t68 -48.5t43 -84.5t15 -123.5v-16h-356q5 -71 45 -115t123 -44q52 0 85.5 9t47.5 14zM387 297q-5 67 -33.5 104t-91.5 37
q-64 0 -95.5 -37.5t-41.5 -103.5h262zM414 650q0 -26 -15.5 -43t-41.5 -17t-41.5 17t-15.5 43t15.5 43t41.5 17t41.5 -17t15.5 -43zM221 650q0 -26 -15.5 -43t-41.5 -17t-41.5 17t-15.5 43t15.5 43t41.5 17t41.5 -17t15.5 -43z" />
    <glyph glyph-name="igrave" unicode="&#xec;" horiz-adv-x="203" 
d="M57 500h89v-500h-89v500zM186 568l-223 102l39 79l216 -117z" />
    <glyph glyph-name="iacute" unicode="&#xed;" horiz-adv-x="203" 
d="M57 500h89v-500h-89v500zM-12 632l216 117l39 -79l-223 -102z" />
    <glyph glyph-name="icircumflex" unicode="&#xee;" horiz-adv-x="203" 
d="M57 500h89v-500h-89v500zM-58 618l123 113h75l123 -113l-46 -44l-115 89l-114 -89z" />
    <glyph glyph-name="idieresis" unicode="&#xef;" horiz-adv-x="203" 
d="M57 500h89v-500h-89v500zM256 650q0 -26 -15.5 -43t-41.5 -17t-41.5 17t-15.5 43t15.5 43t41.5 17t41.5 -17t15.5 -43zM63 650q0 -26 -15.5 -43t-41.5 -17t-41.5 17t-15.5 43t15.5 43t41.5 17t41.5 -17t15.5 -43z" />
    <glyph glyph-name="eth" unicode="&#xf0;" horiz-adv-x="543" 
d="M271 411q-74 0 -110 -46t-36 -125q0 -81 35 -128.5t111 -47.5t111 48.5t35 128.5q0 77 -35.5 123.5t-110.5 46.5zM377 764l40 -49l-70 -58q78 -69 120 -170.5t42 -229.5q0 -136 -62 -203t-176 -67q-57 0 -101.5 17.5t-74.5 50.5t-46 80t-16 105q0 57 16 103t45.5 78
t71.5 49t94 17q45 0 80.5 -14t48.5 -29q-17 51 -42.5 92.5t-58.5 73.5l-93 -76l-40 49l82 67q-27 17 -55.5 29t-56.5 19l22 65q41 -11 77.5 -28t70.5 -39z" />
    <glyph glyph-name="ntilde" unicode="&#xf1;" horiz-adv-x="528" 
d="M476 0h-89v307q0 38 -7.5 63t-21.5 39.5t-33 20t-41 5.5q-40 0 -67 -17t-44 -45.5t-24.5 -64.5t-7.5 -74v-234h-89v500h82l4 -69q6 12 19 26.5t33.5 27t47.5 20.5t62 8q86 0 131 -50t45 -137v-326zM92 581q0 58 27 87.5t75 29.5q24 0 42.5 -8t34.5 -18t31.5 -18t32.5 -8
q24 0 34 13t10 36h64q0 -58 -27 -87.5t-75 -29.5q-24 0 -42.5 8.5t-34.5 18t-31 18t-32 8.5q-25 0 -35 -13.5t-10 -36.5h-64z" />
    <glyph glyph-name="ograve" unicode="&#xf2;" horiz-adv-x="536" 
d="M268 -13q-56 0 -99.5 19t-73.5 53.5t-46 83t-16 107.5q0 58 16 106.5t46.5 83.5t74 54t98.5 19t98.5 -19t74 -53.5t46.5 -83t16 -107.5q0 -60 -16 -108.5t-46 -83t-74 -53t-99 -18.5zM268 66q73 0 108 51t35 133q0 40 -9 73.5t-26.5 58t-44.5 38.5t-63 14q-71 0 -107 -51
t-36 -133q0 -85 35 -134.5t108 -49.5zM364 568l-223 102l39 79l216 -117z" />
    <glyph glyph-name="oacute" unicode="&#xf3;" horiz-adv-x="536" 
d="M268 -13q-56 0 -99.5 19t-73.5 53.5t-46 83t-16 107.5q0 58 16 106.5t46.5 83.5t74 54t98.5 19t98.5 -19t74 -53.5t46.5 -83t16 -107.5q0 -60 -16 -108.5t-46 -83t-74 -53t-99 -18.5zM268 66q73 0 108 51t35 133q0 40 -9 73.5t-26.5 58t-44.5 38.5t-63 14q-71 0 -107 -51
t-36 -133q0 -85 35 -134.5t108 -49.5zM141 632l216 117l39 -79l-223 -102z" />
    <glyph glyph-name="ocircumflex" unicode="&#xf4;" horiz-adv-x="536" 
d="M268 -13q-56 0 -99.5 19t-73.5 53.5t-46 83t-16 107.5q0 58 16 106.5t46.5 83.5t74 54t98.5 19t98.5 -19t74 -53.5t46.5 -83t16 -107.5q0 -60 -16 -108.5t-46 -83t-74 -53t-99 -18.5zM268 66q73 0 108 51t35 133q0 40 -9 73.5t-26.5 58t-44.5 38.5t-63 14q-71 0 -107 -51
t-36 -133q0 -85 35 -134.5t108 -49.5zM108 618l123 113h75l123 -113l-46 -44l-115 89l-114 -89z" />
    <glyph glyph-name="otilde" unicode="&#xf5;" horiz-adv-x="536" 
d="M268 -13q-56 0 -99.5 19t-73.5 53.5t-46 83t-16 107.5q0 58 16 106.5t46.5 83.5t74 54t98.5 19t98.5 -19t74 -53.5t46.5 -83t16 -107.5q0 -60 -16 -108.5t-46 -83t-74 -53t-99 -18.5zM268 66q73 0 108 51t35 133q0 40 -9 73.5t-26.5 58t-44.5 38.5t-63 14q-71 0 -107 -51
t-36 -133q0 -85 35 -134.5t108 -49.5zM96 581q0 58 27 87.5t75 29.5q24 0 42.5 -8t34.5 -18t31.5 -18t32.5 -8q24 0 34 13t10 36h64q0 -58 -27 -87.5t-75 -29.5q-24 0 -42.5 8.5t-34.5 18t-31 18t-32 8.5q-25 0 -35 -13.5t-10 -36.5h-64z" />
    <glyph glyph-name="odieresis" unicode="&#xf6;" horiz-adv-x="536" 
d="M268 -13q-56 0 -99.5 19t-73.5 53.5t-46 83t-16 107.5q0 58 16 106.5t46.5 83.5t74 54t98.5 19t98.5 -19t74 -53.5t46.5 -83t16 -107.5q0 -60 -16 -108.5t-46 -83t-74 -53t-99 -18.5zM268 66q73 0 108 51t35 133q0 40 -9 73.5t-26.5 58t-44.5 38.5t-63 14q-71 0 -107 -51
t-36 -133q0 -85 35 -134.5t108 -49.5zM422 650q0 -26 -15.5 -43t-41.5 -17t-41.5 17t-15.5 43t15.5 43t41.5 17t41.5 -17t15.5 -43zM229 650q0 -26 -15.5 -43t-41.5 -17t-41.5 17t-15.5 43t15.5 43t41.5 17t41.5 -17t15.5 -43z" />
    <glyph glyph-name="divide" unicode="&#xf7;" horiz-adv-x="556" 
d="M57 392h442v-80h-442v80zM342 186q0 -29 -17.5 -48t-46.5 -19t-46.5 19t-17.5 48t17.5 48t46.5 19t46.5 -19t17.5 -48zM342 518q0 -29 -17.5 -48t-46.5 -19t-46.5 19t-17.5 48t17.5 48t46.5 19t46.5 -19t17.5 -48z" />
    <glyph glyph-name="oslash" unicode="&#xf8;" horiz-adv-x="536" 
d="M438 443q32 -35 48.5 -84t16.5 -109t-16 -108.5t-46 -83t-74 -53t-99 -18.5q-36 0 -66.5 8t-56.5 22l-43 -63l-52 34l47 69q-31 35 -47.5 83.5t-16.5 109.5q0 58 16 106.5t46.5 83.5t74 54t98.5 19q69 0 122 -31l44 64l52 -34zM268 65q36 0 63 13.5t45 38t27 58.5t9 75
q0 69 -26 116l-194 -281q31 -20 76 -20zM124 250q0 -72 25 -118l194 282q-16 10 -34.5 15.5t-40.5 5.5q-35 0 -62 -13.5t-45 -38t-27.5 -58.5t-9.5 -75z" />
    <glyph glyph-name="ugrave" unicode="&#xf9;" horiz-adv-x="528" 
d="M52 500h89v-313q0 -36 7.5 -59.5t21 -37.5t32.5 -19.5t42 -5.5q40 0 67 17t44 45.5t24.5 64.5t7.5 74v234h89v-500h-82l-4 67q-6 -12 -19 -26t-33 -26t-47 -20t-62 -8q-86 0 -131.5 50t-45.5 137v326zM340 568l-223 102l39 79l216 -117z" />
    <glyph glyph-name="uacute" unicode="&#xfa;" horiz-adv-x="528" 
d="M52 500h89v-313q0 -36 7.5 -59.5t21 -37.5t32.5 -19.5t42 -5.5q40 0 67 17t44 45.5t24.5 64.5t7.5 74v234h89v-500h-82l-4 67q-6 -12 -19 -26t-33 -26t-47 -20t-62 -8q-86 0 -131.5 50t-45.5 137v326zM157 632l216 117l39 -79l-223 -102z" />
    <glyph glyph-name="ucircumflex" unicode="&#xfb;" horiz-adv-x="528" 
d="M52 500h89v-313q0 -36 7.5 -59.5t21 -37.5t32.5 -19.5t42 -5.5q40 0 67 17t44 45.5t24.5 64.5t7.5 74v234h89v-500h-82l-4 67q-6 -12 -19 -26t-33 -26t-47 -20t-62 -8q-86 0 -131.5 50t-45.5 137v326zM104 618l123 113h75l123 -113l-46 -44l-115 89l-114 -89z" />
    <glyph glyph-name="udieresis" unicode="&#xfc;" horiz-adv-x="528" 
d="M52 500h89v-313q0 -36 7.5 -59.5t21 -37.5t32.5 -19.5t42 -5.5q40 0 67 17t44 45.5t24.5 64.5t7.5 74v234h89v-500h-82l-4 67q-6 -12 -19 -26t-33 -26t-47 -20t-62 -8q-86 0 -131.5 50t-45.5 137v326zM418 650q0 -26 -15.5 -43t-41.5 -17t-41.5 17t-15.5 43t15.5 43
t41.5 17t41.5 -17t15.5 -43zM225 650q0 -26 -15.5 -43t-41.5 -17t-41.5 17t-15.5 43t15.5 43t41.5 17t41.5 -17t15.5 -43z" />
    <glyph glyph-name="yacute" unicode="&#xfd;" horiz-adv-x="494" 
d="M96 -220l104 248l-194 472h100l142 -365l146 365h94l-301 -720h-91zM149 632l216 117l39 -79l-223 -102z" />
    <glyph glyph-name="thorn" unicode="&#xfe;" horiz-adv-x="542" 
d="M141 750v-310q8 12 21.5 25t32 23.5t43 17.5t54.5 7q55 0 96 -20t68 -55t40 -81.5t13 -100.5q0 -74 -20 -124t-52.5 -81.5t-74 -45t-83.5 -13.5q-51 0 -84 11.5t-54 23.5v-247h-89v970h89zM140 119q14 -16 48.5 -33t82.5 -17q67 0 106.5 44.5t39.5 142.5q0 38 -8 70.5
t-25 56t-42.5 36.5t-60.5 13q-70 0 -105.5 -53.5t-35.5 -154.5v-105z" />
    <glyph glyph-name="ydieresis" unicode="&#xff;" horiz-adv-x="494" 
d="M96 -220l104 248l-194 472h100l142 -365l146 365h94l-301 -720h-91zM400 650q0 -26 -15.5 -43t-41.5 -17t-41.5 17t-15.5 43t15.5 43t41.5 17t41.5 -17t15.5 -43zM207 650q0 -26 -15.5 -43t-41.5 -17t-41.5 17t-15.5 43t15.5 43t41.5 17t41.5 -17t15.5 -43z" />
    <glyph glyph-name="Amacron" unicode="&#x100;" horiz-adv-x="574" 
d="M414 180h-262l-58 -180h-88l232 703h97l233 -703h-96zM178 261h210l-104 325zM130 793v77h314v-77h-314z" />
    <glyph glyph-name="amacron" unicode="&#x101;" horiz-adv-x="488" 
d="M350 233q-1 0 -13 2t-30 3.5t-39 3t-39 1.5q-32 0 -54.5 -8t-36.5 -21.5t-20.5 -31.5t-6.5 -39q0 -43 28.5 -64t74.5 -21q25 0 49 8.5t43.5 24t31.5 38t12 49.5v55zM356 0l-4 56q-23 -32 -67 -50.5t-91 -18.5q-30 0 -60 8t-54 26t-39.5 48t-15.5 74q0 77 50 124t150 47
q16 0 36 -1.5t38 -3t32 -3t19 -2.5v30q0 55 -32.5 79t-92.5 24q-54 0 -91.5 -12.5t-54.5 -22.5l-27 64q9 6 25 14t39.5 15.5t54 12.5t68.5 5q91 0 144 -44.5t53 -129.5v-339h-80zM100 600v72h290v-72h-290z" />
    <glyph glyph-name="Abreve" unicode="&#x102;" horiz-adv-x="574" 
d="M414 180h-262l-58 -180h-88l232 703h97l233 -703h-96zM178 261h210l-104 325zM288 825q41 0 59.5 21t18.5 52h75q0 -27 -9.5 -52.5t-28 -45t-47.5 -31t-68 -11.5t-68 11.5t-48 31t-28.5 45t-9.5 52.5h76q0 -31 18.5 -52t59.5 -21z" />
    <glyph glyph-name="abreve" unicode="&#x103;" horiz-adv-x="488" 
d="M350 233q-1 0 -13 2t-30 3.5t-39 3t-39 1.5q-32 0 -54.5 -8t-36.5 -21.5t-20.5 -31.5t-6.5 -39q0 -43 28.5 -64t74.5 -21q25 0 49 8.5t43.5 24t31.5 38t12 49.5v55zM356 0l-4 56q-23 -32 -67 -50.5t-91 -18.5q-30 0 -60 8t-54 26t-39.5 48t-15.5 74q0 77 50 124t150 47
q16 0 36 -1.5t38 -3t32 -3t19 -2.5v30q0 55 -32.5 79t-92.5 24q-54 0 -91.5 -12.5t-54.5 -22.5l-27 64q9 6 25 14t39.5 15.5t54 12.5t68.5 5q91 0 144 -44.5t53 -129.5v-339h-80zM245 638q38 0 56 20.5t18 49.5h72q0 -26 -9 -50.5t-27 -43t-45.5 -29.5t-64.5 -11t-64.5 11
t-46 29.5t-27.5 43t-9 50.5h73q0 -29 18 -49.5t56 -20.5z" />
    <glyph glyph-name="Aogonek" unicode="&#x104;" horiz-adv-x="574" 
d="M178 261h210l-104 325zM472 0l-58 180h-262l-58 -180h-88l232 703h97l233 -703q-66 -47 -66 -88q0 -21 12.5 -28t30.5 -7h13t12 1v-62q-5 -1 -14.5 -1.5t-17.5 -0.5q-64 0 -90.5 21.5t-26.5 60.5q0 27 17 52.5t51 51.5h-17z" />
    <glyph glyph-name="aogonek" unicode="&#x105;" horiz-adv-x="488" 
d="M350 233q-1 0 -13 2t-30 3.5t-39 3t-39 1.5q-32 0 -54.5 -8t-36.5 -21.5t-20.5 -31.5t-6.5 -39q0 -43 28.5 -64t74.5 -21q25 0 49 8.5t43.5 24t31.5 38t12 49.5v55zM436 0q-63 -47 -63 -86q0 -20 12.5 -27t29.5 -7h11.5t13.5 1v-59q-7 -1 -15.5 -1.5t-16.5 -0.5
q-63 0 -88 20.5t-25 58.5q0 52 67 101h-6l-4 56q-23 -32 -67 -50.5t-91 -18.5q-30 0 -60 8t-54 26t-39.5 48t-15.5 74q0 77 50 124t150 47q16 0 36 -1.5t38 -3t32 -3t19 -2.5v30q0 55 -32.5 79t-92.5 24q-54 0 -91.5 -12.5t-54.5 -22.5l-27 64q9 6 25 14t39.5 15.5t54 12.5
t68.5 5q91 0 144 -44.5t53 -129.5v-339z" />
    <glyph glyph-name="Cacute" unicode="&#x106;" horiz-adv-x="585" 
d="M354 627q-107 0 -159 -73.5t-52 -202.5t51.5 -202t158.5 -73q30 0 56.5 5.5t48 13.5t38.5 18t28 18l48 -67q-31 -27 -88 -51t-135 -24q-76 0 -133 25t-95.5 71.5t-58 114t-19.5 151.5q0 81 19.5 148t58.5 114.5t97 74t136 26.5q71 0 124 -20.5t95 -55.5l-48 -67
q-13 10 -29 20t-37 18t-46.5 13t-58.5 5zM204 821l243 105l33 -81l-248 -89z" />
    <glyph glyph-name="cacute" unicode="&#x107;" horiz-adv-x="443" 
d="M125 250q0 -95 40 -138.5t102 -43.5q47 0 79.5 12t43.5 18l35 -63q-2 -3 -15 -10.5t-34 -15.5t-49.5 -14.5t-62.5 -6.5q-110 0 -170.5 68.5t-60.5 193.5q0 58 16 106.5t46 83t73 53.5t97 19q36 0 65 -7.5t50 -16.5t33.5 -17.5t14.5 -11.5l-39 -64q-3 3 -13.5 9t-26.5 12
t-37 10.5t-45 4.5q-62 0 -102 -44.5t-40 -136.5zM133 632l216 117l39 -79l-223 -102z" />
    <glyph glyph-name="Ccircumflex" unicode="&#x108;" horiz-adv-x="585" 
d="M354 627q-107 0 -159 -73.5t-52 -202.5t51.5 -202t158.5 -73q30 0 56.5 5.5t48 13.5t38.5 18t28 18l48 -67q-31 -27 -88 -51t-135 -24q-76 0 -133 25t-95.5 71.5t-58 114t-19.5 151.5q0 81 19.5 148t58.5 114.5t97 74t136 26.5q71 0 124 -20.5t95 -55.5l-48 -67
q-13 10 -29 20t-37 18t-46.5 13t-58.5 5zM175 803l138 110h83l138 -110l-38 -47l-142 90l-141 -90z" />
    <glyph glyph-name="ccircumflex" unicode="&#x109;" horiz-adv-x="443" 
d="M125 250q0 -95 40 -138.5t102 -43.5q47 0 79.5 12t43.5 18l35 -63q-2 -3 -15 -10.5t-34 -15.5t-49.5 -14.5t-62.5 -6.5q-110 0 -170.5 68.5t-60.5 193.5q0 58 16 106.5t46 83t73 53.5t97 19q36 0 65 -7.5t50 -16.5t33.5 -17.5t14.5 -11.5l-39 -64q-3 3 -13.5 9t-26.5 12
t-37 10.5t-45 4.5q-62 0 -102 -44.5t-40 -136.5zM95 618l123 113h75l123 -113l-46 -44l-115 89l-114 -89z" />
    <glyph glyph-name="Cdotaccent" unicode="&#x10a;" horiz-adv-x="585" 
d="M354 627q-107 0 -159 -73.5t-52 -202.5t51.5 -202t158.5 -73q30 0 56.5 5.5t48 13.5t38.5 18t28 18l48 -67q-31 -27 -88 -51t-135 -24q-76 0 -133 25t-95.5 71.5t-58 114t-19.5 151.5q0 81 19.5 148t58.5 114.5t97 74t136 26.5q71 0 124 -20.5t95 -55.5l-48 -67
q-13 10 -29 20t-37 18t-46.5 13t-58.5 5zM421 837q0 -29 -16.5 -47t-45.5 -18t-45.5 18.5t-16.5 46.5t16.5 46.5t45.5 18.5t45.5 -18t16.5 -47z" />
    <glyph glyph-name="cdotaccent" unicode="&#x10b;" horiz-adv-x="443" 
d="M125 250q0 -95 40 -138.5t102 -43.5q47 0 79.5 12t43.5 18l35 -63q-2 -3 -15 -10.5t-34 -15.5t-49.5 -14.5t-62.5 -6.5q-110 0 -170.5 68.5t-60.5 193.5q0 58 16 106.5t46 83t73 53.5t97 19q36 0 65 -7.5t50 -16.5t33.5 -17.5t14.5 -11.5l-39 -64q-3 3 -13.5 9t-26.5 12
t-37 10.5t-45 4.5q-62 0 -102 -44.5t-40 -136.5zM320 650q0 -27 -15.5 -44.5t-42.5 -17.5t-42.5 18t-15.5 44t15.5 43.5t42.5 17.5t42.5 -17t15.5 -44z" />
    <glyph glyph-name="Ccaron" unicode="&#x10c;" horiz-adv-x="585" 
d="M354 627q-107 0 -159 -73.5t-52 -202.5t51.5 -202t158.5 -73q30 0 56.5 5.5t48 13.5t38.5 18t28 18l48 -67q-31 -27 -88 -51t-135 -24q-76 0 -133 25t-95.5 71.5t-58 114t-19.5 151.5q0 81 19.5 148t58.5 114.5t97 74t136 26.5q71 0 124 -20.5t95 -55.5l-48 -67
q-13 10 -29 20t-37 18t-46.5 13t-58.5 5zM533 866l-138 -110h-83l-138 110l38 47l142 -90l141 90z" />
    <glyph glyph-name="ccaron" unicode="&#x10d;" horiz-adv-x="443" 
d="M125 250q0 -95 40 -138.5t102 -43.5q47 0 79.5 12t43.5 18l35 -63q-2 -3 -15 -10.5t-34 -15.5t-49.5 -14.5t-62.5 -6.5q-110 0 -170.5 68.5t-60.5 193.5q0 58 16 106.5t46 83t73 53.5t97 19q36 0 65 -7.5t50 -16.5t33.5 -17.5t14.5 -11.5l-39 -64q-3 3 -13.5 9t-26.5 12
t-37 10.5t-45 4.5q-62 0 -102 -44.5t-40 -136.5zM148 731l114 -89l115 89l46 -44l-123 -113h-75l-123 113z" />
    <glyph glyph-name="Dcaron" unicode="&#x10e;" horiz-adv-x="661" 
d="M301 703q77 0 136.5 -26t99.5 -72.5t60.5 -111t20.5 -142.5q0 -79 -20.5 -144t-60.5 -111t-99.5 -71t-136.5 -25h-234v703h234zM301 83q109 0 163 72t54 197t-54.5 196.5t-162.5 71.5h-142v-537h142zM490 866l-138 -110h-83l-138 110l38 47l142 -90l141 90z" />
    <glyph glyph-name="dcaron" unicode="&#x10f;" horiz-adv-x="603" 
d="M272 69q24 0 45.5 6t38 15t28.5 20t18 21v92q0 102 -36 155.5t-105 53.5q-35 0 -60.5 -13.5t-42.5 -37.5t-25 -57.5t-8 -73.5q0 -49 10.5 -83.5t29.5 -56t46 -31.5t61 -10zM408 0l-4 44q-21 -20 -56 -36t-94 -16q-42 0 -81.5 12.5t-70.5 42.5t-50 79.5t-19 123.5
q0 54 13.5 102t40.5 84t68 56.5t95 20.5q35 0 61.5 -9t44.5 -21t29 -24t16 -19v310h89v-750h-82zM665 698q0 -29 -12.5 -62t-28 -62t-30.5 -51t-20 -29l-49 28q5 9 13.5 24.5t17 33.5t15.5 35.5t10 30.5q-14 7 -25.5 21.5t-11.5 34.5q0 26 17.5 43.5t44.5 17.5q25 0 42 -18
t17 -47z" />
    <glyph glyph-name="Dcroat" unicode="&#x110;" horiz-adv-x="661" 
d="M0 398h67v305h234q77 0 136.5 -26t99.5 -72.5t60.5 -111t20.5 -142.5q0 -79 -20.5 -144t-60.5 -111t-99.5 -71t-136.5 -25h-234v319h-67v79zM301 83q109 0 163 72t54 197t-54.5 196.5t-162.5 71.5h-142v-222h160v-79h-160v-236h142z" />
    <glyph glyph-name="dcroat" unicode="&#x111;" horiz-adv-x="578" 
d="M239 663h180v87h89v-87h60v-61h-60v-602h-82l-4 44q-21 -20 -56 -36t-94 -16q-42 0 -81.5 12.5t-70.5 42.5t-50 79.5t-19 123.5q0 54 13.5 102t40.5 84t68 56.5t95 20.5q35 0 61.5 -9t44.5 -21t29 -24t16 -19v162h-180v61zM290 69q49 0 82.5 19t47.5 38v109
q0 102 -35.5 149.5t-105.5 47.5q-35 0 -60.5 -13.5t-42.5 -37.5t-25 -57.5t-8 -73.5q0 -49 10.5 -83.5t29.5 -56t46 -31.5t61 -10z" />
    <glyph glyph-name="Emacron" unicode="&#x112;" 
d="M67 703h414v-83h-322v-213h252v-83h-252v-241h332v-83h-424v703zM117 793v77h314v-77h-314z" />
    <glyph glyph-name="emacron" unicode="&#x113;" 
d="M448 23q-5 -3 -19 -9t-35 -12t-48.5 -10.5t-61.5 -4.5q-125 0 -188 70t-63 194q0 58 15 106.5t44 83t71.5 53.5t98.5 19q51 0 91 -15.5t68 -48.5t43 -84.5t15 -123.5v-16h-356q5 -71 45 -115t123 -44q52 0 85.5 9t47.5 14zM387 297q-5 67 -33.5 104t-91.5 37
q-64 0 -95.5 -37.5t-41.5 -103.5h262zM118 600v72h290v-72h-290z" />
    <glyph glyph-name="Ebreve" unicode="&#x114;" 
d="M67 703h414v-83h-322v-213h252v-83h-252v-241h332v-83h-424v703zM281 825q41 0 59.5 21t18.5 52h75q0 -27 -9.5 -52.5t-28 -45t-47.5 -31t-68 -11.5t-68 11.5t-48 31t-28.5 45t-9.5 52.5h76q0 -31 18.5 -52t59.5 -21z" />
    <glyph glyph-name="ebreve" unicode="&#x115;" 
d="M448 23q-5 -3 -19 -9t-35 -12t-48.5 -10.5t-61.5 -4.5q-125 0 -188 70t-63 194q0 58 15 106.5t44 83t71.5 53.5t98.5 19q51 0 91 -15.5t68 -48.5t43 -84.5t15 -123.5v-16h-356q5 -71 45 -115t123 -44q52 0 85.5 9t47.5 14zM387 297q-5 67 -33.5 104t-91.5 37
q-64 0 -95.5 -37.5t-41.5 -103.5h262zM262 638q38 0 56 20.5t18 49.5h72q0 -26 -9 -50.5t-27 -43t-45.5 -29.5t-64.5 -11t-64.5 11t-46 29.5t-27.5 43t-9 50.5h73q0 -29 18 -49.5t56 -20.5z" />
    <glyph glyph-name="Edotaccent" unicode="&#x116;" 
d="M67 703h414v-83h-322v-213h252v-83h-252v-241h332v-83h-424v703zM345 837q0 -29 -16.5 -47t-45.5 -18t-45.5 18.5t-16.5 46.5t16.5 46.5t45.5 18.5t45.5 -18t16.5 -47z" />
    <glyph glyph-name="edotaccent" unicode="&#x117;" 
d="M448 23q-5 -3 -19 -9t-35 -12t-48.5 -10.5t-61.5 -4.5q-125 0 -188 70t-63 194q0 58 15 106.5t44 83t71.5 53.5t98.5 19q51 0 91 -15.5t68 -48.5t43 -84.5t15 -123.5v-16h-356q5 -71 45 -115t123 -44q52 0 85.5 9t47.5 14zM387 297q-5 67 -33.5 104t-91.5 37
q-64 0 -95.5 -37.5t-41.5 -103.5h262zM323 650q0 -27 -15.5 -44.5t-42.5 -17.5t-42.5 18t-15.5 44t15.5 43.5t42.5 17.5t42.5 -17t15.5 -44z" />
    <glyph glyph-name="Eogonek" unicode="&#x118;" 
d="M67 703h414v-83h-322v-213h252v-83h-252v-241h332v-83q-66 -47 -66 -88q0 -21 12.5 -28t30.5 -7h13t12 1v-62q-5 -1 -14.5 -1.5t-17.5 -0.5q-64 0 -90.5 21.5t-26.5 60.5q0 27 17 52.5t51 51.5h-345v703z" />
    <glyph glyph-name="eogonek" unicode="&#x119;" 
d="M284 -13q-125 0 -188 70t-63 194q0 58 15 106.5t44 83t71.5 53.5t98.5 19q51 0 91 -15.5t68 -48.5t43 -84.5t15 -123.5v-16h-356q5 -71 45 -115t123 -44q52 0 85.5 9t47.5 14l24 -66q-6 -4 -21.5 -10.5t-39.5 -12.5q-62 -47 -62 -86q0 -20 12.5 -27t29.5 -7h11.5t13.5 1
v-59q-7 -1 -15.5 -1.5t-16.5 -0.5q-63 0 -88 20.5t-25 58.5q0 47 50 88h-13zM387 297q-5 67 -33.5 104t-91.5 37q-64 0 -95.5 -37.5t-41.5 -103.5h262z" />
    <glyph glyph-name="Ecaron" unicode="&#x11a;" 
d="M67 703h414v-83h-322v-213h252v-83h-252v-241h332v-83h-424v703zM452 866l-138 -110h-83l-138 110l38 47l142 -90l141 90z" />
    <glyph glyph-name="ecaron" unicode="&#x11b;" 
d="M448 23q-5 -3 -19 -9t-35 -12t-48.5 -10.5t-61.5 -4.5q-125 0 -188 70t-63 194q0 58 15 106.5t44 83t71.5 53.5t98.5 19q51 0 91 -15.5t68 -48.5t43 -84.5t15 -123.5v-16h-356q5 -71 45 -115t123 -44q52 0 85.5 9t47.5 14zM387 297q-5 67 -33.5 104t-91.5 37
q-64 0 -95.5 -37.5t-41.5 -103.5h262zM148 731l114 -89l115 89l46 -44l-123 -113h-75l-123 113z" />
    <glyph glyph-name="Gcircumflex" unicode="&#x11c;" horiz-adv-x="649" 
d="M506 293h-126v82h217v-348q-9 -5 -28.5 -12t-49 -14t-69 -12t-88.5 -5q-81 0 -140.5 25.5t-99.5 73.5t-59.5 116t-19.5 152q0 81 19.5 148.5t58.5 116.5t97 76t136 27q72 0 130 -20t100 -55l-48 -67q-26 20 -71 38t-111 18q-54 0 -93.5 -20t-65.5 -56.5t-39 -89
t-13 -116.5q0 -65 13 -117t40 -89t68.5 -57t99.5 -20q51 0 84.5 5.5t57.5 13.5v206zM175 803l138 110h83l138 -110l-38 -47l-142 90l-141 -90z" />
    <glyph glyph-name="gcircumflex" unicode="&#x11d;" horiz-adv-x="543" 
d="M438 433q12 -10 21 -23.5t14 -28.5t7.5 -29.5t2.5 -26.5q0 -52 -19.5 -87t-50 -56t-69 -30t-76.5 -9q-25 0 -54 4.5t-52 13.5q-7 -5 -19 -18t-12 -33q0 -10 3.5 -19.5t14.5 -17t30.5 -12t52.5 -5.5l105 -2q38 -1 72.5 -6t60.5 -19t41.5 -38.5t15.5 -63.5
q0 -70 -72.5 -114.5t-206.5 -44.5q-39 0 -79 6t-72.5 21t-53.5 40.5t-21 64.5q0 35 19.5 62t46.5 49q-25 17 -33 39.5t-8 41.5q0 35 20 60t40 42q-26 23 -40.5 56t-14.5 78q0 51 19 86.5t50 57t69.5 31.5t77.5 10q24 0 41 -2t31 -4.5t27 -4.5t28 -2h136v-67h-93zM268 208
q24 0 47 7t40.5 21.5t28.5 37t11 54.5t-11 54.5t-28.5 37t-40.5 21.5t-47 7t-47 -7t-40.5 -21.5t-28.5 -37t-11 -54.5t11 -54.5t28.5 -37t40.5 -21.5t47 -7zM244 -26q-37 1 -62 4t-32 5q-17 -12 -27 -30t-10 -41t12 -36.5t32.5 -21.5t46.5 -10.5t53 -2.5q38 0 70 4.5
t55.5 14.5t36.5 25t13 35q0 9 -3 18.5t-12 16.5t-27 12t-48 5zM125 618l123 113h75l123 -113l-46 -44l-115 89l-114 -89z" />
    <glyph glyph-name="Gbreve" unicode="&#x11e;" horiz-adv-x="649" 
d="M506 293h-126v82h217v-348q-9 -5 -28.5 -12t-49 -14t-69 -12t-88.5 -5q-81 0 -140.5 25.5t-99.5 73.5t-59.5 116t-19.5 152q0 81 19.5 148.5t58.5 116.5t97 76t136 27q72 0 130 -20t100 -55l-48 -67q-26 20 -71 38t-111 18q-54 0 -93.5 -20t-65.5 -56.5t-39 -89
t-13 -116.5q0 -65 13 -117t40 -89t68.5 -57t99.5 -20q51 0 84.5 5.5t57.5 13.5v206zM357 825q41 0 59.5 21t18.5 52h75q0 -27 -9.5 -52.5t-28 -45t-47.5 -31t-68 -11.5t-68 11.5t-48 31t-28.5 45t-9.5 52.5h76q0 -31 18.5 -52t59.5 -21z" />
    <glyph glyph-name="gbreve" unicode="&#x11f;" horiz-adv-x="543" 
d="M438 433q12 -10 21 -23.5t14 -28.5t7.5 -29.5t2.5 -26.5q0 -52 -19.5 -87t-50 -56t-69 -30t-76.5 -9q-25 0 -54 4.5t-52 13.5q-7 -5 -19 -18t-12 -33q0 -10 3.5 -19.5t14.5 -17t30.5 -12t52.5 -5.5l105 -2q38 -1 72.5 -6t60.5 -19t41.5 -38.5t15.5 -63.5
q0 -70 -72.5 -114.5t-206.5 -44.5q-39 0 -79 6t-72.5 21t-53.5 40.5t-21 64.5q0 35 19.5 62t46.5 49q-25 17 -33 39.5t-8 41.5q0 35 20 60t40 42q-26 23 -40.5 56t-14.5 78q0 51 19 86.5t50 57t69.5 31.5t77.5 10q24 0 41 -2t31 -4.5t27 -4.5t28 -2h136v-67h-93zM268 208
q24 0 47 7t40.5 21.5t28.5 37t11 54.5t-11 54.5t-28.5 37t-40.5 21.5t-47 7t-47 -7t-40.5 -21.5t-28.5 -37t-11 -54.5t11 -54.5t28.5 -37t40.5 -21.5t47 -7zM244 -26q-37 1 -62 4t-32 5q-17 -12 -27 -30t-10 -41t12 -36.5t32.5 -21.5t46.5 -10.5t53 -2.5q38 0 70 4.5
t55.5 14.5t36.5 25t13 35q0 9 -3 18.5t-12 16.5t-27 12t-48 5zM276 638q38 0 56 20.5t18 49.5h72q0 -26 -9 -50.5t-27 -43t-45.5 -29.5t-64.5 -11t-64.5 11t-46 29.5t-27.5 43t-9 50.5h73q0 -29 18 -49.5t56 -20.5z" />
    <glyph glyph-name="Gdotaccent" unicode="&#x120;" horiz-adv-x="649" 
d="M506 293h-126v82h217v-348q-9 -5 -28.5 -12t-49 -14t-69 -12t-88.5 -5q-81 0 -140.5 25.5t-99.5 73.5t-59.5 116t-19.5 152q0 81 19.5 148.5t58.5 116.5t97 76t136 27q72 0 130 -20t100 -55l-48 -67q-26 20 -71 38t-111 18q-54 0 -93.5 -20t-65.5 -56.5t-39 -89
t-13 -116.5q0 -65 13 -117t40 -89t68.5 -57t99.5 -20q51 0 84.5 5.5t57.5 13.5v206zM421 837q0 -29 -16.5 -47t-45.5 -18t-45.5 18.5t-16.5 46.5t16.5 46.5t45.5 18.5t45.5 -18t16.5 -47z" />
    <glyph glyph-name="gdotaccent" unicode="&#x121;" horiz-adv-x="543" 
d="M438 433q12 -10 21 -23.5t14 -28.5t7.5 -29.5t2.5 -26.5q0 -52 -19.5 -87t-50 -56t-69 -30t-76.5 -9q-25 0 -54 4.5t-52 13.5q-7 -5 -19 -18t-12 -33q0 -10 3.5 -19.5t14.5 -17t30.5 -12t52.5 -5.5l105 -2q38 -1 72.5 -6t60.5 -19t41.5 -38.5t15.5 -63.5
q0 -70 -72.5 -114.5t-206.5 -44.5q-39 0 -79 6t-72.5 21t-53.5 40.5t-21 64.5q0 35 19.5 62t46.5 49q-25 17 -33 39.5t-8 41.5q0 35 20 60t40 42q-26 23 -40.5 56t-14.5 78q0 51 19 86.5t50 57t69.5 31.5t77.5 10q24 0 41 -2t31 -4.5t27 -4.5t28 -2h136v-67h-93zM268 208
q24 0 47 7t40.5 21.5t28.5 37t11 54.5t-11 54.5t-28.5 37t-40.5 21.5t-47 7t-47 -7t-40.5 -21.5t-28.5 -37t-11 -54.5t11 -54.5t28.5 -37t40.5 -21.5t47 -7zM244 -26q-37 1 -62 4t-32 5q-17 -12 -27 -30t-10 -41t12 -36.5t32.5 -21.5t46.5 -10.5t53 -2.5q38 0 70 4.5
t55.5 14.5t36.5 25t13 35q0 9 -3 18.5t-12 16.5t-27 12t-48 5zM338 650q0 -27 -15.5 -44.5t-42.5 -17.5t-42.5 18t-15.5 44t15.5 43.5t42.5 17.5t42.5 -17t15.5 -44z" />
    <glyph glyph-name="Gcommaaccent" unicode="&#x122;" horiz-adv-x="649" 
d="M506 293h-126v82h217v-348q-9 -5 -28.5 -12t-49 -14t-69 -12t-88.5 -5q-81 0 -140.5 25.5t-99.5 73.5t-59.5 116t-19.5 152q0 81 19.5 148.5t58.5 116.5t97 76t136 27q72 0 130 -20t100 -55l-48 -67q-26 20 -71 38t-111 18q-54 0 -93.5 -20t-65.5 -56.5t-39 -89
t-13 -116.5q0 -65 13 -117t40 -89t68.5 -57t99.5 -20q51 0 84.5 5.5t57.5 13.5v206zM425 -105q0 -25 -10 -49.5t-22.5 -45t-24.5 -34t-15 -16.5l-41 27q2 3 7.5 11t11.5 18.5t11 21.5t7 20q-14 6 -26 20.5t-12 31.5q0 24 15.5 39t41.5 15q23 0 40 -15.5t17 -43.5z" />
    <glyph glyph-name="gcommaaccent" unicode="&#x123;" horiz-adv-x="543" 
d="M438 433q12 -10 21 -23.5t14 -28.5t7.5 -29.5t2.5 -26.5q0 -52 -19.5 -87t-50 -56t-69 -30t-76.5 -9q-25 0 -54 4.5t-52 13.5q-7 -5 -19 -18t-12 -33q0 -10 3.5 -19.5t14.5 -17t30.5 -12t52.5 -5.5l105 -2q38 -1 72.5 -6t60.5 -19t41.5 -38.5t15.5 -63.5
q0 -70 -72.5 -114.5t-206.5 -44.5q-39 0 -79 6t-72.5 21t-53.5 40.5t-21 64.5q0 35 19.5 62t46.5 49q-25 17 -33 39.5t-8 41.5q0 35 20 60t40 42q-26 23 -40.5 56t-14.5 78q0 51 19 86.5t50 57t69.5 31.5t77.5 10q24 0 41 -2t31 -4.5t27 -4.5t28 -2h136v-67h-93zM268 208
q24 0 47 7t40.5 21.5t28.5 37t11 54.5t-11 54.5t-28.5 37t-40.5 21.5t-47 7t-47 -7t-40.5 -21.5t-28.5 -37t-11 -54.5t11 -54.5t28.5 -37t40.5 -21.5t47 -7zM244 -26q-37 1 -62 4t-32 5q-17 -12 -27 -30t-10 -41t12 -36.5t32.5 -21.5t46.5 -10.5t53 -2.5q38 0 70 4.5
t55.5 14.5t36.5 25t13 35q0 9 -3 18.5t-12 16.5t-27 12t-48 5zM239 633q0 25 9.5 49.5t21.5 44.5t23 34t14 17l40 -26q-2 -3 -7 -11t-11 -18.5t-11 -22t-7 -20.5q13 -6 24.5 -20.5t11.5 -31.5q0 -24 -15 -39t-39 -15q-23 0 -38.5 15.5t-15.5 43.5z" />
    <glyph glyph-name="Hcircumflex" unicode="&#x124;" horiz-adv-x="642" 
d="M483 703h92v-703h-92v334h-324v-334h-92v703h92v-286h324v286zM142 803l138 110h83l138 -110l-38 -47l-142 90l-141 -90z" />
    <glyph glyph-name="hcircumflex" unicode="&#x125;" horiz-adv-x="528" 
d="M476 0h-89v307q0 38 -7.5 63t-21.5 39.5t-33 20t-41 5.5q-38 0 -65.5 -16.5t-44.5 -43.5t-25 -62t-8 -72v-241h-89v750h89v-314q7 12 20.5 25.5t33 25t46 19t59.5 7.5q86 0 131 -50t45 -137v-326zM52 823l123 90h83l123 -90l-33 -47l-132 70l-131 -70z" />
    <glyph glyph-name="Hbar" unicode="&#x126;" horiz-adv-x="642" 
d="M575 515v-515h-92v334h-324v-334h-92v515h-62v74h62v114h92v-114h324v114h92v-114h62v-74h-62zM483 515h-324v-98h324v98z" />
    <glyph glyph-name="hbar" unicode="&#x127;" horiz-adv-x="528" 
d="M141 436q7 12 20.5 25.5t33 25t46 19t59.5 7.5q86 0 131 -50t45 -137v-326h-89v307q0 38 -7.5 63t-21.5 39.5t-33 20t-41 5.5q-38 0 -65.5 -16.5t-44.5 -43.5t-25 -62t-8 -72v-241h-89v598h-52v69h52v83h89v-83h180v-69h-180v-162z" />
    <glyph glyph-name="Itilde" unicode="&#x128;" horiz-adv-x="226" 
d="M159 0h-92v703h92v-703zM-71 775q0 58 28 88t77 30q25 0 43.5 -8.5t34.5 -18t31 -18t33 -8.5q26 0 36 14t10 37h66q0 -60 -28 -89t-77 -29q-25 0 -43.5 8.5t-34.5 18t-31 18t-33 8.5q-26 0 -36 -14t-10 -37h-66z" />
    <glyph glyph-name="itilde" unicode="&#x129;" horiz-adv-x="203" 
d="M57 500h89v-500h-89v500zM-70 581q0 58 27 87.5t75 29.5q24 0 42.5 -8t34.5 -18t31.5 -18t32.5 -8q24 0 34 13t10 36h64q0 -58 -27 -87.5t-75 -29.5q-24 0 -42.5 8.5t-34.5 18t-31 18t-32 8.5q-25 0 -35 -13.5t-10 -36.5h-64z" />
    <glyph glyph-name="Imacron" unicode="&#x12a;" horiz-adv-x="226" 
d="M159 0h-92v703h92v-703zM-43 793v77h314v-77h-314z" />
    <glyph glyph-name="imacron" unicode="&#x12b;" horiz-adv-x="203" 
d="M57 500h89v-500h-89v500zM-42 600v72h290v-72h-290z" />
    <glyph glyph-name="Ibreve" unicode="&#x12c;" horiz-adv-x="226" 
d="M159 0h-92v703h92v-703zM115 825q41 0 59.5 21t18.5 52h75q0 -27 -9.5 -52.5t-28 -45t-47.5 -31t-68 -11.5t-68 11.5t-48 31t-28.5 45t-9.5 52.5h76q0 -31 18.5 -52t59.5 -21z" />
    <glyph glyph-name="ibreve" unicode="&#x12d;" horiz-adv-x="203" 
d="M57 500h89v-500h-89v500zM103 638q38 0 56 20.5t18 49.5h72q0 -26 -9 -50.5t-27 -43t-45.5 -29.5t-64.5 -11t-64.5 11t-46 29.5t-27.5 43t-9 50.5h73q0 -29 18 -49.5t56 -20.5z" />
    <glyph glyph-name="Iogonek" unicode="&#x12e;" horiz-adv-x="226" 
d="M161 -184q-5 -1 -14.5 -1.5t-17.5 -0.5q-64 0 -90.5 21.5t-26.5 60.5q0 27 17 52.5t51 51.5h-13v703h92v-703q-66 -47 -66 -88q0 -21 12.5 -28t30.5 -7h13t12 1v-62z" />
    <glyph glyph-name="iogonek" unicode="&#x12f;" horiz-adv-x="203" 
d="M57 500h89v-500q-63 -47 -63 -86q0 -20 12.5 -27t29.5 -7h11.5t13.5 1v-59q-7 -1 -15.5 -1.5t-16.5 -0.5q-63 0 -88 20.5t-25 58.5q0 52 67 101h-15v500zM159 662q0 -27 -15.5 -44t-42.5 -17t-42.5 17.5t-15.5 43.5t15.5 43.5t42.5 17.5t42.5 -17t15.5 -44z" />
    <glyph glyph-name="Idotaccent" unicode="&#x130;" horiz-adv-x="226" 
d="M159 0h-92v703h92v-703zM176 837q0 -29 -16.5 -47t-45.5 -18t-45.5 18.5t-16.5 46.5t16.5 46.5t45.5 18.5t45.5 -18t16.5 -47z" />
    <glyph glyph-name="dotlessi" unicode="&#x131;" horiz-adv-x="203" 
d="M57 500h89v-500h-89v500z" />
    <glyph glyph-name="i.locl" horiz-adv-x="203" 
d="M57 500h89v-500h-89v500zM159 662q0 -27 -15.5 -44t-42.5 -17t-42.5 17.5t-15.5 43.5t15.5 43.5t42.5 17.5t42.5 -17t15.5 -44z" />
    <glyph glyph-name="IJ" unicode="&#x132;" horiz-adv-x="670" 
d="M159 0h-92v703h92v-703zM521 703h92v-508q0 -60 -16.5 -100t-44.5 -65t-65 -35.5t-79 -10.5q-41 0 -73.5 7.5t-55.5 16.5t-36 17t-15 10l32 67q3 -2 14.5 -8.5t29.5 -13t42 -11.5t52 -5q25 0 47.5 5.5t39.5 20t26.5 40t9.5 66.5v507z" />
    <glyph glyph-name="ij" unicode="&#x133;" horiz-adv-x="406" 
d="M57 500h89v-500h-89v500zM159 662q0 -27 -15.5 -44t-42.5 -17t-42.5 17.5t-15.5 43.5t15.5 43.5t42.5 17.5t42.5 -17t15.5 -44zM260 500h89v-528q0 -106 -45.5 -155t-139.5 -49q-37 0 -79 12l9 69q19 -5 35 -6.5t30 -1.5q30 0 49.5 8t31 26t16 46t4.5 69v510zM362 662
q0 -27 -15.5 -44t-42.5 -17t-42.5 17.5t-15.5 43.5t15.5 43.5t42.5 17.5t42.5 -17t15.5 -44z" />
    <glyph glyph-name="Jcircumflex" unicode="&#x134;" horiz-adv-x="449" 
d="M295 703h92v-508q0 -60 -16.5 -100t-44.5 -65t-65 -35.5t-79 -10.5q-41 0 -73.5 7.5t-55.5 16.5t-36 17t-15 10l32 67q3 -2 14.5 -8.5t29.5 -13t42 -11.5t52 -5q25 0 47.5 5.5t39.5 20t26.5 40t9.5 66.5v507zM162 803l138 110h83l138 -110l-38 -47l-142 90l-141 -90z" />
    <glyph glyph-name="jcircumflex" unicode="&#x135;" horiz-adv-x="203" 
d="M57 500h89v-528q0 -106 -45.5 -155t-139.5 -49q-37 0 -79 12l9 69q19 -5 35 -6.5t30 -1.5q30 0 49.5 8t31 26t16 46t4.5 69v510zM-58 618l123 113h75l123 -113l-46 -44l-115 89l-114 -89z" />
    <glyph glyph-name="Kcommaaccent" unicode="&#x136;" horiz-adv-x="570" 
d="M571 0h-118l-294 368v-368h-92v703h92v-325l282 325h105l-281 -324zM364 -105q0 -25 -10 -49.5t-22.5 -45t-24.5 -34t-15 -16.5l-41 27q2 3 7.5 11t11.5 18.5t11 21.5t7 20q-14 6 -26 20.5t-12 31.5q0 24 15.5 39t41.5 15q23 0 40 -15.5t17 -43.5z" />
    <glyph glyph-name="kcommaaccent" unicode="&#x137;" horiz-adv-x="492" 
d="M141 0h-89v750h89v-474l217 224h105l-218 -224l247 -276h-116l-235 266v-266zM311 -105q0 -25 -9.5 -49.5t-22 -45t-23.5 -34t-14 -16.5l-41 27q2 3 7 11t11 18.5t11.5 21.5t7.5 20q-14 6 -25.5 20.5t-11.5 31.5q0 24 15 39t40 15q23 0 39 -15.5t16 -43.5z" />
    <glyph glyph-name="kgreenlandic.case" horiz-adv-x="674" 
d="M571 0h-118l-294 368v-368h-92v703h92v-325l282 325h105l-281 -324zM542 555q0 30 14 64t32 64t34.5 52t21.5 28l46 -32q-6 -8 -15 -23.5t-19 -33.5t-18 -36t-12 -32q14 -8 23.5 -21.5t9.5 -33.5q0 -28 -16 -44.5t-43 -16.5q-25 0 -41.5 17.5t-16.5 47.5z" />
    <glyph glyph-name="kgreenlandic" unicode="&#x138;" horiz-adv-x="493" 
d="M249 263l244 -263h-121l-231 250v-250h-89v500h89v-240l227 240h105z" />
    <glyph glyph-name="Lacute" unicode="&#x139;" horiz-adv-x="481" 
d="M159 83h307v-83h-399v703h92v-620zM13 821l243 105l33 -81l-248 -89z" />
    <glyph glyph-name="lacute" unicode="&#x13a;" horiz-adv-x="203" 
d="M57 750h89v-750h-89v750zM-15 837l231 81l24 -80l-236 -63z" />
    <glyph glyph-name="Lcommaaccent" unicode="&#x13b;" horiz-adv-x="481" 
d="M159 83h307v-83h-399v703h92v-620zM338 -105q0 -25 -10 -49.5t-22.5 -45t-24.5 -34t-15 -16.5l-41 27q2 3 7.5 11t11.5 18.5t11 21.5t7 20q-14 6 -26 20.5t-12 31.5q0 24 15.5 39t41.5 15q23 0 40 -15.5t17 -43.5z" />
    <glyph glyph-name="lcommaaccent" unicode="&#x13c;" horiz-adv-x="203" 
d="M57 750h89v-750h-89v750zM157 -105q0 -25 -9.5 -49.5t-22 -45t-23.5 -34t-14 -16.5l-41 27q2 3 7 11t11 18.5t11.5 21.5t7.5 20q-14 6 -25.5 20.5t-11.5 31.5q0 24 15 39t40 15q23 0 39 -15.5t16 -43.5z" />
    <glyph glyph-name="Lcaron" unicode="&#x13d;" horiz-adv-x="481" 
d="M159 83h307v-83h-399v703h92v-620zM395 652q0 -29 -12.5 -62t-28 -62t-30.5 -51t-20 -29l-49 28q5 9 13.5 24.5t17 33.5t15.5 35.5t10 30.5q-14 7 -25.5 21.5t-11.5 34.5q0 26 17.5 43.5t44.5 17.5q25 0 42 -18t17 -47z" />
    <glyph glyph-name="lcaron" unicode="&#x13e;" horiz-adv-x="259" 
d="M57 750h89v-750h-89v750zM321 698q0 -29 -12.5 -62t-28 -62t-30.5 -51t-20 -29l-49 28q5 9 13.5 24.5t17 33.5t15.5 35.5t10 30.5q-14 7 -25.5 21.5t-11.5 34.5q0 26 17.5 43.5t44.5 17.5q25 0 42 -18t17 -47z" />
    <glyph glyph-name="Ldot" unicode="&#x13f;" horiz-adv-x="481" 
d="M159 83h307v-83h-399v703h92v-620zM413 424q0 -29 -17.5 -48t-46.5 -19t-46.5 19t-17.5 48t17.5 48t46.5 19t46.5 -19t17.5 -48z" />
    <glyph glyph-name="ldot" unicode="&#x140;" horiz-adv-x="321" 
d="M57 750h89v-750h-89v750zM326 424q0 -29 -17.5 -48t-46.5 -19t-46.5 19t-17.5 48t17.5 48t46.5 19t46.5 -19t17.5 -48z" />
    <glyph glyph-name="Lslash" unicode="&#x141;" horiz-adv-x="481" 
d="M159 334v-251h307v-83h-399v285l-67 -35v86l67 35v332h92v-283l190 100v-86z" />
    <glyph glyph-name="lslash" unicode="&#x142;" horiz-adv-x="219" 
d="M154 389v-389h-89v319l-65 -53v87l65 53v344h89v-274l65 54v-87z" />
    <glyph glyph-name="Nacute" unicode="&#x143;" horiz-adv-x="646" 
d="M489 703h90v-703h-90l-332 545v-545h-90v703h96l326 -536v536zM204 821l243 105l33 -81l-248 -89z" />
    <glyph glyph-name="nacute" unicode="&#x144;" horiz-adv-x="528" 
d="M476 0h-89v307q0 38 -7.5 63t-21.5 39.5t-33 20t-41 5.5q-40 0 -67 -17t-44 -45.5t-24.5 -64.5t-7.5 -74v-234h-89v500h82l4 -69q6 12 19 26.5t33.5 27t47.5 20.5t62 8q86 0 131 -50t45 -137v-326zM157 632l216 117l39 -79l-223 -102z" />
    <glyph glyph-name="Ncommaaccent" unicode="&#x145;" horiz-adv-x="646" 
d="M489 703h90v-703h-90l-332 545v-545h-90v703h96l326 -536v536zM386 -105q0 -25 -10 -49.5t-22.5 -45t-24.5 -34t-15 -16.5l-41 27q2 3 7.5 11t11.5 18.5t11 21.5t7 20q-14 6 -26 20.5t-12 31.5q0 24 15.5 39t41.5 15q23 0 40 -15.5t17 -43.5z" />
    <glyph glyph-name="ncommaaccent" unicode="&#x146;" horiz-adv-x="528" 
d="M476 0h-89v307q0 38 -7.5 63t-21.5 39.5t-33 20t-41 5.5q-40 0 -67 -17t-44 -45.5t-24.5 -64.5t-7.5 -74v-234h-89v500h82l4 -69q6 12 19 26.5t33.5 27t47.5 20.5t62 8q86 0 131 -50t45 -137v-326zM325 -105q0 -25 -9.5 -49.5t-22 -45t-23.5 -34t-14 -16.5l-41 27
q2 3 7 11t11 18.5t11.5 21.5t7.5 20q-14 6 -25.5 20.5t-11.5 31.5q0 24 15 39t40 15q23 0 39 -15.5t16 -43.5z" />
    <glyph glyph-name="Ncaron" unicode="&#x147;" horiz-adv-x="646" 
d="M489 703h90v-703h-90l-332 545v-545h-90v703h96l326 -536v536zM502 866l-138 -110h-83l-138 110l38 47l142 -90l141 90z" />
    <glyph glyph-name="ncaron" unicode="&#x148;" horiz-adv-x="528" 
d="M476 0h-89v307q0 38 -7.5 63t-21.5 39.5t-33 20t-41 5.5q-40 0 -67 -17t-44 -45.5t-24.5 -64.5t-7.5 -74v-234h-89v500h82l4 -69q6 12 19 26.5t33.5 27t47.5 20.5t62 8q86 0 131 -50t45 -137v-326zM150 731l114 -89l115 89l46 -44l-123 -113h-75l-123 113z" />
    <glyph glyph-name="napostrophe.case" horiz-adv-x="748" 
d="M595 703h90v-703h-90l-332 545v-545h-90v703h96l326 -536v536zM120 655q0 -30 -14 -64t-32 -64t-34.5 -52t-21.5 -28l-46 32q6 8 15 23t19 33t18 36.5t12 32.5q-14 8 -23.5 21.5t-9.5 33.5q0 28 16 44.5t43 16.5q25 0 41.5 -17.5t16.5 -47.5z" />
    <glyph glyph-name="napostrophe" unicode="&#x149;" horiz-adv-x="581" 
d="M529 0h-89v307q0 38 -7.5 63t-21.5 39.5t-33 20t-41 5.5q-40 0 -67 -17t-44 -45.5t-24.5 -64.5t-7.5 -74v-234h-89v500h82l4 -69q6 12 19 26.5t33.5 27t47.5 20.5t62 8q86 0 131 -50t45 -137v-326zM139 698q0 -30 -14 -64t-32 -64t-34.5 -52t-21.5 -28l-46 32q6 8 15 23
t19 33t18 36.5t12 32.5q-14 8 -23.5 21.5t-9.5 33.5q0 28 16 44.5t43 16.5q25 0 41.5 -17.5t16.5 -47.5z" />
    <glyph glyph-name="Eng" unicode="&#x14a;" horiz-adv-x="649" 
d="M501 373q0 72 -12 121t-34 79.5t-51.5 43.5t-65.5 13q-43 0 -76 -20.5t-56 -55.5t-35 -83t-12 -103v-368h-92v703h85l4 -87q8 15 23.5 32.5t39.5 33.5t55.5 26.5t70.5 10.5q53 0 99 -20t80 -62.5t53.5 -108t19.5 -155.5q0 -111 -17.5 -185t-48.5 -119t-72 -63.5
t-87 -18.5q-38 0 -80 12l11 77q19 -5 34.5 -6.5t29.5 -1.5q30 0 54.5 16t42.5 52.5t27.5 94.5t9.5 142z" />
    <glyph glyph-name="eng" unicode="&#x14b;" horiz-adv-x="528" 
d="M476 -28q0 -106 -45.5 -155t-139.5 -49q-37 0 -79 12l9 69q19 -5 35 -6.5t30 -1.5q30 0 49.5 8t31 26t16 46t4.5 69v317q0 38 -7.5 63t-21.5 39.5t-33 20t-41 5.5q-40 0 -67 -17t-44 -45.5t-24.5 -64.5t-7.5 -74v-234h-89v500h82l4 -69q6 12 19 26.5t33.5 27t47.5 20.5
t62 8q86 0 131 -50t45 -137v-354z" />
    <glyph glyph-name="Omacron" unicode="&#x14c;" horiz-adv-x="708" 
d="M354 -16q-78 0 -136 26.5t-97 75t-58.5 116t-19.5 149.5q0 81 19.5 148.5t58.5 116.5t97 76t136 27q77 0 135.5 -27t97.5 -76t58.5 -116.5t19.5 -148.5q0 -82 -19.5 -149.5t-58.5 -116t-97.5 -75t-135.5 -26.5zM354 68q54 0 94 20t66 57t38.5 89t12.5 117q0 64 -13 116.5
t-39 89t-65.5 56.5t-93.5 20t-93.5 -20t-65.5 -56.5t-39 -89t-13 -116.5q0 -65 12.5 -117t39 -89t66 -57t93.5 -20zM197 793v77h314v-77h-314z" />
    <glyph glyph-name="omacron" unicode="&#x14d;" horiz-adv-x="536" 
d="M268 -13q-56 0 -99.5 19t-73.5 53.5t-46 83t-16 107.5q0 58 16 106.5t46.5 83.5t74 54t98.5 19t98.5 -19t74 -53.5t46.5 -83t16 -107.5q0 -60 -16 -108.5t-46 -83t-74 -53t-99 -18.5zM268 66q73 0 108 51t35 133q0 40 -9 73.5t-26.5 58t-44.5 38.5t-63 14q-71 0 -107 -51
t-36 -133q0 -85 35 -134.5t108 -49.5zM123 600v72h290v-72h-290z" />
    <glyph glyph-name="Obreve" unicode="&#x14e;" horiz-adv-x="708" 
d="M354 -16q-78 0 -136 26.5t-97 75t-58.5 116t-19.5 149.5q0 81 19.5 148.5t58.5 116.5t97 76t136 27q77 0 135.5 -27t97.5 -76t58.5 -116.5t19.5 -148.5q0 -82 -19.5 -149.5t-58.5 -116t-97.5 -75t-135.5 -26.5zM354 68q54 0 94 20t66 57t38.5 89t12.5 117q0 64 -13 116.5
t-39 89t-65.5 56.5t-93.5 20t-93.5 -20t-65.5 -56.5t-39 -89t-13 -116.5q0 -65 12.5 -117t39 -89t66 -57t93.5 -20zM355 825q41 0 59.5 21t18.5 52h75q0 -27 -9.5 -52.5t-28 -45t-47.5 -31t-68 -11.5t-68 11.5t-48 31t-28.5 45t-9.5 52.5h76q0 -31 18.5 -52t59.5 -21z" />
    <glyph glyph-name="obreve" unicode="&#x14f;" horiz-adv-x="536" 
d="M268 -13q-56 0 -99.5 19t-73.5 53.5t-46 83t-16 107.5q0 58 16 106.5t46.5 83.5t74 54t98.5 19t98.5 -19t74 -53.5t46.5 -83t16 -107.5q0 -60 -16 -108.5t-46 -83t-74 -53t-99 -18.5zM268 66q73 0 108 51t35 133q0 40 -9 73.5t-26.5 58t-44.5 38.5t-63 14q-71 0 -107 -51
t-36 -133q0 -85 35 -134.5t108 -49.5zM269 638q38 0 56 20.5t18 49.5h72q0 -26 -9 -50.5t-27 -43t-45.5 -29.5t-64.5 -11t-64.5 11t-46 29.5t-27.5 43t-9 50.5h73q0 -29 18 -49.5t56 -20.5z" />
    <glyph glyph-name="Ohungarumlaut" unicode="&#x150;" horiz-adv-x="708" 
d="M354 -16q-78 0 -136 26.5t-97 75t-58.5 116t-19.5 149.5q0 81 19.5 148.5t58.5 116.5t97 76t136 27q77 0 135.5 -27t97.5 -76t58.5 -116.5t19.5 -148.5q0 -82 -19.5 -149.5t-58.5 -116t-97.5 -75t-135.5 -26.5zM354 68q54 0 94 20t66 57t38.5 89t12.5 117q0 64 -13 116.5
t-39 89t-65.5 56.5t-93.5 20t-93.5 -20t-65.5 -56.5t-39 -89t-13 -116.5q0 -65 12.5 -117t39 -89t66 -57t93.5 -20zM405 803l154 144l55 -60l-167 -131zM206 803l154 144l55 -60l-167 -131z" />
    <glyph glyph-name="ohungarumlaut" unicode="&#x151;" horiz-adv-x="536" 
d="M268 -13q-56 0 -99.5 19t-73.5 53.5t-46 83t-16 107.5q0 58 16 106.5t46.5 83.5t74 54t98.5 19t98.5 -19t74 -53.5t46.5 -83t16 -107.5q0 -60 -16 -108.5t-46 -83t-74 -53t-99 -18.5zM268 66q73 0 108 51t35 133q0 40 -9 73.5t-26.5 58t-44.5 38.5t-63 14q-71 0 -107 -51
t-36 -133q0 -85 35 -134.5t108 -49.5zM311 614l148 138l54 -59l-161 -125zM122 614l148 138l54 -59l-161 -125z" />
    <glyph glyph-name="Racute" unicode="&#x154;" horiz-adv-x="554" 
d="M536 0h-108l-167 283h-104v-283h-90v703h203q65 0 108.5 -20.5t70 -52t37.5 -68t11 -69.5q0 -74 -37.5 -123t-103.5 -72zM405 493q0 60 -35.5 95t-101.5 35h-111v-260h104q72 0 108 34.5t36 95.5zM158 821l243 105l33 -81l-248 -89z" />
    <glyph glyph-name="racute" unicode="&#x155;" horiz-adv-x="352" 
d="M344 424q-5 2 -19.5 4t-29.5 2q-71 0 -112.5 -59t-41.5 -162v-209h-89v500h82l4 -85q9 17 23.5 33.5t34.5 29t45.5 20.5t56.5 8q14 0 32.5 -2.5t21.5 -3.5zM87 632l216 117l39 -79l-223 -102z" />
    <glyph glyph-name="Rcommaaccent" unicode="&#x156;" horiz-adv-x="554" 
d="M536 0h-108l-167 283h-104v-283h-90v703h203q65 0 108.5 -20.5t70 -52t37.5 -68t11 -69.5q0 -74 -37.5 -123t-103.5 -72zM405 493q0 60 -35.5 95t-101.5 35h-111v-260h104q72 0 108 34.5t36 95.5zM372 -105q0 -25 -10 -49.5t-22.5 -45t-24.5 -34t-15 -16.5l-41 27
q2 3 7.5 11t11.5 18.5t11 21.5t7 20q-14 6 -26 20.5t-12 31.5q0 24 15.5 39t41.5 15q23 0 40 -15.5t17 -43.5z" />
    <glyph glyph-name="rcommaaccent" unicode="&#x157;" horiz-adv-x="352" 
d="M344 424q-5 2 -19.5 4t-29.5 2q-71 0 -112.5 -59t-41.5 -162v-209h-89v500h82l4 -85q9 17 23.5 33.5t34.5 29t45.5 20.5t56.5 8q14 0 32.5 -2.5t21.5 -3.5zM153 -105q0 -25 -9.5 -49.5t-22 -45t-23.5 -34t-14 -16.5l-41 27q2 3 7 11t11 18.5t11.5 21.5t7.5 20
q-14 6 -25.5 20.5t-11.5 31.5q0 24 15 39t40 15q23 0 39 -15.5t16 -43.5z" />
    <glyph glyph-name="Rcaron" unicode="&#x158;" horiz-adv-x="554" 
d="M536 0h-108l-167 283h-104v-283h-90v703h203q65 0 108.5 -20.5t70 -52t37.5 -68t11 -69.5q0 -74 -37.5 -123t-103.5 -72zM405 493q0 60 -35.5 95t-101.5 35h-111v-260h104q72 0 108 34.5t36 95.5zM476 866l-138 -110h-83l-138 110l38 47l142 -90l141 90z" />
    <glyph glyph-name="rcaron" unicode="&#x159;" horiz-adv-x="352" 
d="M344 424q-5 2 -19.5 4t-29.5 2q-71 0 -112.5 -59t-41.5 -162v-209h-89v500h82l4 -85q9 17 23.5 33.5t34.5 29t45.5 20.5t56.5 8q14 0 32.5 -2.5t21.5 -3.5zM78 731l114 -89l115 89l46 -44l-123 -113h-75l-123 113z" />
    <glyph glyph-name="Sacute" unicode="&#x15a;" horiz-adv-x="535" 
d="M212 324q-80 22 -128.5 67.5t-48.5 124.5q0 42 15 78.5t44.5 64.5t73 44t99.5 16q69 0 124.5 -16.5t87.5 -37.5l-34 -71q-10 6 -29 13t-43 14t-52 11.5t-56 4.5q-67 0 -103 -31t-36 -81q0 -44 27.5 -71t91.5 -45l82 -23q88 -25 133 -70.5t45 -128.5q0 -45 -16 -82.5
t-47 -64.5t-75.5 -41.5t-101.5 -14.5q-50 0 -91 8t-72 18.5t-51 21.5t-28 16l39 72q13 -8 33 -17.5t46.5 -17t57.5 -12.5t66 -5q75 0 110 31.5t35 81.5q0 18 -5 35.5t-18 33t-35.5 28.5t-57.5 23zM141 821l243 105l33 -81l-248 -89z" />
    <glyph glyph-name="sacute" unicode="&#x15b;" horiz-adv-x="449" 
d="M48 108q25 -13 69 -29t104 -16q33 0 54.5 5.5t34 15t18 22t5.5 27.5q0 27 -20.5 45.5t-71.5 28.5l-61 12q-32 6 -59.5 17t-47.5 28.5t-31.5 41.5t-11.5 57q0 68 53 109t142 41q58 0 104 -14t75 -31l-28 -66q-7 4 -22.5 10t-36 11.5t-44.5 9.5t-48 4q-55 0 -81 -19
t-26 -51q0 -27 18.5 -43t73.5 -26l62 -12q72 -14 112 -46t40 -99q0 -70 -52.5 -112t-149.5 -42q-71 0 -123.5 18t-82.5 38zM108 632l216 117l39 -79l-223 -102z" />
    <glyph glyph-name="Scircumflex" unicode="&#x15c;" horiz-adv-x="535" 
d="M212 324q-80 22 -128.5 67.5t-48.5 124.5q0 42 15 78.5t44.5 64.5t73 44t99.5 16q69 0 124.5 -16.5t87.5 -37.5l-34 -71q-10 6 -29 13t-43 14t-52 11.5t-56 4.5q-67 0 -103 -31t-36 -81q0 -44 27.5 -71t91.5 -45l82 -23q88 -25 133 -70.5t45 -128.5q0 -45 -16 -82.5
t-47 -64.5t-75.5 -41.5t-101.5 -14.5q-50 0 -91 8t-72 18.5t-51 21.5t-28 16l39 72q13 -8 33 -17.5t46.5 -17t57.5 -12.5t66 -5q75 0 110 31.5t35 81.5q0 18 -5 35.5t-18 33t-35.5 28.5t-57.5 23zM86 803l138 110h83l138 -110l-38 -47l-142 90l-141 -90z" />
    <glyph glyph-name="scircumflex" unicode="&#x15d;" horiz-adv-x="449" 
d="M48 108q25 -13 69 -29t104 -16q33 0 54.5 5.5t34 15t18 22t5.5 27.5q0 27 -20.5 45.5t-71.5 28.5l-61 12q-32 6 -59.5 17t-47.5 28.5t-31.5 41.5t-11.5 57q0 68 53 109t142 41q58 0 104 -14t75 -31l-28 -66q-7 4 -22.5 10t-36 11.5t-44.5 9.5t-48 4q-55 0 -81 -19
t-26 -51q0 -27 18.5 -43t73.5 -26l62 -12q72 -14 112 -46t40 -99q0 -70 -52.5 -112t-149.5 -42q-71 0 -123.5 18t-82.5 38zM64 618l123 113h75l123 -113l-46 -44l-115 89l-114 -89z" />
    <glyph glyph-name="Scedilla" unicode="&#x15e;" horiz-adv-x="535" 
d="M217 -14q-40 4 -72.5 12.5t-57.5 18t-41 18t-23 13.5l39 72q13 -8 33 -17.5t46.5 -17t57.5 -12.5t66 -5q75 0 110 31.5t35 81.5q0 18 -5 35.5t-18 33t-35.5 28.5t-57.5 23l-82 23q-80 22 -128.5 67.5t-48.5 124.5q0 42 15 78.5t44.5 64.5t73 44t99.5 16q69 0 124.5 -16.5
t87.5 -37.5l-34 -71q-10 6 -29 13t-43 14t-52 11.5t-56 4.5q-67 0 -103 -31t-36 -81q0 -44 27.5 -71t91.5 -45l82 -23q88 -25 133 -70.5t45 -128.5q0 -89 -59 -144t-168 -59l-7 -34q49 -4 74 -28.5t25 -60.5q0 -26 -10.5 -44.5t-28 -31.5t-41 -19t-49.5 -6q-45 0 -72 7
t-32 9l16 53q17 -5 35.5 -8.5t37.5 -3.5q33 0 51 10.5t18 30.5q0 14 -14.5 24.5t-45.5 10.5q-20 0 -38 -3z" />
    <glyph glyph-name="scedilla" unicode="&#x15f;" horiz-adv-x="449" 
d="M48 108q25 -13 69 -29t104 -16q33 0 54.5 5.5t34 15t18 22t5.5 27.5q0 27 -20.5 45.5t-71.5 28.5l-61 12q-32 6 -59.5 17t-47.5 28.5t-31.5 41.5t-11.5 57q0 68 53 109t142 41q58 0 104 -14t75 -31l-28 -66q-7 4 -22.5 10t-36 11.5t-44.5 9.5t-48 4q-55 0 -81 -19
t-26 -51q0 -27 18.5 -43t73.5 -26l62 -12q72 -14 112 -46t40 -99q0 -68 -48.5 -109.5t-139.5 -44.5l-7 -36q46 -4 70.5 -28t24.5 -59q0 -24 -10 -42t-27.5 -30.5t-40 -18.5t-47.5 -6q-43 0 -69 7t-31 9l16 51q17 -5 34.5 -8.5t36.5 -3.5q32 0 48.5 10.5t16.5 28.5
q0 14 -13.5 24.5t-44.5 10.5q-18 0 -36 -3l20 97q-54 5 -95 20.5t-66 32.5z" />
    <glyph glyph-name="uni0162" unicode="&#x162;" horiz-adv-x="548" 
d="M228 620h-213v83h518v-83h-213v-620h-15l-11 -50q49 -4 74 -28.5t25 -60.5q0 -26 -10.5 -44.5t-28 -31.5t-41 -19t-49.5 -6q-45 0 -72 7t-32 9l16 53q17 -5 35.5 -8.5t37.5 -3.5q33 0 51 10.5t18 30.5q0 14 -14.5 24.5t-45.5 10.5q-20 0 -38 -3l23 110h-15v620z" />
    <glyph glyph-name="uni0163" unicode="&#x163;" horiz-adv-x="353" 
d="M190 2q-90 28 -90 143v280h-100v75h100v138l89 24v-162h149v-75h-149v-270q0 -30 7.5 -48t21 -27.5t32 -13t41.5 -3.5t37.5 2t19.5 3l7 -67q-13 -3 -36.5 -6t-52.5 -3h-9.5t-9.5 1l-8 -42q46 -4 70.5 -28t24.5 -59q0 -24 -10 -42t-27.5 -30.5t-40 -18.5t-47.5 -6
q-43 0 -69 7t-31 9l16 51q17 -5 34.5 -8.5t36.5 -3.5q32 0 48.5 10.5t16.5 28.5q0 14 -13.5 24.5t-44.5 10.5q-18 0 -36 -3z" />
    <glyph glyph-name="Tcaron" unicode="&#x164;" horiz-adv-x="548" 
d="M228 620h-213v83h518v-83h-213v-620h-92v620zM454 866l-138 -110h-83l-138 110l38 47l142 -90l141 90z" />
    <glyph glyph-name="tcaron" unicode="&#x165;" horiz-adv-x="353" 
d="M1 500h100v138l89 24v-162h149v-75h-149v-270q0 -30 7.5 -48t21 -27.5t32 -13t41.5 -3.5t37.5 2t19.5 3l7 -67q-13 -3 -36.5 -6t-52.5 -3q-86 0 -126 37.5t-40 115.5v280h-100v75zM354 700q0 -25 -9.5 -52.5t-21.5 -51t-22.5 -40t-12.5 -19.5l-49 25q2 4 7 13.5t10.5 22
t10.5 25t8 22.5q-16 8 -28 23.5t-12 35.5q0 26 17 42.5t44 16.5q25 0 41.5 -17t16.5 -46z" />
    <glyph glyph-name="Tbar" unicode="&#x166;" horiz-adv-x="548" 
d="M320 302v-302h-92v302h-139v79h139v239h-213v83h518v-83h-213v-239h139v-79h-139z" />
    <glyph glyph-name="tbar" unicode="&#x167;" horiz-adv-x="368" 
d="M197 221v-66q0 -30 7.5 -48t21 -27.5t32 -13t41.5 -3.5t37.5 2t19.5 3l7 -67q-13 -3 -36.5 -6t-52.5 -3q-86 0 -126 37.5t-40 115.5v76h-100v69h100v135h-100v75h100v138l89 24v-162h149v-75h-149v-135h149v-69h-149z" />
    <glyph glyph-name="Utilde" unicode="&#x168;" horiz-adv-x="645" 
d="M322 -16q-71 0 -120 18t-80.5 54t-45.5 90.5t-14 128.5v428h92v-417q0 -62 8.5 -104t28 -67.5t52 -36.5t79.5 -11q48 0 80 11t52 36.5t28.5 67.5t8.5 104v417h92v-428q0 -74 -14 -128.5t-45.5 -90.5t-81 -54t-120.5 -18zM137 775q0 58 28 88t77 30q25 0 43.5 -8.5
t34.5 -18t31 -18t33 -8.5q26 0 36 14t10 37h66q0 -60 -28 -89t-77 -29q-25 0 -43.5 8.5t-34.5 18t-31 18t-33 8.5q-26 0 -36 -14t-10 -37h-66z" />
    <glyph glyph-name="utilde" unicode="&#x169;" horiz-adv-x="528" 
d="M52 500h89v-313q0 -36 7.5 -59.5t21 -37.5t32.5 -19.5t42 -5.5q40 0 67 17t44 45.5t24.5 64.5t7.5 74v234h89v-500h-82l-4 67q-6 -12 -19 -26t-33 -26t-47 -20t-62 -8q-86 0 -131.5 50t-45.5 137v326zM92 581q0 58 27 87.5t75 29.5q24 0 42.5 -8t34.5 -18t31.5 -18
t32.5 -8q24 0 34 13t10 36h64q0 -58 -27 -87.5t-75 -29.5q-24 0 -42.5 8.5t-34.5 18t-31 18t-32 8.5q-25 0 -35 -13.5t-10 -36.5h-64z" />
    <glyph glyph-name="Umacron" unicode="&#x16a;" horiz-adv-x="645" 
d="M322 -16q-71 0 -120 18t-80.5 54t-45.5 90.5t-14 128.5v428h92v-417q0 -62 8.5 -104t28 -67.5t52 -36.5t79.5 -11q48 0 80 11t52 36.5t28.5 67.5t8.5 104v417h92v-428q0 -74 -14 -128.5t-45.5 -90.5t-81 -54t-120.5 -18zM165 793v77h314v-77h-314z" />
    <glyph glyph-name="umacron" unicode="&#x16b;" horiz-adv-x="528" 
d="M52 500h89v-313q0 -36 7.5 -59.5t21 -37.5t32.5 -19.5t42 -5.5q40 0 67 17t44 45.5t24.5 64.5t7.5 74v234h89v-500h-82l-4 67q-6 -12 -19 -26t-33 -26t-47 -20t-62 -8q-86 0 -131.5 50t-45.5 137v326zM120 600v72h290v-72h-290z" />
    <glyph glyph-name="Ubreve" unicode="&#x16c;" horiz-adv-x="645" 
d="M322 -16q-71 0 -120 18t-80.5 54t-45.5 90.5t-14 128.5v428h92v-417q0 -62 8.5 -104t28 -67.5t52 -36.5t79.5 -11q48 0 80 11t52 36.5t28.5 67.5t8.5 104v417h92v-428q0 -74 -14 -128.5t-45.5 -90.5t-81 -54t-120.5 -18zM323 825q41 0 59.5 21t18.5 52h75
q0 -27 -9.5 -52.5t-28 -45t-47.5 -31t-68 -11.5t-68 11.5t-48 31t-28.5 45t-9.5 52.5h76q0 -31 18.5 -52t59.5 -21z" />
    <glyph glyph-name="ubreve" unicode="&#x16d;" horiz-adv-x="528" 
d="M52 500h89v-313q0 -36 7.5 -59.5t21 -37.5t32.5 -19.5t42 -5.5q40 0 67 17t44 45.5t24.5 64.5t7.5 74v234h89v-500h-82l-4 67q-6 -12 -19 -26t-33 -26t-47 -20t-62 -8q-86 0 -131.5 50t-45.5 137v326zM265 638q38 0 56 20.5t18 49.5h72q0 -26 -9 -50.5t-27 -43
t-45.5 -29.5t-64.5 -11t-64.5 11t-46 29.5t-27.5 43t-9 50.5h73q0 -29 18 -49.5t56 -20.5z" />
    <glyph glyph-name="Uring" unicode="&#x16e;" horiz-adv-x="645" 
d="M322 -16q-71 0 -120 18t-80.5 54t-45.5 90.5t-14 128.5v428h92v-417q0 -62 8.5 -104t28 -67.5t52 -36.5t79.5 -11q48 0 80 11t52 36.5t28.5 67.5t8.5 104v417h92v-428q0 -74 -14 -128.5t-45.5 -90.5t-81 -54t-120.5 -18zM435 826q0 -24 -9 -44t-24 -35t-35.5 -23
t-43.5 -8q-24 0 -44.5 8t-36 22.5t-24.5 34.5t-9 44t9 44t24.5 35t36 23t43.5 8q48 0 80.5 -30.5t32.5 -78.5zM377 825q0 23 -16 39t-39 16t-38.5 -16t-15.5 -39t15.5 -39.5t38.5 -16.5t39 16.5t16 39.5z" />
    <glyph glyph-name="uring" unicode="&#x16f;" horiz-adv-x="528" 
d="M52 500h89v-313q0 -36 7.5 -59.5t21 -37.5t32.5 -19.5t42 -5.5q40 0 67 17t44 45.5t24.5 64.5t7.5 74v234h89v-500h-82l-4 67q-6 -12 -19 -26t-33 -26t-47 -20t-62 -8q-86 0 -131.5 50t-45.5 137v326zM375 677q0 -23 -8.5 -43t-23.5 -34t-35 -22t-42 -8q-23 0 -43 8
t-35 22t-24 33.5t-9 42.5t8.5 42.5t23.5 34t35 22.5t43 8t43 -8t35 -22t23.5 -33.5t8.5 -42.5zM318 676q0 23 -15.5 38t-37.5 15t-37 -15t-15 -38t15 -38.5t37 -15.5t37.5 15.5t15.5 38.5z" />
    <glyph glyph-name="Uhungarumlaut" unicode="&#x170;" horiz-adv-x="645" 
d="M322 -16q-71 0 -120 18t-80.5 54t-45.5 90.5t-14 128.5v428h92v-417q0 -62 8.5 -104t28 -67.5t52 -36.5t79.5 -11q48 0 80 11t52 36.5t28.5 67.5t8.5 104v417h92v-428q0 -74 -14 -128.5t-45.5 -90.5t-81 -54t-120.5 -18zM364 803l154 144l55 -60l-167 -131zM165 803
l154 144l55 -60l-167 -131z" />
    <glyph glyph-name="uhungarumlaut" unicode="&#x171;" horiz-adv-x="528" 
d="M52 500h89v-313q0 -36 7.5 -59.5t21 -37.5t32.5 -19.5t42 -5.5q40 0 67 17t44 45.5t24.5 64.5t7.5 74v234h89v-500h-82l-4 67q-6 -12 -19 -26t-33 -26t-47 -20t-62 -8q-86 0 -131.5 50t-45.5 137v326zM297 614l148 138l54 -59l-161 -125zM108 614l148 138l54 -59
l-161 -125z" />
    <glyph glyph-name="Uogonek" unicode="&#x172;" horiz-adv-x="645" 
d="M436 -184q-5 -1 -14.5 -1.5t-17.5 -0.5q-64 0 -90.5 21.5t-26.5 60.5q0 44 48 88h-13q-71 0 -120 18t-80.5 54t-45.5 90.5t-14 128.5v428h92v-417q0 -62 8.5 -104t28 -67.5t52 -36.5t79.5 -11q48 0 80 11t52 36.5t28.5 67.5t8.5 104v417h92v-428q0 -115 -35.5 -183.5
t-116.5 -93.5q-63 -45 -63 -86q0 -21 12.5 -28t30.5 -7h13t12 1v-62z" />
    <glyph glyph-name="uogonek" unicode="&#x173;" horiz-adv-x="528" 
d="M52 500h89v-313q0 -36 7.5 -59.5t21 -37.5t32.5 -19.5t42 -5.5q40 0 67 17t44 45.5t24.5 64.5t7.5 74v234h89v-500q-63 -47 -63 -86q0 -20 12.5 -27t29.5 -7h11.5t13.5 1v-59q-7 -1 -15.5 -1.5t-16.5 -0.5q-63 0 -88 20.5t-25 58.5q0 52 67 101h-8l-4 67q-6 -12 -19 -26
t-33 -26t-47 -20t-62 -8q-86 0 -131.5 50t-45.5 137v326z" />
    <glyph glyph-name="Wcircumflex" unicode="&#x174;" horiz-adv-x="810" 
d="M587 126l123 577h90l-162 -703h-106l-126 551l-127 -551h-107l-162 703h99l120 -576l129 560h104zM228 803l138 110h83l138 -110l-38 -47l-142 90l-141 -90z" />
    <glyph glyph-name="wcircumflex" unicode="&#x175;" horiz-adv-x="687" 
d="M8 500h94l105 -405l95 388h91l94 -388l103 405h89l-147 -500h-97l-90 371l-93 -371h-97zM187 618l123 113h75l123 -113l-46 -44l-115 89l-114 -89z" />
    <glyph glyph-name="Ycircumflex" unicode="&#x176;" horiz-adv-x="551" 
d="M229 318l-224 385h102l173 -302l171 302h95l-225 -385v-318h-92v318zM96 803l138 110h83l138 -110l-38 -47l-142 90l-141 -90z" />
    <glyph glyph-name="ycircumflex" unicode="&#x177;" horiz-adv-x="494" 
d="M96 -220l104 248l-194 472h100l142 -365l146 365h94l-301 -720h-91zM86 618l123 113h75l123 -113l-46 -44l-115 89l-114 -89z" />
    <glyph glyph-name="Zacute" unicode="&#x179;" horiz-adv-x="552" 
d="M136 83h389v-83h-499v75l381 545h-364v83h473v-76zM143 821l243 105l33 -81l-248 -89z" />
    <glyph glyph-name="zacute" unicode="&#x17a;" horiz-adv-x="465" 
d="M32 71l292 354h-283v75h389v-72l-291 -353h294v-75h-401v71zM135 632l216 117l39 -79l-223 -102z" />
    <glyph glyph-name="Zdotaccent" unicode="&#x17b;" horiz-adv-x="552" 
d="M136 83h389v-83h-499v75l381 545h-364v83h473v-76zM334 837q0 -29 -16.5 -47t-45.5 -18t-45.5 18.5t-16.5 46.5t16.5 46.5t45.5 18.5t45.5 -18t16.5 -47z" />
    <glyph glyph-name="zdotaccent" unicode="&#x17c;" horiz-adv-x="465" 
d="M32 71l292 354h-283v75h389v-72l-291 -353h294v-75h-401v71zM291 650q0 -27 -15.5 -44.5t-42.5 -17.5t-42.5 18t-15.5 44t15.5 43.5t42.5 17.5t42.5 -17t15.5 -44z" />
    <glyph glyph-name="Zcaron" unicode="&#x17d;" horiz-adv-x="552" 
d="M136 83h389v-83h-499v75l381 545h-364v83h473v-76zM451 866l-138 -110h-83l-138 110l38 47l142 -90l141 90z" />
    <glyph glyph-name="zcaron" unicode="&#x17e;" horiz-adv-x="465" 
d="M32 71l292 354h-283v75h389v-72l-291 -353h294v-75h-401v71zM119 731l114 -89l115 89l46 -44l-123 -113h-75l-123 113z" />
    <glyph glyph-name="longs" unicode="&#x17f;" horiz-adv-x="193" 
d="M52 557q0 45 11 83t34 65t60 42.5t88 15.5q34 0 59 -4.5t32 -6.5l-10 -68q-5 1 -24.5 3t-40.5 2q-57 0 -88.5 -30.5t-31.5 -108.5v-550h-89v557z" />
    <glyph glyph-name="Scommaaccent" unicode="&#x218;" horiz-adv-x="535" 
d="M212 324q-80 22 -128.5 67.5t-48.5 124.5q0 42 15 78.5t44.5 64.5t73 44t99.5 16q69 0 124.5 -16.5t87.5 -37.5l-34 -71q-10 6 -29 13t-43 14t-52 11.5t-56 4.5q-67 0 -103 -31t-36 -81q0 -44 27.5 -71t91.5 -45l82 -23q88 -25 133 -70.5t45 -128.5q0 -45 -16 -82.5
t-47 -64.5t-75.5 -41.5t-101.5 -14.5q-50 0 -91 8t-72 18.5t-51 21.5t-28 16l39 72q13 -8 33 -17.5t46.5 -17t57.5 -12.5t66 -5q75 0 110 31.5t35 81.5q0 18 -5 35.5t-18 33t-35.5 28.5t-57.5 23zM326 -105q0 -25 -10 -49.5t-22.5 -45t-24.5 -34t-15 -16.5l-41 27
q2 3 7.5 11t11.5 18.5t11 21.5t7 20q-14 6 -26 20.5t-12 31.5q0 24 15.5 39t41.5 15q23 0 40 -15.5t17 -43.5z" />
    <glyph glyph-name="scommaaccent" unicode="&#x219;" horiz-adv-x="449" 
d="M48 108q25 -13 69 -29t104 -16q33 0 54.5 5.5t34 15t18 22t5.5 27.5q0 27 -20.5 45.5t-71.5 28.5l-61 12q-32 6 -59.5 17t-47.5 28.5t-31.5 41.5t-11.5 57q0 68 53 109t142 41q58 0 104 -14t75 -31l-28 -66q-7 4 -22.5 10t-36 11.5t-44.5 9.5t-48 4q-55 0 -81 -19
t-26 -51q0 -27 18.5 -43t73.5 -26l62 -12q72 -14 112 -46t40 -99q0 -70 -52.5 -112t-149.5 -42q-71 0 -123.5 18t-82.5 38zM281 -105q0 -25 -9.5 -49.5t-22 -45t-23.5 -34t-14 -16.5l-41 27q2 3 7 11t11 18.5t11.5 21.5t7.5 20q-14 6 -25.5 20.5t-11.5 31.5q0 24 15 39
t40 15q23 0 39 -15.5t16 -43.5z" />
    <glyph glyph-name="uni021A" unicode="&#x21a;" horiz-adv-x="548" 
d="M228 620h-213v83h518v-83h-213v-620h-92v620zM332 -105q0 -25 -10 -49.5t-22.5 -45t-24.5 -34t-15 -16.5l-41 27q2 3 7.5 11t11.5 18.5t11 21.5t7 20q-14 6 -26 20.5t-12 31.5q0 24 15.5 39t41.5 15q23 0 40 -15.5t17 -43.5z" />
    <glyph glyph-name="uni021B" unicode="&#x21b;" horiz-adv-x="368" 
d="M8 500h100v138l89 24v-162h149v-75h-149v-270q0 -30 7.5 -48t21 -27.5t32 -13t41.5 -3.5t37.5 2t19.5 3l7 -67q-13 -3 -36.5 -6t-52.5 -3q-86 0 -126 37.5t-40 115.5v280h-100v75zM281 -105q0 -25 -9.5 -49.5t-22 -45t-23.5 -34t-14 -16.5l-41 27q2 3 7 11t11 18.5
t11.5 21.5t7.5 20q-14 6 -25.5 20.5t-11.5 31.5q0 24 15 39t40 15q23 0 39 -15.5t16 -43.5z" />
    <glyph glyph-name="dotlessj" unicode="&#x237;" horiz-adv-x="203" 
d="M57 500h89v-528q0 -106 -45.5 -155t-139.5 -49q-37 0 -79 12l9 69q19 -5 35 -6.5t30 -1.5q30 0 49.5 8t31 26t16 46t4.5 69v510z" />
    <glyph glyph-name="apostrophe" unicode="&#x2bc;" horiz-adv-x="234" 
d="M177 698q0 -30 -14 -64t-32 -64t-34.5 -52t-21.5 -28l-46 32q6 8 15 23t19 33t18 36.5t12 32.5q-14 8 -23.5 21.5t-9.5 33.5q0 28 16 44.5t43 16.5q25 0 41.5 -17.5t16.5 -47.5z" />
    <glyph glyph-name="caron" unicode="&#x2c7;" horiz-adv-x="469" 
d="M120 731l114 -89l115 89l46 -44l-123 -113h-75l-123 113z" />
    <glyph glyph-name="uni02C9" unicode="&#x2c9;" horiz-adv-x="469" 
d="M90 600v72h290v-72h-290z" />
    <glyph glyph-name="breve" unicode="&#x2d8;" horiz-adv-x="469" 
d="M235 638q38 0 56 20.5t18 49.5h72q0 -26 -9 -50.5t-27 -43t-45.5 -29.5t-64.5 -11t-64.5 11t-46 29.5t-27.5 43t-9 50.5h73q0 -29 18 -49.5t56 -20.5z" />
    <glyph glyph-name="dotaccent" unicode="&#x2d9;" horiz-adv-x="469" 
d="M292 650q0 -27 -15.5 -44.5t-42.5 -17.5t-42.5 18t-15.5 44t15.5 43.5t42.5 17.5t42.5 -17t15.5 -44z" />
    <glyph glyph-name="ring" unicode="&#x2da;" horiz-adv-x="469" 
d="M345 677q0 -23 -8.5 -43t-23.5 -34t-35 -22t-42 -8q-23 0 -43 8t-35 22t-24 33.5t-9 42.5t8.5 42.5t23.5 34t35 22.5t43 8t43 -8t35 -22t23.5 -33.5t8.5 -42.5zM288 676q0 23 -15.5 38t-37.5 15t-37 -15t-15 -38t15 -38.5t37 -15.5t37.5 15.5t15.5 38.5z" />
    <glyph glyph-name="ogonek" unicode="&#x2db;" horiz-adv-x="469" 
d="M307 -178q-7 -1 -15.5 -1.5t-16.5 -0.5q-63 0 -88 20.5t-25 58.5q0 52 67 101h74q-63 -47 -63 -86q0 -20 12.5 -27t29.5 -7h11.5t13.5 1v-59z" />
    <glyph glyph-name="hungarumlaut" unicode="&#x2dd;" horiz-adv-x="469" 
d="M228 614l148 138l54 -59l-161 -125zM39 614l148 138l54 -59l-161 -125z" />
    <glyph glyph-name="Wgrave" unicode="&#x1e80;" horiz-adv-x="810" 
d="M587 126l123 577h90l-162 -703h-106l-126 551l-127 -551h-107l-162 703h99l120 -576l129 560h104zM487 756l-248 89l33 81l243 -105z" />
    <glyph glyph-name="wgrave" unicode="&#x1e81;" horiz-adv-x="687" 
d="M8 500h94l105 -405l95 388h91l94 -388l103 405h89l-147 -500h-97l-90 371l-93 -371h-97zM417 568l-223 102l39 79l216 -117z" />
    <glyph glyph-name="Wacute" unicode="&#x1e82;" horiz-adv-x="810" 
d="M587 126l123 577h90l-162 -703h-106l-126 551l-127 -551h-107l-162 703h99l120 -576l129 560h104zM278 821l243 105l33 -81l-248 -89z" />
    <glyph glyph-name="wacute" unicode="&#x1e83;" horiz-adv-x="687" 
d="M8 500h94l105 -405l95 388h91l94 -388l103 405h89l-147 -500h-97l-90 371l-93 -371h-97zM224 632l216 117l39 -79l-223 -102z" />
    <glyph glyph-name="Wdieresis" unicode="&#x1e84;" horiz-adv-x="810" 
d="M587 126l123 577h90l-162 -703h-106l-126 551l-127 -551h-107l-162 703h99l120 -576l129 560h104zM570 837q0 -28 -16 -45.5t-44 -17.5t-44 18t-16 45t16 45t44 18t44 -17.5t16 -45.5zM365 837q0 -28 -16 -45.5t-44 -17.5t-44 18t-16 45t16 45t44 18t44 -17.5t16 -45.5z
" />
    <glyph glyph-name="wdieresis" unicode="&#x1e85;" horiz-adv-x="687" 
d="M8 500h94l105 -405l95 388h91l94 -388l103 405h89l-147 -500h-97l-90 371l-93 -371h-97zM501 650q0 -26 -15.5 -43t-41.5 -17t-41.5 17t-15.5 43t15.5 43t41.5 17t41.5 -17t15.5 -43zM308 650q0 -26 -15.5 -43t-41.5 -17t-41.5 17t-15.5 43t15.5 43t41.5 17t41.5 -17
t15.5 -43z" />
    <glyph glyph-name="Ygrave" unicode="&#x1ef2;" horiz-adv-x="551" 
d="M229 318l-224 385h102l173 -302l171 302h95l-225 -385v-318h-92v318zM375 756l-248 89l33 81l243 -105z" />
    <glyph glyph-name="ygrave" unicode="&#x1ef3;" horiz-adv-x="494" 
d="M96 -220l104 248l-194 472h100l142 -365l146 365h94l-301 -720h-91zM324 568l-223 102l39 79l216 -117z" />
    <glyph glyph-name="fraction" unicode="&#x2044;" horiz-adv-x="52" 
d="M172 703h89l-381 -703h-89z" />
    <glyph glyph-name="zerosuperior" unicode="&#x2070;" horiz-adv-x="370" 
d="M28 510q0 97 39 148.5t118 51.5q78 0 117.5 -51.5t39.5 -148.5t-39.5 -148t-117.5 -51q-157 0 -157 199zM105 510q0 -134 80 -134q39 0 59.5 34t20.5 100q0 134 -80 134t-80 -134z" />
    <glyph glyph-name="foursuperior" unicode="&#x2074;" horiz-adv-x="370" 
d="M282 545v-77h52v-63h-52v-86h-68v86h-179v54l161 244h78l-157 -235h97v77h68z" />
    <glyph glyph-name="fivesuperior" unicode="&#x2075;" horiz-adv-x="370" 
d="M149 376q42 0 67.5 17.5t25.5 51.5q0 11 -3.5 22t-12 20t-23 14.5t-36.5 5.5q-23 0 -41 -6.5t-26 -11.5l-40 25l25 189h218v-64h-165l-9 -75q9 2 23 3.5t30 1.5q29 0 54 -7.5t43 -22.5t28 -38.5t10 -55.5q0 -28 -10.5 -52.5t-31.5 -42.5t-52 -28.5t-71 -10.5q-37 0 -68 5
t-51 13l17 59q14 -4 39 -8t60 -4z" />
    <glyph glyph-name="sixsuperior" unicode="&#x2076;" horiz-adv-x="370" 
d="M223 648q-96 0 -107 -104q8 11 32 22.5t56 11.5q25 0 48.5 -7.5t41.5 -23t28.5 -40t10.5 -58.5q0 -66 -39 -102t-104 -36q-69 0 -108.5 43t-39.5 134q0 114 47.5 168t131.5 54q37 0 61.5 -8t29.5 -11l-19 -56q-6 2 -25 7.5t-45 5.5zM189 370q42 0 59.5 20.5t17.5 52.5
q0 39 -19.5 57t-54.5 18q-37 0 -59 -19.5t-22 -49.5t18.5 -54.5t59.5 -24.5z" />
    <glyph glyph-name="sevensuperior" unicode="&#x2077;" horiz-adv-x="370" 
d="M82 319l152 318h-196v66h278v-54l-158 -330h-76z" />
    <glyph glyph-name="eightsuperior" unicode="&#x2078;" horiz-adv-x="370" 
d="M327 608q0 -31 -17 -52t-43 -35q72 -34 72 -99q0 -52 -42 -81.5t-112 -29.5q-71 0 -112.5 28.5t-41.5 75.5q0 38 21 61.5t53 38.5q-30 18 -45.5 39.5t-15.5 51.5q0 44 37 74t104 30q71 0 106.5 -29t35.5 -73zM265 425q0 25 -25.5 40.5t-60.5 26.5q-35 -11 -55 -28
t-20 -42q0 -20 19.5 -36.5t61.5 -16.5q40 0 60 15t20 41zM256 602q0 22 -18 36.5t-53 14.5t-53 -15.5t-18 -35.5q0 -21 24 -36t55 -23q63 20 63 59z" />
    <glyph glyph-name="ninesuperior" unicode="&#x2079;" horiz-adv-x="370" 
d="M147 374q96 0 107 103q-8 -11 -32 -22.5t-56 -11.5q-26 0 -49 7.5t-41 23t-28.5 40t-10.5 58.5q0 66 39.5 102t104.5 36q69 0 108 -43t39 -134q0 -114 -47.5 -168t-131.5 -54q-37 0 -60.5 5.5t-31.5 8.5l15 59q6 -2 27.5 -6t47.5 -4zM181 651q-42 0 -59.5 -20.5
t-17.5 -52.5q0 -39 19.5 -57t54.5 -18q37 0 59 19.5t22 49.5t-18.5 54.5t-59.5 24.5z" />
    <glyph glyph-name="zeroinferior" unicode="&#x2080;" horiz-adv-x="370" 
d="M28 192q0 97 39 148.5t118 51.5q78 0 117.5 -51.5t39.5 -148.5t-39.5 -148t-117.5 -51q-157 0 -157 199zM105 192q0 -134 80 -134q39 0 59.5 34t20.5 100q0 134 -80 134t-80 -134z" />
    <glyph glyph-name="oneinferior" unicode="&#x2081;" horiz-adv-x="370" 
d="M172 301l-94 -52l-32 59l145 77h56v-384h-75v300z" />
    <glyph glyph-name="twoinferior" unicode="&#x2082;" horiz-adv-x="370" 
d="M160 198q36 23 56 42t20 42q0 19 -15.5 32.5t-47.5 13.5q-17 0 -32.5 -5.5t-28 -13t-22 -16t-14.5 -14.5l-45 43q7 9 20.5 21.5t31.5 23t41 18t50 7.5q36 0 61.5 -9t42.5 -24t25 -34.5t8 -40.5q0 -23 -8.5 -42t-23 -34.5t-32.5 -29.5t-37 -26q-40 -26 -61.5 -44.5
t-28.5 -41.5h196v-65h-277v20q0 30 7.5 54.5t22.5 45.5t38 39.5t53 37.5z" />
    <glyph glyph-name="threeinferior" unicode="&#x2083;" horiz-adv-x="370" 
d="M107 229h45q42 0 60 15t18 37q0 20 -14.5 34t-46.5 14q-34 0 -61 -13.5t-39 -23.5l-36 47q7 7 20.5 16.5t31 17.5t39 13.5t46.5 5.5q70 0 102.5 -31t32.5 -73q0 -30 -18 -52t-43 -34q30 -10 49 -33.5t19 -55.5q0 -59 -45.5 -89.5t-114.5 -30.5q-38 0 -68.5 5t-50.5 11
l17 62q14 -5 38.5 -9.5t59.5 -4.5q89 0 89 56q0 23 -18.5 37.5t-64.5 14.5h-47v64z" />
    <glyph glyph-name="fourinferior" unicode="&#x2084;" horiz-adv-x="370" 
d="M282 227v-77h52v-63h-52v-86h-68v86h-179v54l161 244h78l-157 -235h97v77h68z" />
    <glyph glyph-name="fiveinferior" unicode="&#x2085;" horiz-adv-x="370" 
d="M149 58q42 0 67.5 17.5t25.5 51.5q0 11 -3.5 22t-12 20t-23 14.5t-36.5 5.5q-23 0 -41 -6.5t-26 -11.5l-40 25l25 189h218v-64h-165l-9 -75q9 2 23 3.5t30 1.5q29 0 54 -7.5t43 -22.5t28 -38.5t10 -55.5q0 -28 -10.5 -52.5t-31.5 -42.5t-52 -28.5t-71 -10.5q-37 0 -68 5
t-51 13l17 59q14 -4 39 -8t60 -4z" />
    <glyph glyph-name="sixinferior" unicode="&#x2086;" horiz-adv-x="370" 
d="M223 330q-96 0 -107 -104q8 11 32 22.5t56 11.5q25 0 48.5 -7.5t41.5 -23t28.5 -40t10.5 -58.5q0 -66 -39 -102t-104 -36q-69 0 -108.5 43t-39.5 134q0 114 47.5 168t131.5 54q37 0 61.5 -8t29.5 -11l-19 -56q-6 2 -25 7.5t-45 5.5zM189 52q42 0 59.5 20.5t17.5 52.5
q0 39 -19.5 57t-54.5 18q-37 0 -59 -19.5t-22 -49.5t18.5 -54.5t59.5 -24.5z" />
    <glyph glyph-name="seveninferior" unicode="&#x2087;" horiz-adv-x="370" 
d="M82 1l152 318h-196v66h278v-54l-158 -330h-76z" />
    <glyph glyph-name="eightinferior" unicode="&#x2088;" horiz-adv-x="370" 
d="M327 290q0 -31 -17 -52t-43 -35q72 -34 72 -99q0 -52 -42 -81.5t-112 -29.5q-71 0 -112.5 28.5t-41.5 75.5q0 38 21 61.5t53 38.5q-30 18 -45.5 39.5t-15.5 51.5q0 44 37 74t104 30q71 0 106.5 -29t35.5 -73zM265 107q0 25 -25.5 40.5t-60.5 26.5q-35 -11 -55 -28
t-20 -42q0 -20 19.5 -36.5t61.5 -16.5q40 0 60 15t20 41zM256 284q0 22 -18 36.5t-53 14.5t-53 -15.5t-18 -35.5q0 -21 24 -36t55 -23q63 20 63 59z" />
    <glyph glyph-name="nineinferior" unicode="&#x2089;" horiz-adv-x="370" 
d="M147 56q96 0 107 103q-8 -11 -32 -22.5t-56 -11.5q-26 0 -49 7.5t-41 23t-28.5 40t-10.5 58.5q0 66 39.5 102t104.5 36q69 0 108 -43t39 -134q0 -114 -47.5 -168t-131.5 -54q-37 0 -60.5 5.5t-31.5 8.5l15 59q6 -2 27.5 -6t47.5 -4zM181 333q-42 0 -59.5 -20.5
t-17.5 -52.5q0 -39 19.5 -57t54.5 -18q37 0 59 19.5t22 49.5t-18.5 54.5t-59.5 24.5z" />
    <glyph glyph-name="afii61289" unicode="&#x2113;" horiz-adv-x="434" 
d="M415 77q-27 -40 -65.5 -63t-90.5 -23q-70 0 -108 39.5t-38 127.5q-13 -10 -24.5 -18t-24.5 -17q-5 11 -11.5 22t-13.5 22q19 13 37 27.5t36 30.5v212q0 71 9.5 119.5t28 78t45 42.5t61.5 13q51 0 84 -37.5t33 -106.5q0 -91 -48 -172.5t-136 -163.5v-20q0 -41 6 -66.5
t16.5 -39.5t25 -19.5t31.5 -5.5q32 0 61.5 16.5t45.5 39.5zM189 289q54 60 85.5 123.5t31.5 132.5q0 48 -16 67.5t-38 19.5q-26 0 -44.5 -33t-18.5 -109v-201z" />
    <glyph glyph-name="estimated" unicode="&#x212e;" horiz-adv-x="860" 
d="M176 138q0 -13 9 -22q48 -51 110 -79t135 -28q79 0 145 32.5t114 86.5h57q-26 -32 -60.5 -57.5t-75.5 -43.5t-87 -28t-94 -10q-83 0 -156 28.5t-127 77t-85.5 114t-31.5 140.5t31.5 140.5t85.5 114.5t127 77.5t156 28.5t156.5 -28.5t128 -77.5t86 -114.5t31.5 -140.5v-10
h-650q-5 0 -5 -4v-197zM679 358q4 0 4 7v197q0 13 -9 24q-48 48 -110 75t-134 27q-71 0 -134 -29t-110 -77q-5 -4 -7.5 -10.5t-2.5 -13.5v-193q0 -7 5 -7h498z" />
    <glyph glyph-name="onethird" unicode="&#x2153;" horiz-adv-x="880" 
d="M160 619l-94 -52l-32 59l145 77h56v-384h-75v300zM556 703h89l-381 -703h-89zM578 229h45q42 0 60 15t18 37q0 20 -14.5 34t-46.5 14q-34 0 -61 -13.5t-39 -23.5l-36 47q7 7 20.5 16.5t31 17.5t39 13.5t46.5 5.5q70 0 102.5 -31t32.5 -73q0 -30 -18 -52t-43 -34
q30 -10 49 -33.5t19 -55.5q0 -59 -45.5 -89.5t-114.5 -30.5q-38 0 -68.5 5t-50.5 11l17 62q14 -5 38.5 -9.5t59.5 -4.5q89 0 89 56q0 23 -18.5 37.5t-64.5 14.5h-47v64z" />
    <glyph glyph-name="twothirds" unicode="&#x2154;" horiz-adv-x="880" 
d="M196 516q36 23 56 42t20 42q0 19 -15.5 32.5t-47.5 13.5q-17 0 -32.5 -5.5t-28 -13t-22 -16t-14.5 -14.5l-45 43q7 9 20.5 21.5t31.5 23t41 18t50 7.5q36 0 61.5 -9t42.5 -24t25 -34.5t8 -40.5q0 -23 -8.5 -42t-23 -34.5t-32.5 -29.5t-37 -26q-40 -26 -61.5 -44.5
t-28.5 -41.5h196v-65h-277v20q0 30 7.5 54.5t22.5 45.5t38 39.5t53 37.5zM586 703h89l-381 -703h-89zM608 229h45q42 0 60 15t18 37q0 20 -14.5 34t-46.5 14q-34 0 -61 -13.5t-39 -23.5l-36 47q7 7 20.5 16.5t31 17.5t39 13.5t46.5 5.5q70 0 102.5 -31t32.5 -73
q0 -30 -18 -52t-43 -34q30 -10 49 -33.5t19 -55.5q0 -59 -45.5 -89.5t-114.5 -30.5q-38 0 -68.5 5t-50.5 11l17 62q14 -5 38.5 -9.5t59.5 -4.5q89 0 89 56q0 23 -18.5 37.5t-64.5 14.5h-47v64z" />
    <glyph glyph-name="oneeighth" unicode="&#x215b;" horiz-adv-x="880" 
d="M160 619l-94 -52l-32 59l145 77h56v-384h-75v300zM556 703h89l-381 -703h-89zM798 290q0 -31 -17 -52t-43 -35q72 -34 72 -99q0 -52 -42 -81.5t-112 -29.5q-71 0 -112.5 28.5t-41.5 75.5q0 38 21 61.5t53 38.5q-30 18 -45.5 39.5t-15.5 51.5q0 44 37 74t104 30
q71 0 106.5 -29t35.5 -73zM736 107q0 25 -25.5 40.5t-60.5 26.5q-35 -11 -55 -28t-20 -42q0 -20 19.5 -36.5t61.5 -16.5q40 0 60 15t20 41zM727 284q0 22 -18 36.5t-53 14.5t-53 -15.5t-18 -35.5q0 -21 24 -36t55 -23q63 20 63 59z" />
    <glyph glyph-name="threeeighths" unicode="&#x215c;" horiz-adv-x="880" 
d="M116 547h45q42 0 60 15t18 37q0 20 -14.5 34t-46.5 14q-34 0 -61 -13.5t-39 -23.5l-36 47q7 7 20.5 16.5t31 17.5t39 13.5t46.5 5.5q70 0 102.5 -31t32.5 -73q0 -30 -18 -52t-43 -34q30 -10 49 -33.5t19 -55.5q0 -59 -45.5 -89.5t-114.5 -30.5q-38 0 -68.5 5t-50.5 11
l17 62q14 -5 38.5 -9.5t59.5 -4.5q89 0 89 56q0 23 -18.5 37.5t-64.5 14.5h-47v64zM586 703h89l-381 -703h-89zM828 290q0 -31 -17 -52t-43 -35q72 -34 72 -99q0 -52 -42 -81.5t-112 -29.5q-71 0 -112.5 28.5t-41.5 75.5q0 38 21 61.5t53 38.5q-30 18 -45.5 39.5t-15.5 51.5
q0 44 37 74t104 30q71 0 106.5 -29t35.5 -73zM766 107q0 25 -25.5 40.5t-60.5 26.5q-35 -11 -55 -28t-20 -42q0 -20 19.5 -36.5t61.5 -16.5q40 0 60 15t20 41zM757 284q0 22 -18 36.5t-53 14.5t-53 -15.5t-18 -35.5q0 -21 24 -36t55 -23q63 20 63 59z" />
    <glyph glyph-name="fiveeighths" unicode="&#x215d;" horiz-adv-x="880" 
d="M157 376q42 0 67.5 17.5t25.5 51.5q0 11 -3.5 22t-12 20t-23 14.5t-36.5 5.5q-23 0 -41 -6.5t-26 -11.5l-40 25l25 189h218v-64h-165l-9 -75q9 2 23 3.5t30 1.5q29 0 54 -7.5t43 -22.5t28 -38.5t10 -55.5q0 -28 -10.5 -52.5t-31.5 -42.5t-52 -28.5t-71 -10.5q-37 0 -68 5
t-51 13l17 59q14 -4 39 -8t60 -4zM586 703h89l-381 -703h-89zM828 290q0 -31 -17 -52t-43 -35q72 -34 72 -99q0 -52 -42 -81.5t-112 -29.5q-71 0 -112.5 28.5t-41.5 75.5q0 38 21 61.5t53 38.5q-30 18 -45.5 39.5t-15.5 51.5q0 44 37 74t104 30q71 0 106.5 -29t35.5 -73z
M766 107q0 25 -25.5 40.5t-60.5 26.5q-35 -11 -55 -28t-20 -42q0 -20 19.5 -36.5t61.5 -16.5q40 0 60 15t20 41zM757 284q0 22 -18 36.5t-53 14.5t-53 -15.5t-18 -35.5q0 -21 24 -36t55 -23q63 20 63 59z" />
    <glyph glyph-name="seveneighths" unicode="&#x215e;" horiz-adv-x="880" 
d="M91 319l152 318h-196v66h278v-54l-158 -330h-76zM546 703h89l-381 -703h-89zM798 290q0 -31 -17 -52t-43 -35q72 -34 72 -99q0 -52 -42 -81.5t-112 -29.5q-71 0 -112.5 28.5t-41.5 75.5q0 38 21 61.5t53 38.5q-30 18 -45.5 39.5t-15.5 51.5q0 44 37 74t104 30
q71 0 106.5 -29t35.5 -73zM736 107q0 25 -25.5 40.5t-60.5 26.5q-35 -11 -55 -28t-20 -42q0 -20 19.5 -36.5t61.5 -16.5q40 0 60 15t20 41zM727 284q0 22 -18 36.5t-53 14.5t-53 -15.5t-18 -35.5q0 -21 24 -36t55 -23q63 20 63 59z" />
    <glyph glyph-name="onefifth" unicode="&#x2155;" horiz-adv-x="880" 
d="M160 619l-94 -52l-32 59l145 77h56v-384h-75v300zM556 703h89l-381 -703h-89zM619 58q42 0 67.5 17.5t25.5 51.5q0 11 -3.5 22t-12 20t-23 14.5t-36.5 5.5q-23 0 -41 -6.5t-26 -11.5l-40 25l25 189h218v-64h-165l-9 -75q9 2 23 3.5t30 1.5q29 0 54 -7.5t43 -22.5
t28 -38.5t10 -55.5q0 -28 -10.5 -52.5t-31.5 -42.5t-52 -28.5t-71 -10.5q-37 0 -68 5t-51 13l17 59q14 -4 39 -8t60 -4z" />
    <glyph glyph-name="twofifths" unicode="&#x2156;" horiz-adv-x="880" 
d="M196 516q36 23 56 42t20 42q0 19 -15.5 32.5t-47.5 13.5q-17 0 -32.5 -5.5t-28 -13t-22 -16t-14.5 -14.5l-45 43q7 9 20.5 21.5t31.5 23t41 18t50 7.5q36 0 61.5 -9t42.5 -24t25 -34.5t8 -40.5q0 -23 -8.5 -42t-23 -34.5t-32.5 -29.5t-37 -26q-40 -26 -61.5 -44.5
t-28.5 -41.5h196v-65h-277v20q0 30 7.5 54.5t22.5 45.5t38 39.5t53 37.5zM586 703h89l-381 -703h-89zM649 58q42 0 67.5 17.5t25.5 51.5q0 11 -3.5 22t-12 20t-23 14.5t-36.5 5.5q-23 0 -41 -6.5t-26 -11.5l-40 25l25 189h218v-64h-165l-9 -75q9 2 23 3.5t30 1.5
q29 0 54 -7.5t43 -22.5t28 -38.5t10 -55.5q0 -28 -10.5 -52.5t-31.5 -42.5t-52 -28.5t-71 -10.5q-37 0 -68 5t-51 13l17 59q14 -4 39 -8t60 -4z" />
    <glyph glyph-name="threefifths" unicode="&#x2157;" horiz-adv-x="880" 
d="M116 547h45q42 0 60 15t18 37q0 20 -14.5 34t-46.5 14q-34 0 -61 -13.5t-39 -23.5l-36 47q7 7 20.5 16.5t31 17.5t39 13.5t46.5 5.5q70 0 102.5 -31t32.5 -73q0 -30 -18 -52t-43 -34q30 -10 49 -33.5t19 -55.5q0 -59 -45.5 -89.5t-114.5 -30.5q-38 0 -68.5 5t-50.5 11
l17 62q14 -5 38.5 -9.5t59.5 -4.5q89 0 89 56q0 23 -18.5 37.5t-64.5 14.5h-47v64zM586 703h89l-381 -703h-89zM649 58q42 0 67.5 17.5t25.5 51.5q0 11 -3.5 22t-12 20t-23 14.5t-36.5 5.5q-23 0 -41 -6.5t-26 -11.5l-40 25l25 189h218v-64h-165l-9 -75q9 2 23 3.5t30 1.5
q29 0 54 -7.5t43 -22.5t28 -38.5t10 -55.5q0 -28 -10.5 -52.5t-31.5 -42.5t-52 -28.5t-71 -10.5q-37 0 -68 5t-51 13l17 59q14 -4 39 -8t60 -4z" />
    <glyph glyph-name="fourfifths" unicode="&#x2158;" horiz-adv-x="880" 
d="M303 545v-77h52v-63h-52v-86h-68v86h-179v54l161 244h78l-157 -235h97v77h68zM586 703h89l-381 -703h-89zM649 58q42 0 67.5 17.5t25.5 51.5q0 11 -3.5 22t-12 20t-23 14.5t-36.5 5.5q-23 0 -41 -6.5t-26 -11.5l-40 25l25 189h218v-64h-165l-9 -75q9 2 23 3.5t30 1.5
q29 0 54 -7.5t43 -22.5t28 -38.5t10 -55.5q0 -28 -10.5 -52.5t-31.5 -42.5t-52 -28.5t-71 -10.5q-37 0 -68 5t-51 13l17 59q14 -4 39 -8t60 -4z" />
    <glyph glyph-name="onesixth" unicode="&#x2159;" horiz-adv-x="880" 
d="M160 619l-94 -52l-32 59l145 77h56v-384h-75v300zM556 703h89l-381 -703h-89zM696 330q-96 0 -107 -104q8 11 32 22.5t56 11.5q25 0 48.5 -7.5t41.5 -23t28.5 -40t10.5 -58.5q0 -66 -39 -102t-104 -36q-69 0 -108.5 43t-39.5 134q0 114 47.5 168t131.5 54q37 0 61.5 -8
t29.5 -11l-19 -56q-6 2 -25 7.5t-45 5.5zM662 52q42 0 59.5 20.5t17.5 52.5q0 39 -19.5 57t-54.5 18q-37 0 -59 -19.5t-22 -49.5t18.5 -54.5t59.5 -24.5z" />
    <glyph glyph-name="fivesixths" unicode="&#x215a;" horiz-adv-x="880" 
d="M157 376q42 0 67.5 17.5t25.5 51.5q0 11 -3.5 22t-12 20t-23 14.5t-36.5 5.5q-23 0 -41 -6.5t-26 -11.5l-40 25l25 189h218v-64h-165l-9 -75q9 2 23 3.5t30 1.5q29 0 54 -7.5t43 -22.5t28 -38.5t10 -55.5q0 -28 -10.5 -52.5t-31.5 -42.5t-52 -28.5t-71 -10.5q-37 0 -68 5
t-51 13l17 59q14 -4 39 -8t60 -4zM586 703h89l-381 -703h-89zM726 330q-96 0 -107 -104q8 11 32 22.5t56 11.5q25 0 48.5 -7.5t41.5 -23t28.5 -40t10.5 -58.5q0 -66 -39 -102t-104 -36q-69 0 -108.5 43t-39.5 134q0 114 47.5 168t131.5 54q37 0 61.5 -8t29.5 -11l-19 -56
q-6 2 -25 7.5t-45 5.5zM692 52q42 0 59.5 20.5t17.5 52.5q0 39 -19.5 57t-54.5 18q-37 0 -59 -19.5t-22 -49.5t18.5 -54.5t59.5 -24.5z" />
    <glyph glyph-name="oneseventh" unicode="&#xf506;" horiz-adv-x="880" 
d="M160 619l-94 -52l-32 59l145 77h56v-384h-75v300zM546 703h89l-381 -703h-89zM553 1l152 318h-196v66h278v-54l-158 -330h-76z" />
    <glyph glyph-name="twosevenths" unicode="&#xf507;" horiz-adv-x="880" 
d="M196 516q36 23 56 42t20 42q0 19 -15.5 32.5t-47.5 13.5q-17 0 -32.5 -5.5t-28 -13t-22 -16t-14.5 -14.5l-45 43q7 9 20.5 21.5t31.5 23t41 18t50 7.5q36 0 61.5 -9t42.5 -24t25 -34.5t8 -40.5q0 -23 -8.5 -42t-23 -34.5t-32.5 -29.5t-37 -26q-40 -26 -61.5 -44.5
t-28.5 -41.5h196v-65h-277v20q0 30 7.5 54.5t22.5 45.5t38 39.5t53 37.5zM579 703h89l-381 -703h-89zM583 1l152 318h-196v66h278v-54l-158 -330h-76z" />
    <glyph glyph-name="threesevenths" unicode="&#xf508;" horiz-adv-x="880" 
d="M116 547h45q42 0 60 15t18 37q0 20 -14.5 34t-46.5 14q-34 0 -61 -13.5t-39 -23.5l-36 47q7 7 20.5 16.5t31 17.5t39 13.5t46.5 5.5q70 0 102.5 -31t32.5 -73q0 -30 -18 -52t-43 -34q30 -10 49 -33.5t19 -55.5q0 -59 -45.5 -89.5t-114.5 -30.5q-38 0 -68.5 5t-50.5 11
l17 62q14 -5 38.5 -9.5t59.5 -4.5q89 0 89 56q0 23 -18.5 37.5t-64.5 14.5h-47v64zM576 703h89l-381 -703h-89zM583 1l152 318h-196v66h278v-54l-158 -330h-76z" />
    <glyph glyph-name="foursevenths" unicode="&#xf509;" horiz-adv-x="880" 
d="M303 545v-77h52v-63h-52v-86h-68v86h-179v54l161 244h78l-157 -235h97v77h68zM576 703h89l-381 -703h-89zM583 1l152 318h-196v66h278v-54l-158 -330h-76z" />
    <glyph glyph-name="fivesevenths" unicode="&#xf50a;" horiz-adv-x="880" 
d="M157 376q42 0 67.5 17.5t25.5 51.5q0 11 -3.5 22t-12 20t-23 14.5t-36.5 5.5q-23 0 -41 -6.5t-26 -11.5l-40 25l25 189h218v-64h-165l-9 -75q9 2 23 3.5t30 1.5q29 0 54 -7.5t43 -22.5t28 -38.5t10 -55.5q0 -28 -10.5 -52.5t-31.5 -42.5t-52 -28.5t-71 -10.5q-37 0 -68 5
t-51 13l17 59q14 -4 39 -8t60 -4zM576 703h89l-381 -703h-89zM583 1l152 318h-196v66h278v-54l-158 -330h-76z" />
    <glyph glyph-name="sixsevenths" unicode="&#xf50b;" horiz-adv-x="880" 
d="M234 648q-96 0 -107 -104q8 11 32 22.5t56 11.5q25 0 48.5 -7.5t41.5 -23t28.5 -40t10.5 -58.5q0 -66 -39 -102t-104 -36q-69 0 -108.5 43t-39.5 134q0 114 47.5 168t131.5 54q37 0 61.5 -8t29.5 -11l-19 -56q-6 2 -25 7.5t-45 5.5zM200 370q42 0 59.5 20.5t17.5 52.5
q0 39 -19.5 57t-54.5 18q-37 0 -59 -19.5t-22 -49.5t18.5 -54.5t59.5 -24.5zM576 703h89l-381 -703h-89zM583 1l152 318h-196v66h278v-54l-158 -330h-76z" />
    <glyph glyph-name="oneninth" unicode="&#xf50c;" horiz-adv-x="880" 
d="M160 619l-94 -52l-32 59l145 77h56v-384h-75v300zM556 703h89l-381 -703h-89zM616 56q96 0 107 103q-8 -11 -32 -22.5t-56 -11.5q-26 0 -49 7.5t-41 23t-28.5 40t-10.5 58.5q0 66 39.5 102t104.5 36q69 0 108 -43t39 -134q0 -114 -47.5 -168t-131.5 -54q-37 0 -60.5 5.5
t-31.5 8.5l15 59q6 -2 27.5 -6t47.5 -4zM650 333q-42 0 -59.5 -20.5t-17.5 -52.5q0 -39 19.5 -57t54.5 -18q37 0 59 19.5t22 49.5t-18.5 54.5t-59.5 24.5z" />
    <glyph glyph-name="twoninths" unicode="&#xf50d;" horiz-adv-x="880" 
d="M196 516q36 23 56 42t20 42q0 19 -15.5 32.5t-47.5 13.5q-17 0 -32.5 -5.5t-28 -13t-22 -16t-14.5 -14.5l-45 43q7 9 20.5 21.5t31.5 23t41 18t50 7.5q36 0 61.5 -9t42.5 -24t25 -34.5t8 -40.5q0 -23 -8.5 -42t-23 -34.5t-32.5 -29.5t-37 -26q-40 -26 -61.5 -44.5
t-28.5 -41.5h196v-65h-277v20q0 30 7.5 54.5t22.5 45.5t38 39.5t53 37.5zM586 703h89l-381 -703h-89zM646 56q96 0 107 103q-8 -11 -32 -22.5t-56 -11.5q-26 0 -49 7.5t-41 23t-28.5 40t-10.5 58.5q0 66 39.5 102t104.5 36q69 0 108 -43t39 -134q0 -114 -47.5 -168
t-131.5 -54q-37 0 -60.5 5.5t-31.5 8.5l15 59q6 -2 27.5 -6t47.5 -4zM680 333q-42 0 -59.5 -20.5t-17.5 -52.5q0 -39 19.5 -57t54.5 -18q37 0 59 19.5t22 49.5t-18.5 54.5t-59.5 24.5z" />
    <glyph glyph-name="fourninths" unicode="&#xf50e;" horiz-adv-x="880" 
d="M303 545v-77h52v-63h-52v-86h-68v86h-179v54l161 244h78l-157 -235h97v77h68zM586 703h89l-381 -703h-89zM646 56q96 0 107 103q-8 -11 -32 -22.5t-56 -11.5q-26 0 -49 7.5t-41 23t-28.5 40t-10.5 58.5q0 66 39.5 102t104.5 36q69 0 108 -43t39 -134q0 -114 -47.5 -168
t-131.5 -54q-37 0 -60.5 5.5t-31.5 8.5l15 59q6 -2 27.5 -6t47.5 -4zM680 333q-42 0 -59.5 -20.5t-17.5 -52.5q0 -39 19.5 -57t54.5 -18q37 0 59 19.5t22 49.5t-18.5 54.5t-59.5 24.5z" />
    <glyph glyph-name="fiveninths" unicode="&#xf50f;" horiz-adv-x="880" 
d="M157 376q42 0 67.5 17.5t25.5 51.5q0 11 -3.5 22t-12 20t-23 14.5t-36.5 5.5q-23 0 -41 -6.5t-26 -11.5l-40 25l25 189h218v-64h-165l-9 -75q9 2 23 3.5t30 1.5q29 0 54 -7.5t43 -22.5t28 -38.5t10 -55.5q0 -28 -10.5 -52.5t-31.5 -42.5t-52 -28.5t-71 -10.5q-37 0 -68 5
t-51 13l17 59q14 -4 39 -8t60 -4zM586 703h89l-381 -703h-89zM646 56q96 0 107 103q-8 -11 -32 -22.5t-56 -11.5q-26 0 -49 7.5t-41 23t-28.5 40t-10.5 58.5q0 66 39.5 102t104.5 36q69 0 108 -43t39 -134q0 -114 -47.5 -168t-131.5 -54q-37 0 -60.5 5.5t-31.5 8.5l15 59
q6 -2 27.5 -6t47.5 -4zM680 333q-42 0 -59.5 -20.5t-17.5 -52.5q0 -39 19.5 -57t54.5 -18q37 0 59 19.5t22 49.5t-18.5 54.5t-59.5 24.5z" />
    <glyph glyph-name="sevenninths" unicode="&#xf510;" horiz-adv-x="880" 
d="M91 319l152 318h-196v66h278v-54l-158 -330h-76zM546 703h89l-381 -703h-89zM616 56q96 0 107 103q-8 -11 -32 -22.5t-56 -11.5q-26 0 -49 7.5t-41 23t-28.5 40t-10.5 58.5q0 66 39.5 102t104.5 36q69 0 108 -43t39 -134q0 -114 -47.5 -168t-131.5 -54q-37 0 -60.5 5.5
t-31.5 8.5l15 59q6 -2 27.5 -6t47.5 -4zM650 333q-42 0 -59.5 -20.5t-17.5 -52.5q0 -39 19.5 -57t54.5 -18q37 0 59 19.5t22 49.5t-18.5 54.5t-59.5 24.5z" />
    <glyph glyph-name="eightninths" unicode="&#xf511;" horiz-adv-x="880" 
d="M336 608q0 -31 -17 -52t-43 -35q72 -34 72 -99q0 -52 -42 -81.5t-112 -29.5q-71 0 -112.5 28.5t-41.5 75.5q0 38 21 61.5t53 38.5q-30 18 -45.5 39.5t-15.5 51.5q0 44 37 74t104 30q71 0 106.5 -29t35.5 -73zM274 425q0 25 -25.5 40.5t-60.5 26.5q-35 -11 -55 -28
t-20 -42q0 -20 19.5 -36.5t61.5 -16.5q40 0 60 15t20 41zM265 602q0 22 -18 36.5t-53 14.5t-53 -15.5t-18 -35.5q0 -21 24 -36t55 -23q63 20 63 59zM586 703h89l-381 -703h-89zM646 56q96 0 107 103q-8 -11 -32 -22.5t-56 -11.5q-26 0 -49 7.5t-41 23t-28.5 40t-10.5 58.5
q0 66 39.5 102t104.5 36q69 0 108 -43t39 -134q0 -114 -47.5 -168t-131.5 -54q-37 0 -60.5 5.5t-31.5 8.5l15 59q6 -2 27.5 -6t47.5 -4zM680 333q-42 0 -59.5 -20.5t-17.5 -52.5q0 -39 19.5 -57t54.5 -18q37 0 59 19.5t22 49.5t-18.5 54.5t-59.5 24.5z" />
    <glyph glyph-name="partialdiff" unicode="&#x2202;" horiz-adv-x="545" 
d="M422 368q1 8 1 15.5v15.5q0 106 -40.5 166t-121.5 60q-20 0 -39.5 -4t-36.5 -9.5t-30.5 -11.5t-22.5 -11l-35 65q20 15 62 33t111 18q60 0 104.5 -22t74 -61.5t44.5 -94.5t15 -120q0 -95 -19.5 -172.5t-57.5 -132.5t-93 -85t-126 -30q-48 0 -85 14.5t-62 40t-37.5 61
t-12.5 77.5q0 53 17.5 99t49 79.5t76 53t98.5 19.5q27 0 51.5 -5.5t46.5 -14.5t39 -20t29 -23zM253 353q-39 0 -67.5 -15t-46.5 -39.5t-26.5 -55.5t-8.5 -62q0 -58 32.5 -87.5t85.5 -29.5q68 0 117.5 54.5t68.5 171.5q-9 10 -23.5 21t-33.5 20.5t-43.5 15.5t-54.5 6z" />
    <glyph glyph-name="Delta" unicode="&#x2206;" horiz-adv-x="546" 
d="M224 703h97l233 -703h-562zM106 81h325l-161 505z" />
    <glyph glyph-name="product" unicode="&#x220f;" horiz-adv-x="716" 
d="M592 620v-740h-92v740h-284v-740h-92v740h-109v83h686v-83h-109z" />
    <glyph glyph-name="summation" unicode="&#x2211;" horiz-adv-x="560" 
d="M37 -120v75l226 339l-225 334v75h494v-83h-380l220 -321l-230 -336h401v-83h-506z" />
    <glyph glyph-name="uni2126" unicode="&#x2126;" horiz-adv-x="756" 
d="M378 633q-108 0 -159.5 -71t-51.5 -201q0 -65 11.5 -113.5t31.5 -83t46.5 -56.5t55.5 -34v-74h-270v80h134q-15 12 -34 36t-35.5 59.5t-28 82t-11.5 103.5q0 81 19.5 147t58.5 113t97 72.5t136 25.5t136 -25.5t97 -72.5t58.5 -113t19.5 -147q0 -57 -11.5 -103.5t-28 -82
t-35.5 -59.5t-34 -36h134v-80h-270v74q29 12 55.5 34t46.5 56.5t31.5 83t11.5 113.5q0 130 -51.5 201t-159.5 71z" />
    <glyph glyph-name="minus" unicode="&#x2212;" horiz-adv-x="556" 
d="M57 392h442v-80h-442v80z" />
    <glyph glyph-name="uni2215" unicode="&#x2215;" horiz-adv-x="52" 
d="M172 703h89l-381 -703h-89z" />
    <glyph glyph-name="uni2219" unicode="&#x2219;" horiz-adv-x="234" 
d="M181 306q0 -29 -17.5 -48t-46.5 -19t-46.5 19t-17.5 48t17.5 48t46.5 19t46.5 -19t17.5 -48z" />
    <glyph glyph-name="radical" unicode="&#x221a;" horiz-adv-x="572" 
d="M590 763l-222 -763h-97l-137 376l-76 -35l-29 62l166 73l123 -364l187 651h85z" />
    <glyph glyph-name="infinity" unicode="&#x221e;" horiz-adv-x="631" 
d="M163 512q50 0 87.5 -28.5t69.5 -72.5q34 45 69.5 73t85.5 28q63 0 103.5 -42t40.5 -120q0 -41 -12.5 -70.5t-33 -49t-46 -29t-51.5 -9.5q-22 0 -42 4.5t-39 16t-38 31t-40 48.5q-20 -28 -37.5 -47t-36 -31t-39 -17t-47.5 -5q-29 0 -55.5 10t-46.5 29.5t-31.5 49
t-11.5 69.5q0 37 11.5 67t32 51t48 32.5t59.5 11.5zM163 261q35 0 61 26t53 62q-12 17 -25.5 33.5t-28 30t-30.5 22t-32 8.5q-38 0 -58 -26.5t-20 -66.5q0 -45 22.5 -67t57.5 -22zM470 443q-32 0 -57.5 -27.5t-52.5 -64.5q35 -45 60.5 -67.5t51.5 -22.5q36 0 55.5 24
t19.5 65q0 49 -22 71t-55 22z" />
    <glyph glyph-name="integral" unicode="&#x222b;" horiz-adv-x="302" 
d="M98 536q-1 17 -1 30.5v30.5q0 27 7 56.5t25 54t48 40t76 15.5q36 0 58 -5.5t30 -8.5l-10 -65l-22.5 4.5t-41.5 3.5q-45 0 -63 -27.5t-18 -70.5v-39l18 -560q1 -17 1 -30.5v-30.5q0 -27 -7 -56.5t-25 -54t-48 -40t-76 -15.5q-36 0 -58 5.5t-30 8.5l10 65l22.5 -4.5
t41.5 -3.5q45 0 63 27.5t18 70.5v39z" />
    <glyph glyph-name="approxequal" unicode="&#x2248;" horiz-adv-x="585" 
d="M383 265q34 0 59 13t55 41l51 -62q-14 -14 -31 -28.5t-37.5 -25.5t-43 -18t-47.5 -7q-35 0 -63 13t-51 27q-18 11 -36.5 20t-36.5 9q-35 0 -59.5 -13t-54.5 -41l-51 62q13 14 30.5 28t37.5 25.5t43 18.5t48 7q35 0 63 -13t51 -27q18 -11 36.5 -20t36.5 -9zM383 458
q34 0 59 13t55 41l51 -62q-14 -14 -31 -28.5t-37.5 -25.5t-43 -18t-47.5 -7q-35 0 -63 13t-51 27q-18 11 -36.5 20t-36.5 9q-35 0 -59.5 -13t-54.5 -41l-51 62q13 14 30.5 28t37.5 25.5t43 18.5t48 7q35 0 63 -13t51 -27q18 -11 36.5 -20t36.5 -9z" />
    <glyph glyph-name="notequal" unicode="&#x2260;" horiz-adv-x="556" 
d="M77 492h229l58 125h75l-58 -125h98v-80h-136l-56 -120h192v-80h-229l-58 -125h-75l58 125h-98v80h135l56 120h-191v80z" />
    <glyph glyph-name="lessequal" unicode="&#x2264;" horiz-adv-x="556" 
d="M160 379l328 -138l-31 -76l-389 177v74l389 177l31 -76zM499 80v-80h-442v80h442z" />
    <glyph glyph-name="greaterequal" unicode="&#x2265;" horiz-adv-x="556" 
d="M68 517l31 76l389 -177v-74l-389 -177l-31 76l328 138zM499 80v-80h-442v80h442z" />
    <glyph glyph-name="lozenge" unicode="&#x25ca;" horiz-adv-x="578" 
d="M335 0h-92l-206 351l206 352h92l206 -352zM446 351l-157 274l-156 -274l156 -274z" />
    <glyph glyph-name="f_i" unicode="&#xfb01;" horiz-adv-x="555" 
d="M196 500h302v-500h-89v425h-213v-425h-89v425h-95v75h95v52q0 45 9.5 83.5t31 67t56.5 44.5t86 16q26 0 44.5 -3t23.5 -4l-6 -70q-4 1 -14.5 2t-31.5 1q-57 0 -83.5 -33t-26.5 -111v-45zM511 662q0 -27 -15.5 -44t-42.5 -17t-42.5 17.5t-15.5 43.5t15.5 43.5t42.5 17.5
t42.5 -17t15.5 -44z" />
    <glyph glyph-name="f_l" unicode="&#xfb02;" horiz-adv-x="555" 
d="M409 750h89v-750h-89v750zM351 425h-155v-425h-89v425h-95v75h95v52q0 45 9.5 83.5t31 67t56.5 44.5t86 16q26 0 44.5 -3t23.5 -4l-6 -70q-4 1 -14.5 2t-31.5 1q-57 0 -83.5 -33t-26.5 -111v-45h155v-75z" />
    <glyph glyph-name="zero.alt" unicode="&#xf800;" horiz-adv-x="556" 
d="M279 717q129 0 190.5 -93.5t61.5 -271.5q0 -179 -61.5 -272.5t-190.5 -93.5t-190.5 93.5t-61.5 272.5q0 178 61.5 271.5t190.5 93.5zM279 638q-82 0 -120 -71.5t-38 -214.5t38 -215t120 -72t120 72t38 215t-38 214.5t-120 71.5z" />
    <glyph glyph-name="one.alt" unicode="&#xf801;" horiz-adv-x="556" 
d="M269 596l-167 -97l-35 68l229 136h64v-703h-91v596z" />
    <glyph glyph-name="two.alt" unicode="&#xf802;" horiz-adv-x="556" 
d="M253 345q32 25 57 47t42 43t25.5 43.5t8.5 49.5q0 48 -29 79.5t-92 31.5q-31 0 -55.5 -8.5t-43 -20.5t-32.5 -26.5t-23 -26.5l-57 49q10 16 29.5 35.5t46.5 36t62.5 28t78.5 11.5q55 0 95 -16t65 -42.5t37 -60t12 -67.5q0 -38 -13 -70.5t-34.5 -61t-49.5 -53.5t-59 -49
q-77 -60 -119 -110t-49 -109h333v-78h-427v15q0 55 12 99.5t35.5 83.5t59.5 74.5t84 72.5z" />
    <glyph glyph-name="three.alt" unicode="&#xf803;" horiz-adv-x="556" 
d="M148 398h67q39 0 67.5 10t47 27t27 40t8.5 49q0 49 -29 82.5t-94 33.5q-30 0 -53.5 -6t-42 -15t-32.5 -19.5t-23 -19.5l-49 52q10 11 28 26t43.5 28t58.5 22t72 9q56 0 96 -15t66 -40t38 -57t12 -66q0 -33 -10 -60.5t-27 -49t-40 -38t-48 -27.5q29 -8 54 -22.5t44 -35.5
t29.5 -48.5t10.5 -61.5q0 -51 -19.5 -90t-53.5 -66t-80.5 -40.5t-100.5 -13.5q-62 0 -107 9t-71 18l20 72q19 -5 55 -12.5t96 -7.5q76 0 122 32t46 99q0 53 -38 88.5t-120 35.5h-70v78z" />
    <glyph glyph-name="four.alt" unicode="&#xf804;" horiz-adv-x="556" 
d="M39 249l264 454h95l-264 -451h198v184h86v-184h104v-76h-104v-176h-86v176h-293v73z" />
    <glyph glyph-name="five.alt" unicode="&#xf805;" horiz-adv-x="556" 
d="M215 66q79 0 127 39.5t48 117.5q0 25 -6.5 51t-23 46.5t-44.5 33.5t-70 13q-41 0 -69.5 -11t-45.5 -21l-50 36l40 332h337v-79h-272l-23 -204q8 5 36 12.5t71 7.5q46 0 85 -13t67.5 -39.5t44.5 -67.5t16 -97q0 -49 -17 -92t-50.5 -75.5t-82.5 -51t-113 -18.5
q-62 0 -107 8.5t-71 17.5l20 72q19 -5 54.5 -11.5t98.5 -6.5z" />
    <glyph glyph-name="six.alt" unicode="&#xf806;" horiz-adv-x="556" 
d="M145 377q22 36 65.5 59.5t98.5 23.5q42 0 79.5 -13t66 -41t45 -71t16.5 -103q0 -59 -16 -104.5t-46 -77t-71.5 -48t-92.5 -16.5q-108 0 -170 78.5t-62 238.5q0 204 69.5 309t203.5 105q51 0 91 -12.5t70 -31.5l-35 -64q-56 30 -126 30q-88 0 -133 -67.5t-53 -194.5z
M290 62q36 0 62.5 12.5t43 34t24.5 50.5t8 62q0 83 -34.5 122t-98.5 39q-69 0 -106 -43.5t-37 -112.5q0 -30 8 -59.5t24.5 -52.5t43 -37.5t62.5 -14.5z" />
    <glyph glyph-name="seven.alt" unicode="&#xf807;" horiz-adv-x="556" 
d="M112 0l290 624h-363v79h454v-74l-287 -629h-94z" />
    <glyph glyph-name="eight.alt" unicode="&#xf808;" horiz-adv-x="556" 
d="M498 540q0 -31 -9.5 -56.5t-26 -47t-38.5 -39t-47 -31.5q34 -16 60 -33.5t44 -39.5t27 -50t9 -64q0 -91 -63 -142t-175 -51q-57 0 -101.5 13t-75 37t-46 57t-15.5 73q0 37 11.5 66.5t31 52.5t46.5 40.5t59 32.5q-25 12 -48.5 28t-41.5 37.5t-29 49.5t-11 65t14 69.5
t42 57t69 38.5t95 14q57 0 98 -14t68 -38t40 -56t13 -69zM430 178q0 59 -40 92t-116 59q-30 -13 -56.5 -27.5t-47 -32.5t-32 -41.5t-11.5 -53.5q0 -52 38 -83.5t114 -31.5q72 0 111.5 30t39.5 89zM413 537q0 48 -33 79t-101 31q-67 0 -101 -31t-34 -78q0 -30 11.5 -52.5
t32 -39t47.5 -29t59 -21.5q55 24 87 56.5t32 84.5z" />
    <glyph glyph-name="nine.alt" unicode="&#xf809;" horiz-adv-x="556" 
d="M411 327q-10 -18 -26.5 -33t-38 -26t-47 -17.5t-52.5 -6.5q-42 0 -79.5 13t-66 40.5t-45 70.5t-16.5 103q0 59 16 105t46 77.5t72 47.5t93 16q107 0 169 -79.5t62 -242.5q0 -104 -19.5 -180.5t-56.5 -127.5t-90 -76t-120 -25q-57 0 -91.5 7.5t-44.5 11.5l18 73
q6 -2 17.5 -4.5t27.5 -4.5t34 -4t36 -2q52 0 88.5 17.5t60 51t36 83t17.5 112.5zM267 641q-36 0 -62.5 -12t-43.5 -33.5t-25 -50.5t-8 -62q0 -83 34.5 -122t98.5 -39q34 0 60.5 11.5t45 32.5t28 49.5t9.5 62.5q0 30 -8 59t-25 52.5t-42.5 37.5t-61.5 14z" />
    <glyph glyph-name="zero.sups" unicode="&#xf80a;" horiz-adv-x="370" 
d="M28 593q0 97 39 148.5t118 51.5q78 0 117.5 -51.5t39.5 -148.5t-39.5 -148t-117.5 -51q-157 0 -157 199zM105 593q0 -134 80 -134q39 0 59.5 34t20.5 100q0 134 -80 134t-80 -134z" />
    <glyph glyph-name="one.sups" unicode="&#xf80b;" horiz-adv-x="370" 
d="M172 702l-94 -52l-32 59l145 77h56v-384h-75v300z" />
    <glyph glyph-name="two.sups" unicode="&#xf80c;" horiz-adv-x="370" 
d="M160 599q36 23 56 42t20 42q0 19 -15.5 32.5t-47.5 13.5q-17 0 -32.5 -5.5t-28 -13t-22 -16t-14.5 -14.5l-45 43q7 9 20.5 21.5t31.5 23t41 18t50 7.5q36 0 61.5 -9t42.5 -24t25 -34.5t8 -40.5q0 -23 -8.5 -42t-23 -34.5t-32.5 -29.5t-37 -26q-40 -26 -61.5 -44.5
t-28.5 -41.5h196v-65h-277v20q0 30 7.5 54.5t22.5 45.5t38 39.5t53 37.5z" />
    <glyph glyph-name="three.sups" unicode="&#xf80d;" horiz-adv-x="370" 
d="M107 630h45q42 0 60 15t18 37q0 20 -14.5 34t-46.5 14q-34 0 -61 -13.5t-39 -23.5l-36 47q7 7 20.5 16.5t31 17.5t39 13.5t46.5 5.5q70 0 102.5 -31t32.5 -73q0 -30 -18 -52t-43 -34q30 -10 49 -33.5t19 -55.5q0 -59 -45.5 -89.5t-114.5 -30.5q-38 0 -68.5 5t-50.5 11
l17 62q14 -5 38.5 -9.5t59.5 -4.5q89 0 89 56q0 23 -18.5 37.5t-64.5 14.5h-47v64z" />
    <glyph glyph-name="four.sups" unicode="&#xf80e;" horiz-adv-x="370" 
d="M282 628v-77h52v-63h-52v-86h-68v86h-179v54l161 244h78l-157 -235h97v77h68z" />
    <glyph glyph-name="five.sups" unicode="&#xf80f;" horiz-adv-x="370" 
d="M149 459q42 0 67.5 17.5t25.5 51.5q0 11 -3.5 22t-12 20t-23 14.5t-36.5 5.5q-23 0 -41 -6.5t-26 -11.5l-40 25l25 189h218v-64h-165l-9 -75q9 2 23 3.5t30 1.5q29 0 54 -7.5t43 -22.5t28 -38.5t10 -55.5q0 -28 -10.5 -52.5t-31.5 -42.5t-52 -28.5t-71 -10.5q-37 0 -68 5
t-51 13l17 59q14 -4 39 -8t60 -4z" />
    <glyph glyph-name="six.sups" unicode="&#xf810;" horiz-adv-x="370" 
d="M223 731q-96 0 -107 -104q8 11 32 22.5t56 11.5q25 0 48.5 -7.5t41.5 -23t28.5 -40t10.5 -58.5q0 -66 -39 -102t-104 -36q-69 0 -108.5 43t-39.5 134q0 114 47.5 168t131.5 54q37 0 61.5 -8t29.5 -11l-19 -56q-6 2 -25 7.5t-45 5.5zM189 453q42 0 59.5 20.5t17.5 52.5
q0 39 -19.5 57t-54.5 18q-37 0 -59 -19.5t-22 -49.5t18.5 -54.5t59.5 -24.5z" />
    <glyph glyph-name="seven.sups" unicode="&#xf811;" horiz-adv-x="370" 
d="M82 402l152 318h-196v66h278v-54l-158 -330h-76z" />
    <glyph glyph-name="eight.sups" unicode="&#xf812;" horiz-adv-x="370" 
d="M327 691q0 -31 -17 -52t-43 -35q72 -34 72 -99q0 -52 -42 -81.5t-112 -29.5q-71 0 -112.5 28.5t-41.5 75.5q0 38 21 61.5t53 38.5q-30 18 -45.5 39.5t-15.5 51.5q0 44 37 74t104 30q71 0 106.5 -29t35.5 -73zM265 508q0 25 -25.5 40.5t-60.5 26.5q-35 -11 -55 -28
t-20 -42q0 -20 19.5 -36.5t61.5 -16.5q40 0 60 15t20 41zM256 685q0 22 -18 36.5t-53 14.5t-53 -15.5t-18 -35.5q0 -21 24 -36t55 -23q63 20 63 59z" />
    <glyph glyph-name="nine.sups" unicode="&#xf813;" horiz-adv-x="370" 
d="M147 457q96 0 107 103q-8 -11 -32 -22.5t-56 -11.5q-26 0 -49 7.5t-41 23t-28.5 40t-10.5 58.5q0 66 39.5 102t104.5 36q69 0 108 -43t39 -134q0 -114 -47.5 -168t-131.5 -54q-37 0 -60.5 5.5t-31.5 8.5l15 59q6 -2 27.5 -6t47.5 -4zM181 734q-42 0 -59.5 -20.5
t-17.5 -52.5q0 -39 19.5 -57t54.5 -18q37 0 59 19.5t22 49.5t-18.5 54.5t-59.5 24.5z" />
    <glyph glyph-name="zero.sinf" unicode="&#xf814;" horiz-adv-x="370" 
d="M28 102q0 97 39 148.5t118 51.5q78 0 117.5 -51.5t39.5 -148.5t-39.5 -148t-117.5 -51q-157 0 -157 199zM105 102q0 -134 80 -134q39 0 59.5 34t20.5 100q0 134 -80 134t-80 -134z" />
    <glyph glyph-name="one.sinf" unicode="&#xf815;" horiz-adv-x="370" 
d="M172 211l-94 -52l-32 59l145 77h56v-384h-75v300z" />
    <glyph glyph-name="two.sinf" unicode="&#xf816;" horiz-adv-x="370" 
d="M160 108q36 23 56 42t20 42q0 19 -15.5 32.5t-47.5 13.5q-17 0 -32.5 -5.5t-28 -13t-22 -16t-14.5 -14.5l-45 43q7 9 20.5 21.5t31.5 23t41 18t50 7.5q36 0 61.5 -9t42.5 -24t25 -34.5t8 -40.5q0 -23 -8.5 -42t-23 -34.5t-32.5 -29.5t-37 -26q-40 -26 -61.5 -44.5
t-28.5 -41.5h196v-65h-277v20q0 30 7.5 54.5t22.5 45.5t38 39.5t53 37.5z" />
    <glyph glyph-name="three.sinf" unicode="&#xf817;" horiz-adv-x="370" 
d="M107 139h45q42 0 60 15t18 37q0 20 -14.5 34t-46.5 14q-34 0 -61 -13.5t-39 -23.5l-36 47q7 7 20.5 16.5t31 17.5t39 13.5t46.5 5.5q70 0 102.5 -31t32.5 -73q0 -30 -18 -52t-43 -34q30 -10 49 -33.5t19 -55.5q0 -59 -45.5 -89.5t-114.5 -30.5q-38 0 -68.5 5t-50.5 11
l17 62q14 -5 38.5 -9.5t59.5 -4.5q89 0 89 56q0 23 -18.5 37.5t-64.5 14.5h-47v64z" />
    <glyph glyph-name="four.sinf" unicode="&#xf818;" horiz-adv-x="370" 
d="M282 137v-77h52v-63h-52v-86h-68v86h-179v54l161 244h78l-157 -235h97v77h68z" />
    <glyph glyph-name="five.sinf" unicode="&#xf819;" horiz-adv-x="370" 
d="M149 -32q42 0 67.5 17.5t25.5 51.5q0 11 -3.5 22t-12 20t-23 14.5t-36.5 5.5q-23 0 -41 -6.5t-26 -11.5l-40 25l25 189h218v-64h-165l-9 -75q9 2 23 3.5t30 1.5q29 0 54 -7.5t43 -22.5t28 -38.5t10 -55.5q0 -28 -10.5 -52.5t-31.5 -42.5t-52 -28.5t-71 -10.5q-37 0 -68 5
t-51 13l17 59q14 -4 39 -8t60 -4z" />
    <glyph glyph-name="six.sinf" unicode="&#xf81a;" horiz-adv-x="370" 
d="M223 240q-96 0 -107 -104q8 11 32 22.5t56 11.5q25 0 48.5 -7.5t41.5 -23t28.5 -40t10.5 -58.5q0 -66 -39 -102t-104 -36q-69 0 -108.5 43t-39.5 134q0 114 47.5 168t131.5 54q37 0 61.5 -8t29.5 -11l-19 -56q-6 2 -25 7.5t-45 5.5zM189 -38q42 0 59.5 20.5t17.5 52.5
q0 39 -19.5 57t-54.5 18q-37 0 -59 -19.5t-22 -49.5t18.5 -54.5t59.5 -24.5z" />
    <glyph glyph-name="seven.sinf" unicode="&#xf81b;" horiz-adv-x="370" 
d="M82 -89l152 318h-196v66h278v-54l-158 -330h-76z" />
    <glyph glyph-name="eight.sinf" unicode="&#xf81c;" horiz-adv-x="370" 
d="M327 200q0 -31 -17 -52t-43 -35q72 -34 72 -99q0 -52 -42 -81.5t-112 -29.5q-71 0 -112.5 28.5t-41.5 75.5q0 38 21 61.5t53 38.5q-30 18 -45.5 39.5t-15.5 51.5q0 44 37 74t104 30q71 0 106.5 -29t35.5 -73zM265 17q0 25 -25.5 40.5t-60.5 26.5q-35 -11 -55 -28t-20 -42
q0 -20 19.5 -36.5t61.5 -16.5q40 0 60 15t20 41zM256 194q0 22 -18 36.5t-53 14.5t-53 -15.5t-18 -35.5q0 -21 24 -36t55 -23q63 20 63 59z" />
    <glyph glyph-name="nine.sinf" unicode="&#xf81d;" horiz-adv-x="370" 
d="M147 -34q96 0 107 103q-8 -11 -32 -22.5t-56 -11.5q-26 0 -49 7.5t-41 23t-28.5 40t-10.5 58.5q0 66 39.5 102t104.5 36q69 0 108 -43t39 -134q0 -114 -47.5 -168t-131.5 -54q-37 0 -60.5 5.5t-31.5 8.5l15 59q6 -2 27.5 -6t47.5 -4zM181 243q-42 0 -59.5 -20.5
t-17.5 -52.5q0 -39 19.5 -57t54.5 -18q37 0 59 19.5t22 49.5t-18.5 54.5t-59.5 24.5z" />
    <glyph glyph-name="hungarumlaut.cap" horiz-adv-x="469" 
d="M229 803l154 144l55 -60l-167 -131zM30 803l154 144l55 -60l-167 -131z" />
    <glyph glyph-name="cedilla.cap" horiz-adv-x="469" 
d="M201 0h62l-11 -50q49 -4 74 -28.5t25 -60.5q0 -26 -10.5 -44.5t-28 -31.5t-41 -19t-49.5 -6q-45 0 -72 7t-32 9l16 53q17 -5 35.5 -8.5t37.5 -3.5q33 0 51 10.5t18 30.5q0 14 -14.5 24.5t-45.5 10.5q-20 0 -38 -3z" />
    <glyph glyph-name="tilde.cap" horiz-adv-x="469" 
d="M55 775q0 58 28 88t77 30q25 0 43.5 -8.5t34.5 -18t31 -18t33 -8.5q26 0 36 14t10 37h66q0 -60 -28 -89t-77 -29q-25 0 -43.5 8.5t-34.5 18t-31 18t-33 8.5q-26 0 -36 -14t-10 -37h-66z" />
    <glyph glyph-name="ogonek.cap" horiz-adv-x="469" 
d="M309 -184q-5 -1 -14.5 -1.5t-17.5 -0.5q-64 0 -90.5 21.5t-26.5 60.5q0 27 17 52.5t51 51.5h79q-66 -47 -66 -88q0 -21 12.5 -28t30.5 -7h13t12 1v-62z" />
    <glyph glyph-name="ring.cap" horiz-adv-x="469" 
d="M347 826q0 -24 -9 -44t-24 -35t-35.5 -23t-43.5 -8q-24 0 -44.5 8t-36 22.5t-24.5 34.5t-9 44t9 44t24.5 35t36 23t43.5 8q48 0 80.5 -30.5t32.5 -78.5zM289 825q0 23 -16 39t-39 16t-38.5 -16t-15.5 -39t15.5 -39.5t38.5 -16.5t39 16.5t16 39.5z" />
    <glyph glyph-name="caron.cap" horiz-adv-x="469" 
d="M414 866l-138 -110h-83l-138 110l38 47l142 -90l141 90z" />
    <glyph glyph-name="macron.cap" horiz-adv-x="469" 
d="M77 793v77h314v-77h-314z" />
    <glyph glyph-name="dieresis.cap" horiz-adv-x="469" 
d="M397 837q0 -28 -16 -45.5t-44 -17.5t-44 18t-16 45t16 45t44 18t44 -17.5t16 -45.5zM192 837q0 -28 -16 -45.5t-44 -17.5t-44 18t-16 45t16 45t44 18t44 -17.5t16 -45.5z" />
    <glyph glyph-name="dotaccent.cap" horiz-adv-x="469" 
d="M297 837q0 -29 -16.5 -47t-45.5 -18t-45.5 18.5t-16.5 46.5t16.5 46.5t45.5 18.5t45.5 -18t16.5 -47z" />
    <glyph glyph-name="circumflex.cap" horiz-adv-x="469" 
d="M55 803l138 110h83l138 -110l-38 -47l-142 90l-141 -90z" />
    <glyph glyph-name="acute.cap" horiz-adv-x="469" 
d="M96 821l243 105l33 -81l-248 -89z" />
    <glyph glyph-name="grave.cap" horiz-adv-x="469" 
d="M344 756l-248 89l33 81l243 -105z" />
    <glyph glyph-name="breve.cap" horiz-adv-x="469" 
d="M235 825q41 0 59.5 21t18.5 52h75q0 -27 -9.5 -52.5t-28 -45t-47.5 -31t-68 -11.5t-68 11.5t-48 31t-28.5 45t-9.5 52.5h76q0 -31 18.5 -52t59.5 -21z" />
    <glyph glyph-name="commaaccent.cap" horiz-adv-x="469" 
d="M292 -105q0 -25 -10 -49.5t-22.5 -45t-24.5 -34t-15 -16.5l-41 27q2 3 7.5 11t11.5 18.5t11 21.5t7 20q-14 6 -26 20.5t-12 31.5q0 24 15.5 39t41.5 15q23 0 40 -15.5t17 -43.5z" />
    <glyph glyph-name="caron.alt" horiz-adv-x="469" 
d="M309 698q0 -29 -12.5 -62t-28 -62t-30.5 -51t-20 -29l-49 28q5 9 13.5 24.5t17 33.5t15.5 35.5t10 30.5q-14 7 -25.5 21.5t-11.5 34.5q0 26 17.5 43.5t44.5 17.5q25 0 42 -18t17 -47z" />
    <glyph glyph-name="commaaccent" horiz-adv-x="469" 
d="M290 -105q0 -25 -9.5 -49.5t-22 -45t-23.5 -34t-14 -16.5l-41 27q2 3 7 11t11 18.5t11.5 21.5t7.5 20q-14 6 -25.5 20.5t-11.5 31.5q0 24 15 39t40 15q23 0 39 -15.5t16 -43.5z" />
    <glyph glyph-name="revcommaaccent" horiz-adv-x="469" 
d="M180 633q0 25 9.5 49.5t21.5 44.5t23 34t14 17l40 -26q-2 -3 -7 -11t-11 -18.5t-11 -22t-7 -20.5q13 -6 24.5 -20.5t11.5 -31.5q0 -24 -15 -39t-39 -15q-23 0 -38.5 15.5t-15.5 43.5z" />
    <glyph glyph-name="caron.alt.short" horiz-adv-x="333" 
d="M226 700q0 -25 -9.5 -52.5t-21.5 -51t-22.5 -40t-12.5 -19.5l-49 25q2 4 7 13.5t10.5 22t10.5 25t8 22.5q-16 8 -28 23.5t-12 35.5q0 26 17 42.5t44 16.5q25 0 41.5 -17t16.5 -46z" />
    <glyph glyph-name="acute.asc" horiz-adv-x="469" 
d="M117 837l231 81l24 -80l-236 -63z" />
    <glyph glyph-name="circumflex.asc" horiz-adv-x="333" 
d="M2 823l123 90h83l123 -90l-33 -47l-132 70l-131 -70z" />
    <glyph glyph-name="uni0400" unicode="&#x400;" 
d="M67 703h414v-83h-322v-213h252v-83h-252v-241h332v-83h-424v703zM383 756l-248 89l33 81l243 -105z" />
    <glyph glyph-name="afii10023" unicode="&#x401;" 
d="M67 703h414v-83h-322v-213h252v-83h-252v-241h332v-83h-424v703zM435 837q0 -28 -16 -45.5t-44 -17.5t-44 18t-16 45t16 45t44 18t44 -17.5t16 -45.5zM230 837q0 -28 -16 -45.5t-44 -17.5t-44 18t-16 45t16 45t44 18t44 -17.5t16 -45.5z" />
    <glyph glyph-name="afii10051" unicode="&#x402;" horiz-adv-x="700" 
d="M448 -8q-21 0 -42 2t-36 6l15 75q11 -3 26 -4t28 -1q28 0 52.5 8t42.5 24.5t28 42.5t10 62q0 65 -36.5 104.5t-118.5 39.5q-45 0 -79 -8t-55 -16v-327h-92v620h-176v83h485v-83h-217v-213q20 8 59 17t93 9q106 0 168 -58.5t62 -167.5q0 -51 -16.5 -91t-45.5 -67.5
t-68.5 -42t-86.5 -14.5z" />
    <glyph glyph-name="afii10052" unicode="&#x403;" horiz-adv-x="473" 
d="M67 703h391v-83h-299v-620h-92v703zM135 821l243 105l33 -81l-248 -89z" />
    <glyph glyph-name="afii10053" unicode="&#x404;" horiz-adv-x="584" 
d="M359 631q-193 0 -214 -229h301v-83h-303q6 -125 59 -185.5t156 -60.5q29 0 55 5.5t48 14t39.5 18.5t29.5 19l39 -66q-37 -31 -93.5 -52.5t-130.5 -21.5q-152 0 -227 94t-75 265q0 81 19.5 148t58.5 115.5t97 75t135 26.5q39 0 71.5 -7t59.5 -17.5t47.5 -24t35.5 -26.5
l-44 -67q-23 21 -64.5 40t-99.5 19z" />
    <glyph glyph-name="afii10054" unicode="&#x405;" horiz-adv-x="535" 
d="M212 324q-80 22 -128.5 67.5t-48.5 124.5q0 42 15 78.5t44.5 64.5t73 44t99.5 16q69 0 124.5 -16.5t87.5 -37.5l-34 -71q-10 6 -29 13t-43 14t-52 11.5t-56 4.5q-67 0 -103 -31t-36 -81q0 -44 27.5 -71t91.5 -45l82 -23q88 -25 133 -70.5t45 -128.5q0 -45 -16 -82.5
t-47 -64.5t-75.5 -41.5t-101.5 -14.5q-50 0 -91 8t-72 18.5t-51 21.5t-28 16l39 72q13 -8 33 -17.5t46.5 -17t57.5 -12.5t66 -5q75 0 110 31.5t35 81.5q0 18 -5 35.5t-18 33t-35.5 28.5t-57.5 23z" />
    <glyph glyph-name="afii10055" unicode="&#x406;" horiz-adv-x="226" 
d="M159 0h-92v703h92v-703z" />
    <glyph glyph-name="afii10056" unicode="&#x407;" horiz-adv-x="226" 
d="M159 0h-92v703h92v-703zM278 837q0 -28 -16 -45.5t-44 -17.5t-44 18t-16 45t16 45t44 18t44 -17.5t16 -45.5zM73 837q0 -28 -16 -45.5t-44 -17.5t-44 18t-16 45t16 45t44 18t44 -17.5t16 -45.5z" />
    <glyph glyph-name="afii10057" unicode="&#x408;" horiz-adv-x="449" 
d="M295 703h92v-508q0 -60 -16.5 -100t-44.5 -65t-65 -35.5t-79 -10.5q-41 0 -73.5 7.5t-55.5 16.5t-36 17t-15 10l32 67q3 -2 14.5 -8.5t29.5 -13t42 -11.5t52 -5q25 0 47.5 5.5t39.5 20t26.5 40t9.5 66.5v507z" />
    <glyph glyph-name="afii10058" unicode="&#x409;" horiz-adv-x="946" 
d="M818 218q0 73 -37.5 106t-104.5 33h-117v-277h114q70 0 107.5 35t37.5 103zM559 703v-266h119q61 0 105 -17t72.5 -47t42 -70t13.5 -85q0 -42 -13 -81.5t-41.5 -69.5t-73 -48.5t-107.5 -18.5h-209v620h-192l-3 -111q-2 -57 -7 -121.5t-13 -120.5q-6 -42 -17.5 -89.5
t-33.5 -87.5t-56.5 -66t-88.5 -26q-9 0 -20 0.5t-17 1.5v80q39 0 64 15.5t40 40.5t23 57t14 65q5 28 8.5 60t6.5 65t5 65t3 61l8 194h368z" />
    <glyph glyph-name="afii10059" unicode="&#x40a;" horiz-adv-x="943" 
d="M671 428q61 0 105.5 -16.5t73 -45.5t42 -68t13.5 -84q0 -42 -13 -80.5t-41.5 -68t-73 -47.5t-107.5 -18h-210v347h-301v-347h-92v703h92v-275h301v275h92v-275h119zM812 214q0 72 -38 102.5t-105 30.5h-117v-267h114q70 0 108 33t38 101z" />
    <glyph glyph-name="afii10060" unicode="&#x40b;" horiz-adv-x="711" 
d="M285 407q20 7 60 15.5t93 8.5q60 0 101.5 -16t67.5 -45t37.5 -69.5t11.5 -89.5v-211h-92v200q0 33 -6 60.5t-22 47t-43.5 30.5t-70.5 11q-48 0 -82.5 -7t-54.5 -14v-328h-92v620h-178v83h486v-83h-216v-213z" />
    <glyph glyph-name="afii10061" unicode="&#x40c;" horiz-adv-x="570" 
d="M571 0h-118l-294 368v-368h-92v703h92v-325l282 325h105l-281 -324zM180 821l243 105l33 -81l-248 -89z" />
    <glyph glyph-name="uni040D" unicode="&#x40d;" horiz-adv-x="644" 
d="M159 155l319 548h99v-703h-92v563l-328 -563h-90v703h92v-548zM422 756l-248 89l33 81l243 -105z" />
    <glyph glyph-name="afii10062" unicode="&#x40e;" horiz-adv-x="541" 
d="M100 703l184 -381l173 381h95l-326 -703h-95l107 222l-239 481h101zM423 892q0 -26 -9 -50.5t-27 -43t-45.5 -29.5t-64.5 -11t-64.5 11t-46 29.5t-27.5 43t-9 50.5h73q0 -29 18 -49.5t56 -20.5t56 20.5t18 49.5h72z" />
    <glyph glyph-name="afii10145" unicode="&#x40f;" horiz-adv-x="634" 
d="M67 0v703h92v-620h316v620h92v-703h-206v-161h-87v161h-207z" />
    <glyph glyph-name="afii10017" unicode="&#x410;" horiz-adv-x="574" 
d="M414 180h-262l-58 -180h-88l232 703h97l233 -703h-96zM178 261h210l-104 325z" />
    <glyph glyph-name="afii10018" unicode="&#x411;" horiz-adv-x="565" 
d="M292 427q61 0 105 -17t72.5 -46t42 -67.5t13.5 -82.5q0 -41 -13 -79.5t-41.5 -68.5t-73 -48t-107.5 -18h-223v703h406v-83h-314v-193h133zM432 214q0 70 -38 101.5t-104 31.5h-131v-267h127q70 0 108 34t38 100z" />
    <glyph glyph-name="afii10019" unicode="&#x412;" horiz-adv-x="571" 
d="M272 703q65 0 108 -17t68.5 -43t35.5 -58t10 -63q0 -38 -12 -66t-29.5 -46.5t-37.5 -28.5t-36 -13q19 -3 45 -12t50 -28.5t40.5 -51.5t16.5 -81q0 -42 -14 -78t-44.5 -62t-78 -40.5t-113.5 -14.5h-214v703h205zM260 402q41 0 68.5 10t44 26.5t23 37t6.5 41.5
q0 54 -34.5 80t-98.5 26h-112v-221h103zM294 80q40 0 67.5 10t44.5 26.5t24 38t7 45.5q0 35 -12.5 58.5t-35 38t-54 21t-70.5 6.5h-108v-244h137z" />
    <glyph glyph-name="afii10020" unicode="&#x413;" horiz-adv-x="473" 
d="M67 703h391v-83h-299v-620h-92v703z" />
    <glyph glyph-name="afii10021" unicode="&#x414;" horiz-adv-x="654" 
d="M268 499q-2 -54 -7 -110.5t-16 -111.5t-28.5 -105t-43.5 -91h298v539h-199q-2 -30 -2.5 -60.5t-1.5 -60.5zM102 0v-159h-87v240h57q29 39 49 87.5t32 103.5t18.5 114.5t8.5 121.5l7 195h377v-622h70v-240h-87v159h-445z" />
    <glyph glyph-name="afii10022" unicode="&#x415;" 
d="M67 703h414v-83h-322v-213h252v-83h-252v-241h332v-83h-424v703z" />
    <glyph glyph-name="afii10024" unicode="&#x416;" horiz-adv-x="845" 
d="M278 374l-255 329h107l245 -326v326h91v-326l248 326h103l-254 -325l275 -378h-110l-262 369v-369h-91v369l-262 -369h-106z" />
    <glyph glyph-name="afii10025" unicode="&#x417;" horiz-adv-x="543" 
d="M66 118q26 -16 76.5 -33.5t118.5 -17.5q67 0 107 30t40 93q0 69 -42.5 98.5t-120.5 29.5h-85v83h84q74 0 108.5 34t34.5 86q0 55 -34.5 85t-103.5 30q-55 0 -100 -14.5t-67 -28.5l-34 70q38 23 88.5 39.5t113.5 16.5q60 0 103.5 -14t72 -39.5t42 -60t13.5 -76.5
q0 -30 -9 -56t-24.5 -47t-36 -36.5t-43.5 -23.5q60 -14 97.5 -60.5t37.5 -117.5q0 -43 -15 -80.5t-45.5 -65t-76 -43t-105.5 -15.5q-45 0 -83.5 7.5t-68.5 18t-50 21t-28 16.5z" />
    <glyph glyph-name="afii10026" unicode="&#x418;" horiz-adv-x="644" 
d="M159 155l319 548h99v-703h-92v563l-328 -563h-90v703h92v-548z" />
    <glyph glyph-name="afii10027" unicode="&#x419;" horiz-adv-x="644" 
d="M159 155l319 548h99v-703h-92v563l-328 -563h-90v703h92v-548zM323 825q41 0 59.5 21t18.5 52h75q0 -27 -9.5 -52.5t-28 -45t-47.5 -31t-68 -11.5t-68 11.5t-48 31t-28.5 45t-9.5 52.5h76q0 -31 18.5 -52t59.5 -21z" />
    <glyph glyph-name="afii10028" unicode="&#x41a;" horiz-adv-x="570" 
d="M571 0h-118l-294 368v-368h-92v703h92v-325l282 325h105l-281 -324z" />
    <glyph glyph-name="afii10029" unicode="&#x41b;" horiz-adv-x="639" 
d="M572 703v-703h-92v620h-205l-3 -111q-2 -57 -7 -121.5t-13 -120.5q-6 -42 -17.5 -89.5t-33.5 -87.5t-56.5 -66t-88.5 -26q-9 0 -20 0.5t-17 1.5v80q39 0 64 15.5t40 40.5t23 57t14 65q5 28 8.5 60t6.5 65t5 65t3 61l8 194h381z" />
    <glyph glyph-name="afii10030" unicode="&#x41c;" horiz-adv-x="755" 
d="M67 703h104l208 -427l205 427h104v-703h-92v545l-182 -370h-80l-176 362v-537h-91v703z" />
    <glyph glyph-name="afii10031" unicode="&#x41d;" horiz-adv-x="642" 
d="M483 703h92v-703h-92v334h-324v-334h-92v703h92v-286h324v286z" />
    <glyph glyph-name="afii10032" unicode="&#x41e;" horiz-adv-x="708" 
d="M354 -16q-78 0 -136 26.5t-97 75t-58.5 116t-19.5 149.5q0 81 19.5 148.5t58.5 116.5t97 76t136 27q77 0 135.5 -27t97.5 -76t58.5 -116.5t19.5 -148.5q0 -82 -19.5 -149.5t-58.5 -116t-97.5 -75t-135.5 -26.5zM354 68q54 0 94 20t66 57t38.5 89t12.5 117q0 64 -13 116.5
t-39 89t-65.5 56.5t-93.5 20t-93.5 -20t-65.5 -56.5t-39 -89t-13 -116.5q0 -65 12.5 -117t39 -89t66 -57t93.5 -20z" />
    <glyph glyph-name="afii10033" unicode="&#x41f;" horiz-adv-x="636" 
d="M569 703v-703h-92v620h-318v-620h-92v703h502z" />
    <glyph glyph-name="afii10034" unicode="&#x420;" horiz-adv-x="532" 
d="M408 483q0 65 -39 102.5t-107 37.5h-105v-280h96q75 0 115 37.5t40 102.5zM500 483q0 -36 -12.5 -75t-41.5 -71.5t-75.5 -53t-115.5 -20.5h-98v-263h-90v703h197q65 0 110 -20.5t73 -53t40.5 -71.5t12.5 -75z" />
    <glyph glyph-name="afii10035" unicode="&#x421;" horiz-adv-x="585" 
d="M354 627q-107 0 -159 -73.5t-52 -202.5t51.5 -202t158.5 -73q30 0 56.5 5.5t48 13.5t38.5 18t28 18l48 -67q-31 -27 -88 -51t-135 -24q-76 0 -133 25t-95.5 71.5t-58 114t-19.5 151.5q0 81 19.5 148t58.5 114.5t97 74t136 26.5q71 0 124 -20.5t95 -55.5l-48 -67
q-13 10 -29 20t-37 18t-46.5 13t-58.5 5z" />
    <glyph glyph-name="afii10036" unicode="&#x422;" horiz-adv-x="548" 
d="M228 620h-213v83h518v-83h-213v-620h-92v620z" />
    <glyph glyph-name="afii10037" unicode="&#x423;" horiz-adv-x="541" 
d="M100 703l184 -381l173 381h95l-326 -703h-95l107 222l-239 481h101z" />
    <glyph glyph-name="afii10038" unicode="&#x424;" horiz-adv-x="764" 
d="M428 172q105 4 158 56.5t53 141.5q0 88 -53 140t-158 57v-395zM337 94q-72 3 -128 23.5t-94.5 56.5t-59 85.5t-20.5 110.5q0 60 20.5 109.5t59 85t94.5 56.5t128 24v81h91v-81q71 -3 127 -24t94.5 -57t59 -85t20.5 -109q0 -61 -20.5 -110.5t-59 -85.5t-94.5 -56.5
t-127 -23.5v-94h-91v94zM337 567q-106 -5 -158.5 -57t-52.5 -140q0 -89 52.5 -141.5t158.5 -56.5v395z" />
    <glyph glyph-name="afii10039" unicode="&#x425;" horiz-adv-x="583" 
d="M448 703h102l-203 -328l229 -375h-111l-176 298l-178 -298h-105l231 371l-200 332h109l149 -255z" />
    <glyph glyph-name="afii10040" unicode="&#x426;" horiz-adv-x="649" 
d="M629 82v-242h-86v160h-476v703h92v-621h308v621h92v-621h70z" />
    <glyph glyph-name="afii10041" unicode="&#x427;" horiz-adv-x="563" 
d="M404 703h92v-703h-92v308q-20 -6 -62 -15t-97 -9q-61 0 -103 16t-68 44.5t-37.5 69t-11.5 89.5v200h92v-189q0 -33 6 -60.5t22.5 -47t45 -30t73.5 -10.5q49 0 84.5 7.5t55.5 14.5v315z" />
    <glyph glyph-name="afii10042" unicode="&#x428;" horiz-adv-x="869" 
d="M67 0v703h92v-621h229v621h92v-621h230v621h92v-703h-735z" />
    <glyph glyph-name="afii10043" unicode="&#x429;" horiz-adv-x="887" 
d="M67 0v703h92v-621h227v621h92v-621h227v621h92v-621h70v-242h-86v160h-714z" />
    <glyph glyph-name="afii10044" unicode="&#x42a;" horiz-adv-x="677" 
d="M549 218q0 73 -38 106t-104 33h-123v-277h119q70 0 108 35t38 103zM284 437h125q61 0 105 -17t72.5 -47t42 -70t13.5 -85q0 -42 -13 -81.5t-41.5 -69.5t-73 -48.5t-107.5 -18.5h-215v620h-177v83h269v-266z" />
    <glyph glyph-name="afii10045" unicode="&#x42b;" horiz-adv-x="763" 
d="M418 219q0 72 -37.5 105.5t-103.5 33.5h-118v-278h114q70 0 107.5 35.5t37.5 103.5zM511 219q0 -42 -13 -81.5t-41.5 -70t-72.5 -49t-107 -18.5h-210v703h92v-265h119q61 0 105 -17.5t72.5 -47t42 -69.5t13.5 -85zM696 0h-92v703h92v-703z" />
    <glyph glyph-name="afii10046" unicode="&#x42c;" horiz-adv-x="558" 
d="M430 219q0 72 -38 105.5t-104 33.5h-129v-278h126q69 0 107 35.5t38 103.5zM523 219q0 -42 -13 -81.5t-41.5 -70t-73 -49t-107.5 -18.5h-221v703h92v-265h131q61 0 105 -17.5t72.5 -47t42 -69.5t13.5 -85z" />
    <glyph glyph-name="afii10047" unicode="&#x42d;" horiz-adv-x="604" 
d="M246 73q98 0 153 61.5t62 184.5h-304v83h303q-9 116 -64.5 172.5t-148.5 56.5q-59 0 -100.5 -20t-66.5 -40l-43 69q15 12 36.5 25.5t48.5 24t60 17.5t72 7q73 0 130 -24.5t96.5 -71t60 -113t20.5 -151.5q0 -83 -19 -150t-57.5 -114.5t-96.5 -73.5t-135 -26
q-74 0 -132.5 19.5t-95.5 50.5l40 71q12 -9 30.5 -19t42 -19t51 -14.5t57.5 -5.5z" />
    <glyph glyph-name="afii10048" unicode="&#x42e;" horiz-adv-x="918" 
d="M580 -15q-69 0 -121.5 24t-89.5 67.5t-57 105t-24 135.5h-129v-317h-92v703h92v-305h130q5 72 26 131t57.5 101t88.5 65t120 23q72 0 127 -27t91.5 -75t55 -115.5t18.5 -148.5t-18.5 -148.5t-55.5 -116t-92 -75.5t-127 -27zM383 352q0 -65 12 -116.5t36.5 -88.5
t61.5 -56.5t87 -19.5t87 19.5t61.5 56.5t36.5 88.5t12 116.5q0 64 -12 116t-36.5 88.5t-61.5 56t-87 19.5t-87 -19.5t-61.5 -56t-36.5 -88.5t-12 -116z" />
    <glyph glyph-name="afii10049" unicode="&#x42f;" horiz-adv-x="571" 
d="M184 299q-63 22 -96.5 74t-33.5 115q0 42 12.5 81t40.5 68.5t73 47.5t110 18h214v-703h-92v278h-139l-150 -278h-102zM412 358v265h-115q-73 0 -112 -34t-39 -100q0 -63 39 -97t115 -34h112z" />
    <glyph glyph-name="afii10065" unicode="&#x430;" horiz-adv-x="488" 
d="M350 233q-1 0 -13 2t-30 3.5t-39 3t-39 1.5q-32 0 -54.5 -8t-36.5 -21.5t-20.5 -31.5t-6.5 -39q0 -43 28.5 -64t74.5 -21q25 0 49 8.5t43.5 24t31.5 38t12 49.5v55zM356 0l-4 56q-23 -32 -67 -50.5t-91 -18.5q-30 0 -60 8t-54 26t-39.5 48t-15.5 74q0 77 50 124t150 47
q16 0 36 -1.5t38 -3t32 -3t19 -2.5v30q0 55 -32.5 79t-92.5 24q-54 0 -91.5 -12.5t-54.5 -22.5l-27 64q9 6 25 14t39.5 15.5t54 12.5t68.5 5q91 0 144 -44.5t53 -129.5v-339h-80z" />
    <glyph glyph-name="afii10066" unicode="&#x431;" horiz-adv-x="556" 
d="M373 663q-59 -8 -102 -23.5t-72.5 -45t-46 -76.5t-20.5 -117q27 48 73 73t101 25q46 0 86 -16.5t69.5 -48.5t46 -78.5t16.5 -106.5q0 -122 -61 -192t-176 -70q-64 0 -109.5 22.5t-74 64.5t-42 101.5t-13.5 134.5q0 94 12 168.5t45.5 128.5t93 86.5t155.5 43.5l18 2
q43 5 68 8.5t40 8.5l14 -72q-24 -8 -106 -19zM287 64q75 0 111 47t36 137q0 39 -8.5 71t-26.5 55t-45 36t-64 13q-35 0 -62.5 -13t-46.5 -36.5t-29 -54.5t-10 -67q0 -90 36.5 -139t108.5 -49z" />
    <glyph glyph-name="afii10067" unicode="&#x432;" horiz-adv-x="498" 
d="M468 144q0 -26 -8.5 -52t-30 -46.5t-59.5 -33t-97 -12.5h-218v501h207q55 0 90 -11.5t55 -30.5t27.5 -42.5t7.5 -48.5q0 -33 -20.5 -62t-55.5 -43q54 -15 78 -46t24 -73zM382 146q0 79 -113 79h-129v-159h130q60 0 86 21t26 59zM358 364q0 35 -23 53t-80 18h-115v-146
h113q105 0 105 75z" />
    <glyph glyph-name="afii10068" unicode="&#x433;" horiz-adv-x="410" 
d="M394 500v-76h-253v-424h-89v500h342z" />
    <glyph glyph-name="afii10069" unicode="&#x434;" horiz-adv-x="572" 
d="M467 0h-367v-131h-80v204h53q18 24 31.5 52t23 64.5t15.5 84t9 110.5l6 116h327v-427h62v-204h-80v131zM398 426h-163l-3 -53q-3 -58 -8 -102.5t-13 -80t-19.5 -64t-27.5 -53.5h234v353z" />
    <glyph glyph-name="afii10070" unicode="&#x435;" 
d="M448 23q-5 -3 -19 -9t-35 -12t-48.5 -10.5t-61.5 -4.5q-125 0 -188 70t-63 194q0 58 15 106.5t44 83t71.5 53.5t98.5 19q51 0 91 -15.5t68 -48.5t43 -84.5t15 -123.5v-16h-356q5 -71 45 -115t123 -44q52 0 85.5 9t47.5 14zM387 297q-5 67 -33.5 104t-91.5 37
q-64 0 -95.5 -37.5t-41.5 -103.5h262z" />
    <glyph glyph-name="afii10072" unicode="&#x436;" horiz-adv-x="707" 
d="M214 264l-195 236h100l190 -241v241h86v-241l191 241h98l-195 -235l210 -265h-104l-200 256v-256h-86v256l-200 -256h-103z" />
    <glyph glyph-name="afii10073" unicode="&#x437;" horiz-adv-x="456" 
d="M205 439q-51 0 -84.5 -12.5t-54.5 -23.5l-28 65q23 14 68.5 29.5t104.5 15.5q98 0 144.5 -39t46.5 -100q0 -35 -21.5 -66.5t-59.5 -47.5q55 -16 77.5 -49.5t22.5 -75.5q0 -66 -52.5 -107t-150.5 -41q-66 0 -116.5 17t-76.5 35l31 65q25 -14 62.5 -28.5t93.5 -14.5
q66 0 93.5 21.5t27.5 57.5q0 78 -115 78h-96v71h90q51 0 78 19.5t27 56.5q0 36 -29 55t-83 19z" />
    <glyph glyph-name="afii10074" unicode="&#x438;" horiz-adv-x="533" 
d="M140 0h-88v500h87v-372l254 372h88v-500h-87v372z" />
    <glyph glyph-name="afii10075" unicode="&#x439;" horiz-adv-x="533" 
d="M140 0h-88v500h87v-372l254 372h88v-500h-87v372zM413 708q0 -26 -9 -50.5t-27 -43t-45.5 -29.5t-64.5 -11t-64.5 11t-46 29.5t-27.5 43t-9 50.5h73q0 -29 18 -49.5t56 -20.5t56 20.5t18 49.5h72z" />
    <glyph glyph-name="afii10076" unicode="&#x43a;" horiz-adv-x="481" 
d="M476 0h-111l-225 255v-255h-88v500h88v-241l217 241h103l-218 -237z" />
    <glyph glyph-name="afii10077" unicode="&#x43b;" horiz-adv-x="542" 
d="M236 425l-3 -64q-3 -63 -9 -115t-16 -93q-17 -73 -56.5 -114t-111.5 -41h-12t-13 1v75q48 0 71.5 22.5t37.5 76.5q10 36 15 91.5t8 114.5l6 121h337v-500h-89v425h-165z" />
    <glyph glyph-name="afii10078" unicode="&#x43c;" horiz-adv-x="605" 
d="M469 0v371l-134 -233h-65l-134 233v-371h-84v500h93l157 -278l158 278h93v-500h-84z" />
    <glyph glyph-name="afii10079" unicode="&#x43d;" horiz-adv-x="523" 
d="M471 0h-89v218h-241v-218h-89v500h89v-207h241v207h89v-500z" />
    <glyph glyph-name="afii10080" unicode="&#x43e;" horiz-adv-x="536" 
d="M268 -13q-56 0 -99.5 19t-73.5 53.5t-46 83t-16 107.5q0 58 16 106.5t46.5 83.5t74 54t98.5 19t98.5 -19t74 -53.5t46.5 -83t16 -107.5q0 -60 -16 -108.5t-46 -83t-74 -53t-99 -18.5zM268 66q73 0 108 51t35 133q0 40 -9 73.5t-26.5 58t-44.5 38.5t-63 14q-71 0 -107 -51
t-36 -133q0 -85 35 -134.5t108 -49.5z" />
    <glyph glyph-name="afii10081" unicode="&#x43f;" horiz-adv-x="519" 
d="M467 0h-89v425h-237v-425h-89v500h415v-500z" />
    <glyph glyph-name="afii10082" unicode="&#x440;" horiz-adv-x="542" 
d="M52 -220v720h82l4 -65q7 12 20 26t32.5 25.5t44.5 19t57 7.5q55 0 96 -20t68 -55t40 -81.5t13 -100.5q0 -74 -20 -124t-52.5 -81.5t-74 -45t-83.5 -13.5q-51 0 -84 11.5t-54 23.5v-247h-89zM140 119q14 -16 48.5 -33t82.5 -17q67 0 106.5 44.5t39.5 142.5q0 38 -8 70.5
t-25 56t-42.5 36.5t-60.5 13q-70 0 -105.5 -53.5t-35.5 -154.5v-105z" />
    <glyph glyph-name="afii10083" unicode="&#x441;" horiz-adv-x="443" 
d="M125 250q0 -95 40 -138.5t102 -43.5q47 0 79.5 12t43.5 18l35 -63q-2 -3 -15 -10.5t-34 -15.5t-49.5 -14.5t-62.5 -6.5q-110 0 -170.5 68.5t-60.5 193.5q0 58 16 106.5t46 83t73 53.5t97 19q36 0 65 -7.5t50 -16.5t33.5 -17.5t14.5 -11.5l-39 -64q-3 3 -13.5 9t-26.5 12
t-37 10.5t-45 4.5q-62 0 -102 -44.5t-40 -136.5z" />
    <glyph glyph-name="afii10084" unicode="&#x442;" horiz-adv-x="461" 
d="M445 500v-75h-170v-425h-89v425h-170v75h429z" />
    <glyph glyph-name="afii10085" unicode="&#x443;" horiz-adv-x="494" 
d="M96 -220l104 248l-194 472h100l142 -365l146 365h94l-301 -720h-91z" />
    <glyph glyph-name="afii10086" unicode="&#x444;" horiz-adv-x="696" 
d="M305 -3q-65 1 -116.5 20.5t-86.5 52.5t-53.5 79t-18.5 101t19 100.5t54 78.5t86 52t116 21v248h86v-248q64 -2 115 -21t86.5 -52t54.5 -78.5t19 -100.5t-18.5 -101t-54 -79.5t-86.5 -52.5t-116 -20v-217h-86v217zM574 250q0 79 -44.5 127.5t-138.5 51.5v-359
q47 1 81.5 14.5t57 37t33.5 56.5t11 72zM122 250q0 -39 11 -72t33.5 -56.5t57 -37t81.5 -14.5v359q-47 -1 -81.5 -14.5t-57 -37t-33.5 -56t-11 -71.5z" />
    <glyph glyph-name="afii10087" unicode="&#x445;" horiz-adv-x="481" 
d="M20 500h105l117 -173l116 173h95l-164 -236l184 -264h-106l-132 195l-133 -195h-96l181 259z" />
    <glyph glyph-name="afii10088" unicode="&#x446;" horiz-adv-x="543" 
d="M455 73h63v-204h-81v131h-385v500h89v-427h225v427h89v-427z" />
    <glyph glyph-name="afii10089" unicode="&#x447;" horiz-adv-x="492" 
d="M32 500h89v-149q0 -23 5 -42t18.5 -33t36 -22t57.5 -8q40 0 69.5 4t43.5 9v241h89v-500h-89v186q-16 -5 -48.5 -10.5t-82.5 -5.5t-86 12t-58.5 34.5t-33 54t-10.5 70.5v159z" />
    <glyph glyph-name="afii10090" unicode="&#x448;" horiz-adv-x="732" 
d="M680 0h-628v500h89v-427h181v427h89v-427h180v427h89v-500z" />
    <glyph glyph-name="afii10091" unicode="&#x449;" horiz-adv-x="766" 
d="M660 0h-608v500h89v-427h181v427h89v-427h180v427h89v-427h61v-204h-81v131z" />
    <glyph glyph-name="afii10092" unicode="&#x44a;" horiz-adv-x="575" 
d="M349 69q63 0 91 24.5t28 68.5q0 90 -117 90h-114v-183h112zM150 0v425h-134v75h221v-179h117q56 0 94 -12.5t61 -34.5t33 -50.5t10 -61.5q0 -31 -9.5 -60t-32.5 -51.5t-61.5 -36.5t-96.5 -14h-202z" />
    <glyph glyph-name="afii10093" unicode="&#x44b;" horiz-adv-x="671" 
d="M364 162q0 90 -117 90h-108v-183h106q63 0 91 24.5t28 68.5zM448 162q0 -31 -9.5 -60t-32.5 -51.5t-61.5 -36.5t-96.5 -14h-196v500h87v-179h111q56 0 94 -12.5t61 -34.5t33 -50.5t10 -61.5zM530 500h89v-500h-89v500z" />
    <glyph glyph-name="afii10094" unicode="&#x44c;" horiz-adv-x="481" 
d="M251 69q63 0 91 24.5t28 68.5q0 90 -117 90h-114v-183h112zM52 0v500h87v-179h117q56 0 94 -12.5t61 -34.5t33 -50.5t10 -61.5q0 -31 -9.5 -60t-32.5 -51.5t-61.5 -36.5t-96.5 -14h-202z" />
    <glyph glyph-name="afii10095" unicode="&#x44d;" horiz-adv-x="463" 
d="M195 -13q-35 0 -64 6.5t-50.5 14.5t-35.5 16.5t-20 13.5l31 66q17 -11 52 -25t84 -14q63 0 103.5 37t46.5 117h-216v70h216q-9 77 -48.5 111.5t-98.5 34.5q-48 0 -76 -13t-42 -22l-34 62q9 7 22.5 16t32.5 17t44 13t58 5q53 0 95.5 -18t72.5 -52t46 -82.5t16 -109.5
q0 -60 -15 -109t-44.5 -83.5t-73.5 -53t-102 -18.5z" />
    <glyph glyph-name="afii10096" unicode="&#x44e;" horiz-adv-x="727" 
d="M470 -13q-51 0 -91 16t-68.5 46t-45 72t-20.5 94h-104v-215h-89v500h89v-212h104q4 51 21 92.5t45.5 71t68.5 45.5t90 16q55 0 97.5 -19t71.5 -54t44 -83.5t15 -106.5q0 -60 -15 -108.5t-44.5 -83t-72 -53t-96.5 -18.5zM470 66q71 0 104 48.5t33 135.5q0 85 -34 134.5
t-103 49.5t-103.5 -49t-34.5 -135q0 -85 33.5 -134.5t104.5 -49.5z" />
    <glyph glyph-name="afii10097" unicode="&#x44f;" horiz-adv-x="489" 
d="M44 347q0 30 10 57.5t33.5 49t62 34t95.5 12.5h192v-500h-86v191h-128l-119 -191h-94l132 206q-54 17 -76 54.5t-22 86.5zM131 346q0 -45 28 -65t83 -20h109v169h-102q-62 0 -90 -20t-28 -64z" />
    <glyph glyph-name="uni0450" unicode="&#x450;" 
d="M448 23q-5 -3 -19 -9t-35 -12t-48.5 -10.5t-61.5 -4.5q-125 0 -188 70t-63 194q0 58 15 106.5t44 83t71.5 53.5t98.5 19q51 0 91 -15.5t68 -48.5t43 -84.5t15 -123.5v-16h-356q5 -71 45 -115t123 -44q52 0 85.5 9t47.5 14zM387 297q-5 67 -33.5 104t-91.5 37
q-64 0 -95.5 -37.5t-41.5 -103.5h262zM371 568l-223 102l39 79l216 -117z" />
    <glyph glyph-name="afii10071" unicode="&#x451;" 
d="M448 23q-5 -3 -19 -9t-35 -12t-48.5 -10.5t-61.5 -4.5q-125 0 -188 70t-63 194q0 58 15 106.5t44 83t71.5 53.5t98.5 19q51 0 91 -15.5t68 -48.5t43 -84.5t15 -123.5v-16h-356q5 -71 45 -115t123 -44q52 0 85.5 9t47.5 14zM387 297q-5 67 -33.5 104t-91.5 37
q-64 0 -95.5 -37.5t-41.5 -103.5h262zM414 650q0 -26 -15.5 -43t-41.5 -17t-41.5 17t-15.5 43t15.5 43t41.5 17t41.5 -17t15.5 -43zM221 650q0 -26 -15.5 -43t-41.5 -17t-41.5 17t-15.5 43t15.5 43t41.5 17t41.5 -17t15.5 -43z" />
    <glyph glyph-name="afii10099" unicode="&#x452;" horiz-adv-x="551" 
d="M499 -26q0 -107 -45 -156.5t-139 -49.5q-22 0 -44 3.5t-36 8.5l9 69q8 -2 23 -5t40 -3q32 0 52 8.5t31.5 27.5t15.5 49t4 73v313q0 68 -28 95.5t-75 27.5q-40 0 -67 -15.5t-44 -41t-24.5 -59t-7.5 -69.5v-250h-88v597h-66v65h66v88h88v-88h179v-65h-179v-161
q27 40 68 58.5t93 18.5q84 0 129 -49t45 -141v-349z" />
    <glyph glyph-name="afii10100" unicode="&#x453;" horiz-adv-x="410" 
d="M394 500v-76h-253v-424h-89v500h342zM100 632l216 117l39 -79l-223 -102z" />
    <glyph glyph-name="afii10101" unicode="&#x454;" horiz-adv-x="454" 
d="M272 436q-59 0 -100.5 -36.5t-49.5 -110.5h211v-70h-212q7 -81 48.5 -118t104.5 -37q48 0 76 10.5t45 19.5l15.5 -31t15.5 -30q-8 -6 -21 -13.5t-32.5 -15t-45.5 -12.5t-59 -5q-115 0 -175 68.5t-60 193.5q0 59 16 107.5t46.5 83.5t74 54t98.5 19q34 0 61 -6.5
t47.5 -15.5t33.5 -18.5t19 -15.5l-38 -60q-6 4 -17 10.5t-26 13t-34.5 11t-41.5 4.5z" />
    <glyph glyph-name="afii10102" unicode="&#x455;" horiz-adv-x="449" 
d="M48 108q25 -13 69 -29t104 -16q33 0 54.5 5.5t34 15t18 22t5.5 27.5q0 27 -20.5 45.5t-71.5 28.5l-61 12q-32 6 -59.5 17t-47.5 28.5t-31.5 41.5t-11.5 57q0 68 53 109t142 41q58 0 104 -14t75 -31l-28 -66q-7 4 -22.5 10t-36 11.5t-44.5 9.5t-48 4q-55 0 -81 -19
t-26 -51q0 -27 18.5 -43t73.5 -26l62 -12q72 -14 112 -46t40 -99q0 -70 -52.5 -112t-149.5 -42q-71 0 -123.5 18t-82.5 38z" />
    <glyph glyph-name="afii10103" unicode="&#x456;" horiz-adv-x="203" 
d="M57 500h89v-500h-89v500zM159 662q0 -27 -15.5 -44t-42.5 -17t-42.5 17.5t-15.5 43.5t15.5 43.5t42.5 17.5t42.5 -17t15.5 -44z" />
    <glyph glyph-name="afii10104" unicode="&#x457;" horiz-adv-x="203" 
d="M57 500h89v-500h-89v500zM257 663q0 -26 -15.5 -43t-41.5 -17t-41.5 17t-15.5 43t15.5 43t41.5 17t41.5 -17t15.5 -43zM64 663q0 -26 -15.5 -43t-41.5 -17t-41.5 17t-15.5 43t15.5 43t41.5 17t41.5 -17t15.5 -43z" />
    <glyph glyph-name="afii10105" unicode="&#x458;" horiz-adv-x="203" 
d="M57 500h89v-528q0 -106 -45.5 -155t-139.5 -49q-37 0 -79 12l9 69q19 -5 35 -6.5t30 -1.5q30 0 49.5 8t31 26t16 46t4.5 69v510zM159 662q0 -27 -15.5 -44t-42.5 -17t-42.5 17.5t-15.5 43.5t15.5 43.5t42.5 17.5t42.5 -17t15.5 -44z" />
    <glyph glyph-name="afii10106" unicode="&#x459;" horiz-adv-x="807" 
d="M580 69q63 0 91 24.5t28 68.5q0 90 -117 90h-107v-183h105zM388 0v425h-153l-3 -64q-6 -125 -26 -208q-17 -73 -55.5 -114t-110.5 -41h-12t-13 1v75q48 0 73 22.5t39 76.5q10 36 15 91.5t8 114.5l6 121h319v-179h110q56 0 94 -12.5t61 -34.5t33 -50.5t10 -61.5
q0 -31 -9.5 -60t-32.5 -51.5t-61.5 -36.5t-96.5 -14h-195z" />
    <glyph glyph-name="afii10107" unicode="&#x45a;" horiz-adv-x="789" 
d="M369 0v239h-228v-239h-89v500h89v-190h228v190h87v-190h113q56 0 94 -12t61.5 -32.5t33.5 -48.5t10 -60q0 -30 -10 -58.5t-33 -50t-62 -35t-96 -13.5h-198zM683 156q0 84 -116 84h-111v-171h109q63 0 90.5 22.5t27.5 64.5z" />
    <glyph glyph-name="afii10108" unicode="&#x45b;" horiz-adv-x="528" 
d="M141 436q7 12 20.5 25.5t33 25t46 19t59.5 7.5q86 0 131 -50t45 -137v-326h-89v307q0 38 -7.5 63t-21.5 39.5t-33 20t-41 5.5q-38 0 -65.5 -16.5t-44.5 -43.5t-25 -62t-8 -72v-241h-89v598h-52v69h52v83h89v-83h180v-69h-180v-162z" />
    <glyph glyph-name="afii10109" unicode="&#x45c;" horiz-adv-x="481" 
d="M476 0h-111l-225 255v-255h-88v500h88v-241l217 241h103l-218 -237zM115 632l216 117l39 -79l-223 -102z" />
    <glyph glyph-name="uni045D" unicode="&#x45d;" horiz-adv-x="533" 
d="M140 0h-88v500h87v-372l254 372h88v-500h-87v372zM350 568l-223 102l39 79l216 -117z" />
    <glyph glyph-name="afii10110" unicode="&#x45e;" horiz-adv-x="494" 
d="M96 -220l104 248l-194 472h100l142 -365l146 365h94l-301 -720h-91zM394 708q0 -26 -9 -50.5t-27 -43t-45.5 -29.5t-64.5 -11t-64.5 11t-46 29.5t-27.5 43t-9 50.5h73q0 -29 18 -49.5t56 -20.5t56 20.5t18 49.5h72z" />
    <glyph glyph-name="afii10193" unicode="&#x45f;" horiz-adv-x="515" 
d="M463 0h-165v-131h-81v131h-165v500h89v-425h233v425h89v-500z" />
    <glyph glyph-name="uni0462" unicode="&#x462;" horiz-adv-x="680" 
d="M186 642v84h92v-84h224v-79h-224v-138h133q61 0 105.5 -17t73 -45.5t42 -67.5t13.5 -82q0 -41 -13.5 -79.5t-42 -68t-73 -47.5t-107.5 -18h-223v563h-176v79h176zM552 213q0 69 -38 100.5t-105 31.5h-131v-265h128q70 0 108 34t38 99z" />
    <glyph glyph-name="uni0463" unicode="&#x463;" horiz-adv-x="565" 
d="M458 159q0 46 -31 67t-95 21h-111v-178h119q62 0 90 23t28 67zM134 0v429h-134v71h134v250h87v-250h183v-71h-183v-113h120q56 0 94.5 -12.5t62 -33.5t34 -49.5t10.5 -61.5q0 -31 -10 -59.5t-33.5 -50.5t-62.5 -35.5t-97 -13.5h-205z" />
    <glyph glyph-name="uni0472" unicode="&#x472;" horiz-adv-x="699" 
d="M43 352q0 81 19.5 148.5t58 116t96 75.5t133.5 27t133.5 -27t95.5 -75.5t57.5 -116t19.5 -148.5t-19.5 -148.5t-57.5 -116.5t-96 -76t-134 -27t-133.5 27t-95.5 76t-57.5 116.5t-19.5 148.5zM340 316q-23 12 -47.5 22.5t-50.5 10.5q-55 0 -101 -52q10 -105 61.5 -167
t146.5 -62q51 0 90 19t65 53.5t39.5 84t15.5 109.5q-24 -27 -53.5 -39t-58.5 -12q-28 0 -53 9t-54 24zM349 633q-101 0 -153 -69t-57 -187q24 26 53 38t60 12q27 0 52 -9t54 -24q23 -12 47.5 -22.5t51.5 -10.5q28 0 52 13t48 39q-12 103 -63 161.5t-145 58.5z" />
    <glyph glyph-name="uni0473" unicode="&#x473;" horiz-adv-x="539" 
d="M270 513q57 0 101 -19t74 -54t45.5 -83.5t15.5 -106.5q0 -60 -16 -108.5t-46 -83t-74 -53t-100 -18.5q-57 0 -101 18.5t-74.5 53t-46 83t-15.5 108.5q0 58 16 106.5t46 83.5t74 54t101 19zM270 64q74 0 110.5 45t39.5 122q-16 -16 -37 -26t-44 -10q-20 0 -37.5 7.5
t-35 16.5t-35.5 16.5t-37 7.5q-41 0 -73 -35q9 -67 44.5 -105.5t104.5 -38.5zM270 436q-71 0 -108.5 -45.5t-42.5 -120.5q28 23 46.5 29.5t34.5 6.5q19 0 37 -7.5t35.5 -16.5t35.5 -16.5t37 -7.5q20 0 37.5 7t35.5 27q-10 66 -46 105t-102 39z" />
    <glyph glyph-name="uni0474" unicode="&#x474;" horiz-adv-x="624" 
d="M428 577q8 28 19.5 52.5t28.5 41.5t41.5 27t58.5 10q13 0 25 -1t19 -3l-6 -77q-6 1 -13.5 1h-13.5q-39 0 -56 -23.5t-27 -57.5l-163 -547h-102l-233 703h96l190 -597z" />
    <glyph glyph-name="uni0475" unicode="&#x475;" horiz-adv-x="521" 
d="M292 0h-100l-186 500h95l144 -413l99 314q6 20 14 38t21.5 32t33.5 22.5t51 8.5q29 0 47 -5l-8 -71q-5 1 -11.5 1.5t-14.5 0.5q-26 0 -37 -14t-20 -40z" />
    <glyph glyph-name="uni048A" unicode="&#x48a;" horiz-adv-x="668" 
d="M647 82v-8q0 -42 -4 -73t-13 -56t-22.5 -47t-31.5 -47q-5 -7 -10 -13.5t-10 -13.5l-64 45l21 29q23 32 35.5 57t14.5 45h-78v563l-328 -563h-90v703h92v-548l319 548h99v-621h70zM254 892q0 -29 18 -49.5t56 -20.5t56 20.5t18 49.5h72q0 -26 -9 -50.5t-27 -43
t-45.5 -29.5t-64.5 -11t-64.5 11t-46 29.5t-27.5 43t-9 50.5h73z" />
    <glyph glyph-name="uni048B" unicode="&#x48b;" horiz-adv-x="568" 
d="M192 708q0 -29 18 -49.5t56 -20.5t56 20.5t18 49.5h72q0 -26 -9 -50.5t-27 -43t-45.5 -29.5t-64.5 -11t-64.5 11t-46 29.5t-27.5 43t-9 50.5h73zM394 372l-254 -372h-88v500h87v-372l254 372h88v-426h65v-15q0 -35 -4 -61.5t-12 -48.5t-19 -41t-25 -37l-19 -25l-60 42
l20 27q21 30 30.5 50t10.5 35h-74v372z" />
    <glyph glyph-name="uni048C" unicode="&#x48c;" horiz-adv-x="585" 
d="M92 555h-82v71h82v77h91v-77h157v-71h-157v-130h132q61 0 105.5 -17t73 -45.5t42.5 -67.5t14 -82q0 -41 -13.5 -79.5t-42 -68t-73 -47.5t-107.5 -18h-222v555zM457 213q0 69 -38.5 100.5t-104.5 31.5h-131v-265h127q70 0 108.5 34t38.5 99z" />
    <glyph glyph-name="uni048D" unicode="&#x48d;" horiz-adv-x="502" 
d="M306 446v-63h-145v-79h118q55 0 93.5 -11t62 -31t34 -47t10.5 -60q0 -31 -10 -59t-33 -49.5t-62 -34t-96 -12.5h-204v383h-64v63h64v67h87v-67h145zM395 154q0 45 -29 63t-89 18h-116v-166h114q63 0 91.5 20t28.5 65z" />
    <glyph glyph-name="uni048E" unicode="&#x48e;" horiz-adv-x="548" 
d="M425 482q0 65 -39 103t-107 38h-121v-281h100q24 0 45 3q-12 19 -23.5 37.5t-22.5 38.5q15 9 30 18.5t31 18.5q14 -23 27 -44.5t27 -44.5q26 17 39.5 44t13.5 69zM517 482q0 -55 -24.5 -105t-78.5 -80l55 -89q-16 -10 -31 -19.5t-31 -18.5q-15 26 -30.5 50.5t-30.5 49.5
q-32 -7 -76 -7h-112v-263h-91v703h214q65 0 110 -21t73 -53t40.5 -71.5t12.5 -75.5z" />
    <glyph glyph-name="uni048F" unicode="&#x48f;" horiz-adv-x="544" 
d="M141 -220h-89v720h82l4 -65q7 12 20 26t32 25.5t44.5 19t57.5 7.5q55 0 96 -20t68 -55t40 -81.5t13 -100.5q0 -88 -27.5 -142.5t-70.5 -83.5l50 -80l-59 -35l-53 86q-35 -9 -70 -9q-51 0 -84 11.5t-54 23.5v-247zM281 432q-70 0 -105.5 -53.5t-35.5 -154.5v-110
q7 -7 20 -15.5t30 -15.5t37.5 -11.5t43.5 -4.5q22 0 37 4l-53 89l57 35l56 -94q24 23 38 61t14 94q0 38 -8.5 70.5t-26 56t-43.5 36.5t-61 13z" />
    <glyph glyph-name="afii10050" unicode="&#x490;" horiz-adv-x="479" 
d="M67 703h307v123h85v-206h-300v-620h-92v703z" />
    <glyph glyph-name="afii10098" unicode="&#x491;" horiz-adv-x="414" 
d="M394 424h-253v-424h-89v500h263v119h79v-195z" />
    <glyph glyph-name="uni0492" unicode="&#x492;" horiz-adv-x="497" 
d="M91 317h-81v78h81v308h391v-83h-299v-225h152v-78h-152v-317h-92v317z" />
    <glyph glyph-name="uni0493" unicode="&#x493;" horiz-adv-x="434" 
d="M418 500v-76h-253v-140h132v-67h-132v-217h-89v217h-66v67h66v216h342z" />
    <glyph glyph-name="uni0494" unicode="&#x494;" horiz-adv-x="571" 
d="M283 421q58 0 104 -18t78 -55t49 -93.5t17 -134.5t-20.5 -136t-55.5 -96t-80.5 -57t-94.5 -19q-24 0 -49 3t-39 8q4 19 8 37t7 37q14 -4 33 -5.5t33 -1.5q35 0 65 12.5t52.5 39.5t35 70.5t12.5 105.5q0 112 -40 166.5t-128 54.5q-32 0 -60 -5.5t-51 -14.5v-319h-92v703
h387v-83h-295v-222q21 9 52 16t72 7z" />
    <glyph glyph-name="uni0495" unicode="&#x495;" horiz-adv-x="514" 
d="M245 -148q25 0 49 8.5t43 30t31 57t12 89.5q0 96 -36 138.5t-109 42.5q-27 0 -51 -5t-43 -13v-200h-89v500h347v-75h-258v-151q19 8 45.5 13.5t60.5 5.5q106 0 164 -63t58 -191q0 -71 -19 -120.5t-50 -81t-70.5 -46t-81.5 -14.5q-24 0 -46 2t-36 7l10 74q10 -2 27 -5
t42 -3z" />
    <glyph glyph-name="uni0496" unicode="&#x496;" horiz-adv-x="867" 
d="M277 374l-255 329h107l245 -326v326h91v-326l248 326h103l-254 -325l216 -296h74v-242h-86v160h-39l-262 369v-369h-91v369l-262 -369h-106z" />
    <glyph glyph-name="uni0497" unicode="&#x497;" horiz-adv-x="723" 
d="M214 264l-195 236h100l190 -241v241h86v-241l191 241h98l-195 -235l152 -192h67v-204h-81v131h-32l-200 256v-256h-86v256l-200 -256h-103z" />
    <glyph glyph-name="uni0498" unicode="&#x498;" horiz-adv-x="543" 
d="M250 719q60 0 103.5 -14t72 -39t42 -59.5t13.5 -76.5q0 -30 -9 -56t-25 -47.5t-36.5 -37t-43.5 -23.5q60 -14 98 -60.5t38 -117.5q0 -41 -13.5 -76.5t-41 -62.5t-68.5 -44t-95 -20l-7 -35q49 -4 74 -28.5t25 -60.5q0 -26 -10.5 -44.5t-28 -31.5t-41 -19t-49.5 -6
q-45 0 -72 7t-32 9l16 53q17 -5 35.5 -8.5t37.5 -3.5q33 0 51 10.5t18 30.5q0 14 -14.5 24.5t-45.5 10.5q-20 0 -38 -3l20 96q-38 3 -70.5 11t-57 17t-41.5 18t-24 15l35 71q26 -16 76.5 -33.5t118.5 -17.5q67 0 107 30t40 93q0 69 -42.5 98.5t-120.5 29.5h-85v83h85
q74 0 108 34t34 86q0 55 -34.5 85t-103.5 30q-55 0 -100 -14.5t-67 -28.5l-34 70q38 23 88.5 39.5t113.5 16.5z" />
    <glyph glyph-name="uni0499" unicode="&#x499;" horiz-adv-x="456" 
d="M121 -166q17 -5 34.5 -8.5t36.5 -3.5q32 0 48.5 10.5t16.5 28.5q0 14 -13.5 24.5t-44.5 10.5q-18 0 -36 -3l20 96q-54 5 -95 19.5t-63 30.5l31 64q25 -14 62.5 -28.5t93.5 -14.5q66 0 93.5 22t27.5 58q0 78 -115 78h-96v71h90q51 0 78 19.5t27 56.5q0 36 -29 55.5
t-83 19.5q-51 0 -84.5 -12.5t-54.5 -23.5l-28 64q23 14 68.5 29.5t104.5 15.5q98 0 144.5 -39t46.5 -100q0 -35 -21.5 -66.5t-59.5 -47.5q55 -16 77.5 -49.5t22.5 -75.5q0 -63 -46 -102.5t-133 -44.5l-7 -37q46 -4 70.5 -28t24.5 -59q0 -24 -10 -42t-27.5 -30.5t-40 -18.5
t-47.5 -6q-43 0 -69 7t-31 9z" />
    <glyph glyph-name="uni049A" unicode="&#x49a;" horiz-adv-x="596" 
d="M159 703v-325l282 325h105l-281 -324l241 -297h75v-242h-86v160h-40l-296 368v-368h-92v703h92z" />
    <glyph glyph-name="uni049B" unicode="&#x49b;" horiz-adv-x="495" 
d="M480 73v-204h-81v131h-34l-225 255v-255h-88v500h88v-241l217 241h103l-218 -237l169 -190h69z" />
    <glyph glyph-name="uni049C" unicode="&#x49c;" horiz-adv-x="616" 
d="M289 400l209 303h100l-231 -325q63 -96 124.5 -189.5t124.5 -188.5h-105q-56 86 -110.5 172t-111.5 173v-147h-68v140h-62v-338h-92v703h92v-296h62v118h68v-125z" />
    <glyph glyph-name="uni049D" unicode="&#x49d;" horiz-adv-x="526" 
d="M412 500h94l-179 -238l194 -262h-99l-167 229v-110h-59v106h-58v-225h-86v500h86v-212h58v100h59v-102z" />
    <glyph glyph-name="uni049E" unicode="&#x49e;" horiz-adv-x="606" 
d="M91 625v78h92v-78h89v-69h-89v-184l300 331h105l-300 -328l318 -375h-116q-78 92 -153.5 183t-153.5 183v-366h-92v556h-81v69h81z" />
    <glyph glyph-name="uni049F" unicode="&#x49f;" horiz-adv-x="506" 
d="M162 256l228 244h102l-229 -237l238 -263h-110l-229 254v-254h-87v397h-65v62h65v54h87v-54h73v-62h-73v-141z" />
    <glyph glyph-name="uni04A0" unicode="&#x4a0;" horiz-adv-x="696" 
d="M566 703h105l-281 -324l306 -379h-118l-294 368v-368h-92v620h-177v83h269v-325z" />
    <glyph glyph-name="uni04A1" unicode="&#x4a1;" horiz-adv-x="579" 
d="M238 259l217 241h103l-218 -237l234 -263h-111l-225 255v-255h-88v424h-134v76h222v-241z" />
    <glyph glyph-name="uni04A2" unicode="&#x4a2;" horiz-adv-x="663" 
d="M645 82v-242h-86v160h-76v334h-324v-334h-92v703h92v-286h324v286h92v-621h70z" />
    <glyph glyph-name="uni04A3" unicode="&#x4a3;" horiz-adv-x="558" 
d="M382 0v218h-241v-218h-89v500h89v-207h241v207h89v-427h62v-204h-81v131h-70z" />
    <glyph glyph-name="uni04A4" unicode="&#x4a4;" horiz-adv-x="762" 
d="M747 620h-172v-620h-92v334h-324v-334h-92v703h92v-286h324v286h264v-83z" />
    <glyph glyph-name="uni04A5" unicode="&#x4a5;" horiz-adv-x="618" 
d="M602 425h-130v-425h-89v218h-242v-218h-89v500h89v-207h242v207h219v-75z" />
    <glyph glyph-name="uni04A6" unicode="&#x4a6;" horiz-adv-x="955" 
d="M920 121q0 -78 -20.5 -136.5t-55.5 -96.5t-80.5 -57t-94.5 -19q-24 0 -49 3t-39 8q4 19 8 37t7 37q14 -4 33 -5.5t33 -1.5q35 0 65 12.5t52.5 40t35 71t12.5 105.5q0 112 -40.5 166t-126.5 54q-29 0 -57 -4.5t-51 -14.5v-320h-92v620h-301v-620h-92v703h485v-303
q21 8 52 14.5t70 6.5q57 0 102.5 -18t77.5 -54.5t49 -93t17 -134.5z" />
    <glyph glyph-name="uni04A7" unicode="&#x4a7;" horiz-adv-x="796" 
d="M362 425h-221v-425h-89v500h399v-220q19 8 44.5 13.5t57.5 5.5q103 0 161.5 -63t58.5 -195q0 -72 -19 -122.5t-49.5 -82t-70 -45.5t-79.5 -14q-24 0 -47.5 2t-37.5 7l10 74q10 -2 29.5 -5t42.5 -3q25 0 48.5 9t42 31t30 58t11.5 90q0 96 -34.5 140t-106.5 44
q-26 0 -49.5 -5t-42.5 -13v-206h-89v425z" />
    <glyph glyph-name="uni04A8" unicode="&#x4a8;" horiz-adv-x="748" 
d="M699 326q0 -106 -45.5 -182.5t-121.5 -116.5q50 -32 139 -32h24.5t33.5 4l4 -72q-16 -4 -35 -5t-35 -1q-68 0 -123 20t-101 55q-35 -9 -71 -9q-78 0 -138.5 26.5t-102 74.5t-63 115t-21.5 149q0 81 20.5 148.5t60.5 116t99.5 75t137.5 26.5q45 0 79 -7.5t57 -18.5
l-28 -71q-18 8 -45 12t-57 4q-59 0 -102 -20.5t-71.5 -58t-42.5 -90t-14 -116.5q0 -65 15 -118t44.5 -90t73 -57t100.5 -20h5.5t7.5 1q-35 47 -53.5 109t-18.5 134q0 68 15.5 116t42 78t62 43.5t76.5 13.5q88 0 140 -62t52 -174zM401 311q0 -75 18.5 -132t52.5 -97
q58 25 97 85.5t39 154.5q0 85 -27.5 123.5t-73.5 38.5q-23 0 -42 -9.5t-33.5 -30t-22.5 -53.5t-8 -80z" />
    <glyph glyph-name="uni04A9" unicode="&#x4a9;" horiz-adv-x="573" 
d="M283 56q-20 32 -31 68t-11 77q0 48 11.5 82.5t32 57t48.5 33t61 10.5q35 0 62.5 -12.5t46 -34.5t28.5 -53t10 -68q0 -67 -34.5 -120.5t-100.5 -81.5q24 -14 52.5 -20t60.5 -6q8 0 18.5 1t20.5 3l2 -30t3 -30q-12 -3 -26 -4.5t-25 -1.5q-112 0 -187 67q-10 -2 -21 -3
t-30 -1q-117 0 -181 67.5t-64 191.5q0 61 17 110t47.5 83.5t74 52.5t96.5 18q37 0 63.5 -6t43.5 -14q-5 -15 -12 -33t-13 -33q-29 12 -68 12q-80 0 -121 -51.5t-41 -137.5q0 -101 43 -146t124 -47zM359 64q51 17 78 56t27 94q0 105 -70 105q-33 0 -55 -26.5t-22 -83.5
q0 -48 11 -83.5t31 -61.5z" />
    <glyph glyph-name="uni04AA" unicode="&#x4aa;" horiz-adv-x="585" 
d="M301 -8q-128 15 -193 109.5t-65 249.5q0 81 19.5 148t58.5 114.5t97 74t136 26.5q71 0 124 -20.5t95 -55.5l-48 -67q-13 10 -29 20t-37 18t-46.5 13t-58.5 5q-107 0 -159 -73.5t-52 -202.5t51.5 -202t158.5 -73q30 0 56.5 5.5t48 13.5t38.5 18t28 18l48 -67
q-29 -26 -82.5 -49.5t-127.5 -25.5l-8 -39q49 -4 74 -28.5t25 -60.5q0 -26 -10.5 -44.5t-28 -31.5t-41 -19t-49.5 -6q-45 0 -72 7t-32 9l16 53q17 -5 35.5 -8.5t37.5 -3.5q33 0 51 10.5t18 30.5q0 14 -14.5 24.5t-45.5 10.5q-20 0 -38 -3z" />
    <glyph glyph-name="uni04AB" unicode="&#x4ab;" horiz-adv-x="443" 
d="M218 -8q-89 14 -137 80.5t-48 177.5q0 58 16 106.5t46 83t73 53.5t97 19q36 0 65 -7.5t50 -16.5t33.5 -17.5t14.5 -11.5l-39 -64q-3 3 -13.5 9t-26.5 12t-37 10.5t-45 4.5q-62 0 -102 -44.5t-40 -136.5q0 -95 40 -138.5t102 -43.5q47 0 79.5 12t43.5 18l35 -63
q-2 -3 -14 -10t-31.5 -14.5t-46 -14.5t-57.5 -8l-7 -37q46 -4 70.5 -28t24.5 -59q0 -24 -10 -42t-27.5 -30.5t-40 -18.5t-47.5 -6q-43 0 -69 7t-31 9l16 51q17 -5 34.5 -8.5t36.5 -3.5q32 0 48.5 10.5t16.5 28.5q0 14 -13.5 24.5t-44.5 10.5q-18 0 -36 -3z" />
    <glyph glyph-name="uni04AC" unicode="&#x4ac;" horiz-adv-x="548" 
d="M228 0v620h-213v83h518v-83h-213v-538h79v-242h-86v160h-85z" />
    <glyph glyph-name="uni04AD" unicode="&#x4ad;" horiz-adv-x="461" 
d="M186 0v425h-170v75h429v-75h-170v-352h72v-204h-81v131h-80z" />
    <glyph glyph-name="uni04AE" unicode="&#x4ae;" horiz-adv-x="551" 
d="M229 318l-224 385h102l173 -302l171 302h95l-225 -385v-318h-92v318z" />
    <glyph glyph-name="uni04AF" unicode="&#x4af;" horiz-adv-x="483" 
d="M475 500q-47 -120 -93.5 -238.5t-94.5 -238.5v-243h-89v243l-190 477h97q35 -95 70 -189.5t70 -189.5q35 95 68 189.5t68 189.5h94z" />
    <glyph glyph-name="uni04B0" unicode="&#x4b0;" horiz-adv-x="551" 
d="M73 328h150l-218 375h102l173 -302l171 302h95l-219 -375h150v-77h-156v-251h-92v251h-156v77z" />
    <glyph glyph-name="uni04B1" unicode="&#x4b1;" horiz-adv-x="483" 
d="M182 67l-174 433h97l140 -379q35 93 68 189t68 190h94q-44 -109 -85.5 -216.5t-86.5 -216.5h125v-67h-141v-220h-89v220h-140v67h124z" />
    <glyph glyph-name="uni04B2" unicode="&#x4b2;" horiz-adv-x="610" 
d="M290 298l-178 -298h-105l231 371l-200 332h109l149 -255l153 255h102l-203 -328l179 -293h68v-242h-86v160h-43z" />
    <glyph glyph-name="uni04B3" unicode="&#x4b3;" horiz-adv-x="495" 
d="M22 500h105l117 -173l116 173h95l-164 -236l133 -191h56v-204h-81v131h-30l-132 195l-133 -195h-96l181 259z" />
    <glyph glyph-name="uni04B4" unicode="&#x4b4;" horiz-adv-x="780" 
d="M191 0v620h-176v83h446v-83h-178v-538h315v621h92v-621h70v-242h-86v160h-483z" />
    <glyph glyph-name="uni04B5" unicode="&#x4b5;" horiz-adv-x="655" 
d="M371 500v-75h-132v-352h239v427h89v-427h63v-204h-81v131h-399v425h-134v75h355z" />
    </font>
</defs>
</svg>
